<svg width="35" height="35" viewBox="0 0 35 35" fill="none" xmlns="http://www.w3.org/2000/svg">
<path d="M29.3014 24.1207L22.7193 22.1435V19.4402C24.2296 18.1107 25.1763 16.2136 25.1763 14.1107V13.5408L25.7528 13.5048C26.6577 13.4483 27.3401 12.7876 27.3401 11.9678V10.9424C27.3401 10.2741 26.8879 9.70423 26.2582 9.49259V8.37901C26.2582 6.3808 25.5451 4.51288 24.2503 3.11931C23.1281 1.91146 21.6632 1.17127 20.1727 1.04494C19.9552 0.438047 19.3488 0 18.6359 0H16.3639C15.651 0 15.0446 0.438047 14.8271 1.0448C13.3365 1.17106 11.8717 1.91126 10.7495 3.11917C9.45468 4.51274 8.74162 6.38066 8.74162 8.37888V9.49245C8.11201 9.70409 7.65969 10.2739 7.65969 10.9423V11.9677C7.65969 12.7874 8.34203 13.4482 9.24695 13.5047L9.82355 13.5406V14.1105C9.82355 16.2135 10.7703 18.1106 12.2805 19.44V22.1434L5.69844 24.1205C2.69552 25.0225 0 26.1099 0 29.4618V35H34.9999V32.9492H33.9179V33.9746H29.6789V25.3181C32.4907 26.232 33.9179 27.2095 33.9179 29.4619V29.873H34.9999V29.4619C34.9999 26.1099 32.3043 25.0227 29.3014 24.1207ZM27.515 24.6597L28.5969 24.9847V31.9238H27.515V24.6597ZM6.40285 24.9847L7.48478 24.6598V31.9238H6.40285V24.9847ZM6.40285 32.9492H8.56671V24.3347L9.64863 24.0097V32.9492H16.9589V33.9746H6.40285V32.9492ZM10.7305 24.5014L16.9589 30.0936V31.9238H10.7305V24.5014ZM18.0409 30.0936L24.2693 24.5014V31.9238H18.0409V30.0936ZM14.741 2.08626V5.40367H15.8229V1.53809C15.8229 1.25535 16.0656 1.02539 16.3639 1.02539H18.6359C18.9342 1.02539 19.1769 1.25535 19.1769 1.53809V5.40367H20.2588V2.08626C22.7258 2.40379 25.1763 4.85174 25.1763 8.37888V9.40427H21.3407V8.89157C21.3407 8.04351 20.6128 7.35349 19.7179 7.35349H15.2819C14.3871 7.35349 13.6591 8.04344 13.6591 8.89157V9.40427H9.82355V8.37888C9.82355 4.85174 12.274 2.40379 14.741 2.08626ZM20.2588 9.40427H14.741V8.89157C14.741 8.60891 14.9836 8.37888 15.2819 8.37888H19.7179C20.0161 8.37888 20.2588 8.60884 20.2588 8.89157V9.40427ZM10.9055 14.1106V13.6082L13.3568 13.7611L13.4278 12.7379L9.318 12.4815C9.03857 12.4641 8.74162 12.2781 8.74162 11.9677V10.9424C8.74162 10.6597 8.98426 10.4297 9.28258 10.4297H25.7173C26.0155 10.4297 26.2583 10.6596 26.2583 10.9424V11.9677C26.2583 12.2781 25.9613 12.4641 25.6819 12.4815L17.4999 12.992L14.5076 12.8054L14.4366 13.8286L17.4999 14.0197L24.0943 13.6082V14.1107C24.0943 17.5569 21.136 20.3605 17.4999 20.3605C13.8638 20.3605 10.9055 17.5568 10.9055 14.1106ZM17.4999 21.3859C19.0223 21.3859 20.4426 20.9636 21.6373 20.2363V22.4064C21.0724 23.5072 19.4651 24.2132 17.4999 24.2132C15.5347 24.2132 13.9274 23.5071 13.3625 22.4064V20.2363C14.5572 20.9636 15.9775 21.3859 17.4999 21.3859ZM12.5541 23.137C13.4021 24.4272 15.2786 25.2386 17.4999 25.2386C19.7212 25.2386 21.5977 24.4272 22.4457 23.137L23.772 23.5354L17.4999 29.1668L11.2278 23.5354L12.5541 23.137ZM1.08186 29.4619C1.08186 27.2094 2.50906 26.232 5.32092 25.3181V33.9746H1.08186V29.4619ZM18.0409 33.9746V32.9492H25.3512V24.0097L26.4332 24.3347V32.9492H28.597V33.9746H18.0409Z" fill="#FFCB09"/>
<path d="M33.9181 30.8982H35V31.9238H33.9181V30.8982Z" fill="#FFCB09"/>
<path d="M21.3406 4.01135H22.4226V5.03644H21.3406V4.01135Z" fill="#FFCB09"/>
<path d="M22.4226 6.06195H23.5045V7.08752H22.4226V6.06195Z" fill="#FFCB09"/>
</svg>
