<svg width="35" height="35" viewBox="0 0 35 35" fill="none" xmlns="http://www.w3.org/2000/svg">
<g clip-path="url(#clip0)">
<path d="M29.6402 18.5294C30.0192 18.5294 30.3264 18.2221 30.3264 17.8431C30.3264 17.4641 30.0192 17.1569 29.6402 17.1569C29.2612 17.1569 28.9539 17.4641 28.9539 17.8431C28.9539 18.2221 29.2612 18.5294 29.6402 18.5294Z" fill="#FFCB09"/>
<path d="M5.2768 18.5294C5.65582 18.5294 5.96307 18.2221 5.96307 17.8431C5.96307 17.4641 5.65582 17.1569 5.2768 17.1569C4.89778 17.1569 4.59052 17.4641 4.59052 17.8431C4.59052 18.2221 4.89778 18.5294 5.2768 18.5294Z" fill="#FFCB09"/>
<path d="M17.6297 30.5392C18.0088 30.5392 18.316 30.232 18.316 29.853C18.316 29.4739 18.0088 29.1667 17.6297 29.1667C17.2507 29.1667 16.9435 29.4739 16.9435 29.853C16.9435 30.232 17.2507 30.5392 17.6297 30.5392Z" fill="#FFCB09"/>
<path d="M16.8628 21.9607H12.6467C13.0272 21.3338 13.8048 20.6218 14.5141 19.9722C15.8732 18.7273 17.2787 17.4402 17.2787 15.8851C17.2787 13.9317 15.692 12.7646 14.1582 12.7646C12.5939 12.7646 10.767 13.6527 10.767 16.1555C10.767 16.5343 11.0745 16.8418 11.4533 16.8418C11.8321 16.8418 12.1395 16.5343 12.1395 16.1555C12.1395 14.3338 13.5512 14.1372 14.1582 14.1372C14.884 14.1372 15.9062 14.6797 15.9062 15.8851C15.9062 16.8363 14.674 17.9645 13.5869 18.96C12.2758 20.1606 11.0374 21.295 11.0374 22.647V23.3333H16.8628C17.2416 23.3333 17.5491 23.0258 17.5491 22.647C17.5491 22.2682 17.2416 21.9607 16.8628 21.9607Z" fill="#FFCB09"/>
<path d="M24.3628 19.2154H22.9903V13.3821C22.9903 13.0767 22.7881 12.808 22.4948 12.7229C22.2024 12.6385 21.8874 12.7576 21.7237 13.0159L17.6061 19.5356C17.4726 19.7473 17.4644 20.0142 17.5852 20.2335C17.7063 20.4524 17.9362 20.5883 18.1863 20.5883H21.6177V22.6471C21.6177 23.0259 21.9252 23.3334 22.304 23.3334C22.6828 23.3334 22.9903 23.0259 22.9903 22.6468V20.588H24.3628C24.7416 20.588 25.0491 20.2805 25.0491 19.9017C25.0491 19.5229 24.7416 19.2154 24.3628 19.2154ZM21.6177 19.2157H19.4316L21.6177 15.7542V19.2157Z" fill="#FFCB09"/>
<path d="M33.9706 16.4706C33.402 16.4706 32.9412 16.9314 32.9412 17.5C32.9412 26.0143 26.0143 32.9412 17.5 32.9412C8.98573 32.9412 2.05882 26.0143 2.05882 17.5C2.05882 8.98573 8.98573 2.05882 17.5 2.05882C20.9571 2.05882 24.2251 3.17539 26.9503 5.2874C27.3995 5.63534 28.6517 5.94951 29 5.5C29.3483 5.05049 28.6612 4.00853 28.2117 3.66025C25.1221 1.26549 21.4179 0 17.5 0C7.85064 0 0 7.85029 0 17.5C0 27.1494 7.85064 35 17.5 35C27.1494 35 35 27.1494 35 17.5C35 16.9314 34.5392 16.4706 33.9706 16.4706Z" fill="#FFCB09" stroke="white" stroke-width="0.7"/>
<path d="M28.9537 0.833252V5.83325H23.9337" stroke="#FFCB09" stroke-width="1.2" stroke-linecap="round" stroke-linejoin="round"/>
<path d="M17.6297 6.51959C18.0088 6.51959 18.316 6.21233 18.316 5.83331C18.316 5.45429 18.0088 5.14703 17.6297 5.14703C17.2507 5.14703 16.9435 5.45429 16.9435 5.83331C16.9435 6.21233 17.2507 6.51959 17.6297 6.51959Z" fill="#FFCB09"/>
</g>
<defs>
<clipPath id="clip0">
<rect width="35" height="35" fill="white"/>
</clipPath>
</defs>
</svg>
