<svg width="35" height="35" viewBox="0 0 35 35" fill="none" xmlns="http://www.w3.org/2000/svg">
<path d="M33.8426 20.5006H33.3019V15.7827C33.3019 15.0358 32.9182 14.3745 32.3321 13.9727V13.3303C32.3321 12.3985 31.5496 11.6405 30.5877 11.6405H30.184L31.7287 9.44479C32.2464 8.70883 32.0495 7.70197 31.2898 7.20035L20.8084 0.281008C20.4404 0.0379904 19.9968 -0.0516971 19.559 0.0287619C19.1215 0.109084 18.7423 0.349641 18.4915 0.706204L9.44475 13.5662H6.92727L7.53464 7.61002C7.54149 7.5429 7.58651 7.48472 7.64931 7.46182C8.43183 7.17601 9.10998 6.64226 9.55879 5.95894C9.59414 5.90514 9.66083 5.87438 9.72984 5.88115L13.6784 6.25904C13.9615 6.28563 14.2134 6.08588 14.2413 5.81176C14.2693 5.53764 14.0626 5.29353 13.7796 5.26646L9.83103 4.88857C9.3727 4.84509 8.93561 5.04969 8.69004 5.42348C8.36007 5.92592 7.86144 6.31831 7.28611 6.52844C6.85304 6.68663 6.55567 7.06342 6.50994 7.51193L5.89262 13.5661H5.23614L6.19669 4.14591C6.23127 3.80685 6.54367 3.55775 6.89411 3.59172L14.8734 4.3553C15.1564 4.38175 15.4084 4.18214 15.4363 3.90802C15.4643 3.6339 15.2576 3.38979 14.9746 3.36272L6.9953 2.59914C6.08047 2.51171 5.26239 3.16147 5.17199 4.04782L4.39773 11.6405H3.07919C2.11736 11.6405 1.33477 12.3985 1.33477 13.3303V13.7685C0.547882 14.1195 0 14.89 0 15.7827V32.7834C0 34.0056 1.02647 35 2.28827 35H31.0137C32.2755 35 33.3019 34.0056 33.3019 32.7834V28.0656H33.8426C34.4808 28.0656 35 27.5627 35 26.9445V21.6217C35.0001 21.0035 34.4808 20.5006 33.8426 20.5006ZM30.5877 12.638C30.9819 12.6379 31.3025 12.9486 31.3025 13.3304V13.5845C31.2078 13.5729 31.1116 13.5662 31.0137 13.5662H28.8293L29.4823 12.638H30.5877ZM19.3423 1.26784C19.4383 1.13147 19.5833 1.03946 19.7507 1.00869C19.7907 1.00138 19.8309 0.997688 19.8707 0.997688C19.9975 0.997688 20.1215 1.03447 20.2286 1.10515L30.71 8.02449C31.0005 8.21637 31.0759 8.60151 30.8779 8.88301L27.5834 13.566H26.7928L28.408 11.2701C28.6699 10.8977 28.6915 10.4238 28.4642 10.0333C28.162 9.51445 28.0395 8.90352 28.1192 8.31297C28.1785 7.87362 27.9789 7.44473 27.5984 7.19358L22.1649 3.60662C21.7844 3.3554 21.2993 3.33237 20.8989 3.54654C20.3608 3.83433 19.729 3.94733 19.12 3.86475C18.6684 3.80336 18.2104 4.00092 17.9523 4.36767L11.4814 13.5661H10.6908L19.3423 1.26784ZM19.5691 9.73696C17.3271 9.73696 15.4867 11.4304 15.3367 13.5661H12.7272L18.803 4.92938C18.8031 4.92938 18.8031 4.92938 18.8031 4.92938C18.8376 4.88023 18.8948 4.85097 18.9536 4.85097C18.9614 4.85097 18.9692 4.85152 18.9771 4.85254C19.8054 4.96479 20.6645 4.81125 21.3965 4.41976C21.454 4.38886 21.528 4.39331 21.585 4.4309L27.0186 8.01793C27.0755 8.05552 27.1067 8.1206 27.0983 8.18377C26.9898 8.98692 27.1565 9.81776 27.5674 10.5234C27.6004 10.58 27.5963 10.6526 27.5572 10.7083L25.5469 13.566H23.8016C23.6515 11.4304 21.8112 9.73696 19.5691 9.73696ZM22.7691 13.5662H16.3691C16.5165 11.981 17.895 10.7345 19.5691 10.7345C21.2432 10.7344 22.6217 11.981 22.7691 13.5662ZM2.36442 13.3303C2.36442 12.9485 2.685 12.6379 3.07919 12.6379H4.29604L4.20141 13.5661H2.36442V13.3303ZM1.02964 15.7827C1.02964 15.1105 1.59425 14.5635 2.28827 14.5635H31.0137C31.7078 14.5635 32.2723 15.1105 32.2723 15.7827V17.1666H1.02964V15.7827ZM32.2723 32.7834C32.2723 33.4556 31.7078 34.0026 31.0137 34.0026H2.28827C1.59425 34.0026 1.02964 33.4556 1.02964 32.7834V31.3995H3.80589C4.09027 31.3995 4.32067 31.1762 4.32067 30.9008C4.32067 30.6254 4.0902 30.4021 3.80589 30.4021H1.02964V18.164H32.2723V20.5006H27.3774H27.3773C25.835 20.5006 24.499 21.3715 23.865 22.6321C23.8628 22.6363 23.8604 22.6404 23.8583 22.6447C23.8529 22.6554 23.8482 22.6665 23.843 22.6773C23.7675 22.8327 23.7019 22.9936 23.6485 23.1595C23.6483 23.16 23.6482 23.1604 23.648 23.1609C23.5341 23.5156 23.4726 23.8925 23.4726 24.2831C23.4726 26.3688 25.2242 28.0656 27.3772 28.0656H27.3773H32.2722V30.4021H7.10235C6.81797 30.4021 6.58756 30.6254 6.58756 30.9008C6.58756 31.1762 6.81804 31.3995 7.10235 31.3995H32.2723V32.7834ZM33.9704 26.9445C33.9704 27.0127 33.9131 27.0682 33.8426 27.0682H27.3774C26.2875 27.0682 25.3373 26.4776 24.8499 25.6095C24.8277 25.5701 24.8065 25.53 24.7863 25.4895C24.7458 25.4084 24.7094 25.325 24.6771 25.2397C24.5641 24.9413 24.5024 24.619 24.5024 24.2831C24.5024 23.9472 24.5641 23.6249 24.6771 23.3265C24.7094 23.2412 24.7459 23.1579 24.7863 23.0767C24.8065 23.0361 24.8277 22.9961 24.8499 22.9566C25.3373 22.0885 26.2875 21.498 27.3774 21.498H33.8426C33.9131 21.498 33.9704 21.5535 33.9704 21.6217V26.9445Z" fill="#FFCB09"/>
<path d="M2.08878 22.26C0.936988 22.26 0 23.1677 0 24.2834C0 25.3991 0.936988 26.3067 2.08878 26.3067C3.24057 26.3067 4.17756 25.3991 4.17756 24.2834C4.17756 23.1677 3.24057 22.26 2.08878 22.26ZM2.08878 25.3093C1.50477 25.3093 1.02964 24.8491 1.02964 24.2834C1.02964 23.7177 1.50477 23.2574 2.08878 23.2574C2.67279 23.2574 3.14792 23.7177 3.14792 24.2834C3.14792 24.8491 2.67279 25.3093 2.08878 25.3093Z" fill="#FFCB09"/>
</svg>
