<svg width="35" height="35" viewBox="0 0 35 35" fill="none" xmlns="http://www.w3.org/2000/svg">
<path d="M33.871 28.2885V23.1452C33.871 22.4102 33.3973 21.7892 32.7419 21.5555V20.8871C32.7419 19.9534 31.9821 19.1935 31.0484 19.1935H24.7348C24.5011 18.5381 23.8802 18.0645 23.1452 18.0645V11.0007C23.1452 9.58379 22.3808 8.26847 21.1496 7.56734L10.3284 1.40226C9.83726 0.567903 8.93968 0 7.90323 0C6.35363 0 5.09306 1.25661 5.08234 2.80395H5.08065L4.5325 19.2489C3.23806 19.5052 2.25806 20.6477 2.25806 22.0161C2.25806 22.623 2.45452 23.1819 2.78194 23.6431L1.17589 25.5161C0.417742 26.4007 0 27.5292 0 28.6944C0 29.9995 0.508065 31.2256 1.43048 32.1481L3.1246 33.8422C3.87089 34.5885 4.86331 35 5.91895 35H10.1613H10.7258H11.8548V33.871H10.7258V30.7774L8.78669 29.2261C8.1979 28.7553 7.82815 28.0835 7.7446 27.3339L7.33984 23.691C7.68927 23.2208 7.90323 22.645 7.90323 22.0161C7.90323 21.1411 7.49452 20.3677 6.86734 19.8495L9.49177 5.1529C9.59113 5.0846 9.67976 5.00331 9.77008 4.92314L15.562 10.7151C15.3633 11.051 15.2419 11.4371 15.2419 11.8548C15.2419 12.9037 15.9645 13.7804 16.9355 14.0327V18.0645H16.7323C15.9278 18.0645 15.229 18.6369 15.0715 19.4256L13.5597 26.9861L13.5518 28.2851C12.8523 28.9981 12.4194 29.973 12.4194 31.0484C12.4194 33.2269 14.1919 35 16.371 35H31.0484C33.2274 35 35 33.2269 35 31.0484C35 29.9747 34.5681 29.0009 33.871 28.2885ZM5.08065 20.3226C6.01435 20.3226 6.77419 21.0824 6.77419 22.0161C6.77419 22.9498 6.01435 23.7097 5.08065 23.7097C4.14694 23.7097 3.3871 22.9498 3.3871 22.0161C3.3871 21.0824 4.14694 20.3226 5.08065 20.3226ZM8.08161 30.1079L9.59677 31.3194V31.6129H8.46774V32.7419H9.59677V33.871H5.91895C5.16476 33.871 4.45573 33.5769 3.92282 33.044L2.22871 31.3498C1.51968 30.6408 1.12903 29.6975 1.12903 28.6944C1.12903 27.7985 1.45024 26.9308 2.03339 26.2506L3.60895 24.4131C4.03855 24.6778 4.53984 24.8387 5.08065 24.8387C5.51927 24.8387 5.92911 24.7298 6.3 24.5502L6.6229 27.4581C6.73919 28.5075 7.25742 29.4485 8.08161 30.1079ZM5.81847 19.3036C5.7654 19.289 5.71629 19.2664 5.66266 19.2551L6.13742 5.00613C6.62234 5.3996 7.23145 5.64516 7.90323 5.64516C8.02685 5.64516 8.14427 5.62427 8.26395 5.60847L5.81847 19.3036ZM7.90323 4.51613C6.96952 4.51613 6.20968 3.75629 6.20968 2.82258C6.20968 1.88887 6.96952 1.12903 7.90323 1.12903C8.83694 1.12903 9.59677 1.88887 9.59677 2.82258C9.59677 3.75629 8.83694 4.51613 7.90323 4.51613ZM24.8387 22.5806H25.9677V21.4516H24.8387V20.3226H31.0484C31.3594 20.3226 31.6129 20.5755 31.6129 20.8871V21.4516H27.0968V22.5806H32.1774C32.4885 22.5806 32.7419 22.8335 32.7419 23.1452V27.4835C32.2277 27.2385 31.6552 27.0968 31.0484 27.0968H24.8387V22.5806ZM10.4543 4.01089C10.6101 3.67726 10.7015 3.31089 10.7156 2.9225L20.5907 8.54847C21.4702 9.04919 22.0161 9.98911 22.0161 11.0007V18.0645H18.0645V14.0327C19.0355 13.7804 19.7581 12.9037 19.7581 11.8548C19.7581 10.6095 18.7453 9.59677 17.5 9.59677C17.0823 9.59677 16.6961 9.71814 16.3602 9.91685L10.4543 4.01089ZM16.371 11.8548C16.371 11.2322 16.8773 10.7258 17.5 10.7258C18.1227 10.7258 18.629 11.2322 18.629 11.8548C18.629 12.4775 18.1227 12.9839 17.5 12.9839C16.8773 12.9839 16.371 12.4775 16.371 11.8548ZM14.6774 27.1527L16.1785 19.6474C16.231 19.3844 16.4641 19.1935 16.7323 19.1935H23.1452C23.4562 19.1935 23.7097 19.4465 23.7097 19.7581V27.0968H16.371C15.7641 27.0968 15.1917 27.2385 14.6774 27.4835V27.1527ZM31.0484 33.871H16.371C14.8146 33.871 13.5484 32.6048 13.5484 31.0484C13.5484 29.492 14.8146 28.2258 16.371 28.2258H31.0484C32.6048 28.2258 33.871 29.492 33.871 31.0484C33.871 32.6048 32.6048 33.871 31.0484 33.871Z" fill="#FFCB09"/>
<path d="M30.4839 28.7903C29.8065 28.7903 29.2047 29.0963 28.7903 29.5705C28.376 29.0963 27.7742 28.7903 27.0968 28.7903C26.4194 28.7903 25.8176 29.0963 25.4032 29.5705C24.9889 29.0963 24.3871 28.7903 23.7097 28.7903C23.0323 28.7903 22.4305 29.0963 22.0161 29.5705C21.6018 29.0963 21 28.7903 20.3226 28.7903C19.6452 28.7903 19.0434 29.0963 18.629 29.5705C18.2147 29.0963 17.6129 28.7903 16.9355 28.7903C15.6902 28.7903 14.6774 29.8031 14.6774 31.0484C14.6774 32.2937 15.6902 33.3064 16.9355 33.3064C17.6129 33.3064 18.2147 33.0005 18.629 32.5263C19.0434 33.0005 19.6452 33.3064 20.3226 33.3064C21 33.3064 21.6018 33.0005 22.0161 32.5263C22.4305 33.0005 23.0323 33.3064 23.7097 33.3064C24.3871 33.3064 24.9889 33.0005 25.4032 32.5263C25.8176 33.0005 26.4194 33.3064 27.0968 33.3064C27.7742 33.3064 28.376 33.0005 28.7903 32.5263C29.2047 33.0005 29.8065 33.3064 30.4839 33.3064C31.7292 33.3064 32.7419 32.2937 32.7419 31.0484C32.7419 29.8031 31.7292 28.7903 30.4839 28.7903ZM16.9355 32.1774C16.3128 32.1774 15.8065 31.671 15.8065 31.0484C15.8065 30.4257 16.3128 29.9193 16.9355 29.9193C17.5581 29.9193 18.0645 30.4257 18.0645 31.0484C18.0645 31.671 17.5581 32.1774 16.9355 32.1774ZM20.3226 32.1774C19.6999 32.1774 19.1935 31.671 19.1935 31.0484C19.1935 30.4257 19.6999 29.9193 20.3226 29.9193C20.9452 29.9193 21.4516 30.4257 21.4516 31.0484C21.4516 31.671 20.9452 32.1774 20.3226 32.1774ZM23.7097 32.1774C23.087 32.1774 22.5806 31.671 22.5806 31.0484C22.5806 30.4257 23.087 29.9193 23.7097 29.9193C24.3323 29.9193 24.8387 30.4257 24.8387 31.0484C24.8387 31.671 24.3323 32.1774 23.7097 32.1774ZM27.0968 32.1774C26.4741 32.1774 25.9677 31.671 25.9677 31.0484C25.9677 30.4257 26.4741 29.9193 27.0968 29.9193C27.7194 29.9193 28.2258 30.4257 28.2258 31.0484C28.2258 31.671 27.7194 32.1774 27.0968 32.1774ZM30.4839 32.1774C29.8612 32.1774 29.3548 31.671 29.3548 31.0484C29.3548 30.4257 29.8612 29.9193 30.4839 29.9193C31.1065 29.9193 31.6129 30.4257 31.6129 31.0484C31.6129 31.671 31.1065 32.1774 30.4839 32.1774Z" fill="#FFCB09"/>
<path d="M23.1452 20.3226H17.0371L16.3817 23.599L16.371 24.8387H23.1452V20.3226ZM22.0161 23.7097H17.5113L17.9629 21.4516H22.0161V23.7097Z" fill="#FFCB09"/>
<path d="M31.6129 23.7097H29.3548V24.8387H31.6129V23.7097Z" fill="#FFCB09"/>
<path d="M28.2258 23.7097H25.9677V24.8387H28.2258V23.7097Z" fill="#FFCB09"/>
</svg>
