<svg width="30" height="30" viewBox="0 0 30 30" fill="none" xmlns="http://www.w3.org/2000/svg">
<g clip-path="url(#clip0)">
<path d="M22.9997 0H6.9997C6.1727 0 5.49969 0.673008 5.49969 1.5C5.49969 2.32699 6.1727 3 6.9997 3H22.9997C23.8267 3 24.4997 2.32699 24.4997 1.5C24.4997 0.673008 23.8266 0 22.9997 0ZM22.9997 1.99998H6.9997C6.72419 1.99998 6.49971 1.77598 6.49971 1.5C6.49971 1.22402 6.72419 1.00002 6.9997 1.00002H22.9997C23.2752 1.00002 23.4997 1.22402 23.4997 1.5C23.4997 1.77598 23.2752 1.99998 22.9997 1.99998Z" fill="#FFCB09"/>
<path d="M22.9997 27.0002H6.9997C6.1727 27.0002 5.49969 27.6733 5.49969 28.5002C5.49969 29.3272 6.1727 30.0002 6.9997 30.0002H22.9997C23.8267 30.0002 24.4997 29.3272 24.4997 28.5002C24.4997 27.6733 23.8266 27.0002 22.9997 27.0002ZM22.9997 29.0002H6.9997C6.72419 29.0002 6.49971 28.7762 6.49971 28.5002C6.49971 28.2243 6.72419 28.0003 6.9997 28.0003H22.9997C23.2752 28.0003 23.4997 28.2243 23.4997 28.5002C23.4997 28.7762 23.2752 29.0002 22.9997 29.0002Z" fill="#FFCB09"/>
<path d="M18.563 13.1442C21.102 10.6052 22.5 7.22968 22.5 3.6397V2.50022C22.5 2.22372 22.276 2.00024 22 2.00024H7.99998C7.724 2.00024 7.5 2.22372 7.5 2.50022V3.6397C7.5 7.2302 8.89799 10.6052 11.4365 13.1442L11.939 13.6467C12.2955 14.0032 12.5 14.4962 12.5 15.0002C12.5 15.5042 12.2955 15.9972 11.9395 16.3537L11.437 16.8562C8.89799 19.3952 7.5 22.7702 7.5 26.3607V27.5002C7.5 27.7767 7.724 28.0002 7.99998 28.0002H22C22.2759 28.0002 22.4999 27.7767 22.4999 27.5002V26.3607C22.4999 22.7707 21.102 19.3952 18.563 16.8562L18.0605 16.3537C17.6989 15.9922 17.5 15.5117 17.5 15.0002C17.5 14.4887 17.6989 14.0082 18.0605 13.6467L18.563 13.1442ZM17.3535 12.9397C16.803 13.4897 16.5 14.2212 16.5 15.0002C16.5 15.7792 16.803 16.5107 17.3535 17.0607L17.856 17.5632C20.206 19.9132 21.5 23.0377 21.5 26.3607V27.0002H8.50002V26.3607C8.50002 23.0372 9.794 19.9132 12.1435 17.5632L12.646 17.0607C13.197 16.5107 13.5 15.7787 13.5 15.0002C13.5 14.2217 13.197 13.4897 12.6465 12.9397L12.144 12.4372C9.794 10.0872 8.50002 6.96267 8.50002 3.6397V3.00021H21.5V3.6397C21.5 6.96272 20.2061 10.0872 17.856 12.4372L17.3535 12.9397Z" fill="#FFCB09"/>
<path d="M19.2252 8.4235C19.1747 8.29653 19.0027 7.99999 18.4997 7.99999C15.9017 7.99999 14.7442 7.44346 14.2852 7.11147C13.7127 6.69698 12.9782 6.58846 12.3187 6.82196C11.6892 7.04444 11.2282 7.53944 11.0547 8.17946C11.0097 8.34598 11.0016 8.45397 11.0016 8.45397C10.9941 8.55247 11.0156 8.65899 11.0642 8.74548C11.5327 9.57598 12.0731 10.452 12.8512 11.23L13.3531 11.7325C14.0926 12.471 14.4996 13.454 14.4996 14.5C14.4996 14.7765 14.7236 14.9999 14.9996 14.9999C15.2756 14.9999 15.4996 14.7765 15.4996 14.5C15.4996 13.4545 15.9066 12.4715 16.6456 11.7325L17.1486 11.2294C17.2721 11.1065 17.4331 10.9545 17.6101 10.7885C18.9027 9.57299 19.4462 8.98149 19.2252 8.4235ZM16.9242 10.06C16.7393 10.2345 16.5702 10.3935 16.4413 10.5225L15.9382 11.0255C15.5497 11.4135 15.2347 11.8555 14.9992 12.3345C14.7637 11.8555 14.4487 11.4135 14.0602 11.0255L13.5581 10.523C12.9441 9.90856 12.4947 9.23204 12.0271 8.41653C12.1507 7.99905 12.4706 7.82901 12.6522 7.7645C13.0012 7.64098 13.3927 7.69952 13.6987 7.92153C14.3356 8.38255 15.5916 8.926 17.9977 8.99303C17.6887 9.34102 17.2037 9.79753 16.9242 10.06Z" fill="#FFCB09"/>
<path d="M20.4656 25.461C20.3401 23.84 19.6901 23.167 18.9381 22.387C18.8366 22.2814 18.7306 22.172 18.6221 22.056C17.9941 21.385 17.1071 21 16.1876 21H13.8121C12.8931 21 12.0056 21.385 11.3776 22.056C11.2691 22.172 11.1636 22.281 11.0621 22.3865C10.3095 23.1665 9.65955 23.84 9.53457 25.4615C9.52356 25.6005 9.57155 25.7375 9.66606 25.84C9.76104 25.942 9.89358 26 10.033 26H19.967C20.106 26 20.239 25.942 20.334 25.8396C20.4286 25.737 20.4761 25.5995 20.4656 25.461ZM10.6026 25C10.7721 24.127 11.1761 23.709 11.7821 23.081C11.8871 22.972 11.996 22.8585 12.1081 22.739C12.5476 22.269 13.1686 22 13.8121 22H16.1876C16.8316 22 17.4526 22.2695 17.8921 22.7385C18.0046 22.8595 18.1136 22.972 18.2191 23.0815C18.8246 23.7096 19.2281 24.1276 19.3981 25H10.6026Z" fill="#FFCB09"/>
<path d="M14.9853 16C14.7093 16 14.4853 16.2235 14.4853 16.5V17C14.4853 17.2765 14.7093 17.4999 14.9853 17.4999C15.2612 17.4999 15.4853 17.2765 15.4853 17V16.5C15.4853 16.2235 15.2612 16 14.9853 16Z" fill="#FFCB09"/>
<path d="M14.9853 18.5C14.7093 18.5 14.4853 18.7235 14.4853 19V19.5C14.4853 19.7765 14.7093 19.9999 14.9853 19.9999C15.2612 19.9999 15.4853 19.7765 15.4853 19.5V19C15.4853 18.7235 15.2612 18.5 14.9853 18.5Z" fill="#FFCB09"/>
</g>
<defs>
<clipPath id="clip0">
<rect width="30" height="30" fill="white"/>
</clipPath>
</defs>
</svg>
