<svg width="30" height="30" viewBox="0 0 30 30" fill="none" xmlns="http://www.w3.org/2000/svg">
<path d="M27.6565 15.4689H25.7904C25.6573 15.0673 25.4958 14.6757 25.3071 14.2971L26.6247 12.9799C26.6683 12.9363 26.7029 12.8846 26.7265 12.8277C26.7501 12.7708 26.7622 12.7098 26.7622 12.6482C26.7622 12.5866 26.7501 12.5256 26.7265 12.4687C26.7029 12.4118 26.6683 12.3601 26.6247 12.3166L24.078 9.76894C24.3307 9.81571 24.587 9.83956 24.844 9.84019C25.5407 9.84097 26.2267 9.66904 26.8407 9.33978C27.4546 9.01053 27.9774 8.53422 28.3623 7.95345C28.7471 7.37269 28.982 6.70559 29.0459 6.01184C29.1098 5.31808 29.0008 4.6193 28.7285 3.978C28.6985 3.90731 28.6517 3.84505 28.5921 3.7967C28.5324 3.74835 28.4618 3.71539 28.3864 3.70072C28.3111 3.68604 28.2333 3.6901 28.1599 3.71254C28.0864 3.73498 28.0196 3.77511 27.9654 3.82941L26.3308 5.46441C26.2861 5.50765 26.2504 5.55937 26.2258 5.61656C26.2012 5.67375 26.1883 5.73526 26.1877 5.7975C26.1872 5.85974 26.1991 5.92147 26.2226 5.97907C26.2462 6.03668 26.281 6.08902 26.325 6.13303C26.369 6.17704 26.4214 6.21185 26.479 6.23542C26.5366 6.25899 26.5983 6.27085 26.6606 6.27031C26.7228 6.26977 26.7843 6.25683 26.8415 6.23227C26.8987 6.2077 26.9504 6.17199 26.9936 6.12722L28.0755 5.04581C28.1985 5.73342 28.0989 6.44234 27.7911 7.06939C27.4833 7.69645 26.9835 8.20892 26.3643 8.53223C25.7451 8.85554 25.0389 8.97281 24.3484 8.86697C23.6579 8.76114 23.0193 8.43773 22.5253 7.9438C22.0314 7.44987 21.708 6.81121 21.6022 6.12075C21.4963 5.43029 21.6136 4.72408 21.9369 4.10489C22.2602 3.48569 22.7727 2.98583 23.3998 2.67805C24.0268 2.37027 24.7357 2.27063 25.4233 2.39363L23.1883 4.6291C23.1005 4.717 23.0511 4.83621 23.0511 4.9605C23.0511 5.0848 23.1005 5.204 23.1883 5.29191L25.1772 7.28081C25.2656 7.3662 25.3841 7.41345 25.507 7.41238C25.6299 7.41131 25.7474 7.36201 25.8343 7.2751C25.9213 7.18819 25.9705 7.07063 25.9716 6.94772C25.9727 6.82482 25.9254 6.70641 25.8401 6.618L24.1826 4.9605L26.6397 2.50378C26.694 2.4495 26.7342 2.38271 26.7566 2.30929C26.779 2.23587 26.7831 2.15806 26.7684 2.08269C26.7538 2.00733 26.7208 1.93673 26.6724 1.87709C26.6241 1.81745 26.5618 1.7706 26.4911 1.74066C25.7433 1.42284 24.9196 1.32804 24.1191 1.46769C23.3187 1.60734 22.5757 1.97548 21.9797 2.52775C21.3836 3.08002 20.96 3.79285 20.7599 4.58036C20.5598 5.36787 20.5916 6.19646 20.8516 6.96628L20.0843 7.73456C20.0444 7.66426 19.9868 7.60564 19.9172 7.56451C19.8477 7.52339 19.7685 7.50122 19.6877 7.50019H17.7086L17.5488 7.17722L18.2772 6.98175C18.3367 6.96582 18.3925 6.93832 18.4413 6.90084C18.4901 6.86335 18.5311 6.81661 18.5619 6.76329C18.5927 6.70997 18.6126 6.6511 18.6207 6.59006C18.6287 6.52902 18.6246 6.467 18.6086 6.40753L18.3869 5.57831L19.2147 5.3566C19.3098 5.33107 19.3944 5.27627 19.4566 5.19996C19.5188 5.12365 19.5554 5.0297 19.5611 4.93144L19.6877 2.84081C19.6928 2.75383 19.6736 2.66713 19.6322 2.59046C19.5908 2.51378 19.5289 2.45017 19.4533 2.40675L17.0158 1.0005C16.9625 0.969651 16.9036 0.949616 16.8425 0.941542C16.7815 0.933469 16.7194 0.937515 16.6599 0.953449C16.6004 0.969383 16.5446 0.996892 16.4957 1.0344C16.4468 1.07192 16.4058 1.11869 16.3751 1.17206L12.7657 7.42331L11.0182 5.67206L11.3501 5.34066C11.3936 5.29712 11.4282 5.24543 11.4518 5.18852C11.4754 5.13162 11.4875 5.07062 11.4875 5.00902C11.4875 4.94742 11.4754 4.88642 11.4518 4.82951C11.4282 4.77261 11.3936 4.72091 11.3501 4.67738L10.8921 4.21988C11.0475 3.79877 11.3015 3.42105 11.633 3.11838C11.9644 2.81571 12.3636 2.59692 12.7971 2.48035C12.8889 2.45561 12.9709 2.40357 13.0325 2.33111C13.094 2.25865 13.132 2.1692 13.1415 2.07463C13.151 1.98006 13.1316 1.88483 13.0857 1.80157C13.0398 1.71832 12.9698 1.65098 12.8847 1.60847L12.3283 1.3305C11.702 1.01738 10.9998 0.888016 10.3029 0.957366C9.60613 1.02672 8.94319 1.29195 8.39083 1.72238L8.03318 1.36472C7.94527 1.27684 7.82607 1.22748 7.70177 1.22748C7.57747 1.22748 7.45827 1.27684 7.37036 1.36472L6.19849 2.53378C6.1131 2.62219 6.06586 2.7406 6.06692 2.8635C6.06799 2.98641 6.11729 3.10398 6.2042 3.19089C6.29111 3.2778 6.40868 3.32709 6.53158 3.32816C6.65449 3.32923 6.77289 3.28198 6.8613 3.1966L7.6999 2.35894L10.3511 5.01019L7.36802 7.99378L4.72099 5.34394L5.54036 4.5241C5.62575 4.43569 5.673 4.31728 5.67193 4.19438C5.67086 4.07147 5.62156 3.9539 5.53465 3.86699C5.44774 3.78008 5.33018 3.73079 5.20727 3.72972C5.08437 3.72865 4.96596 3.7759 4.87755 3.86128L3.72677 5.01066C3.68319 5.05419 3.64861 5.10589 3.62502 5.1628C3.60143 5.2197 3.58929 5.2807 3.58929 5.3423C3.58929 5.4039 3.60143 5.4649 3.62502 5.5218C3.64861 5.57871 3.68319 5.6304 3.72677 5.67394L4.05818 6.00488L3.3949 6.66816L3.06349 6.33675C2.97559 6.24887 2.85638 6.19951 2.73208 6.19951C2.60779 6.19951 2.48858 6.24887 2.40068 6.33675L1.07505 7.66238C0.987175 7.75028 0.937808 7.86949 0.937808 7.99378C0.937808 8.11808 0.987175 8.23729 1.07505 8.32519L4.38958 11.6397C4.47749 11.7276 4.59669 11.777 4.72099 11.777C4.84528 11.777 4.96449 11.7276 5.0524 11.6397L6.37802 10.3127C6.4659 10.2248 6.51526 10.1056 6.51526 9.98128C6.51526 9.85699 6.4659 9.73778 6.37802 9.64988L6.04661 9.318L6.70943 8.65519L7.0413 8.9866C7.12921 9.07447 7.24841 9.12384 7.37271 9.12384C7.497 9.12384 7.61621 9.07447 7.70411 8.9866L8.36693 8.32331L10.2105 10.1669L8.06271 12.3152C8.01913 12.3587 7.98455 12.4104 7.96096 12.4673C7.93737 12.5242 7.92523 12.5852 7.92523 12.6468C7.92523 12.7084 7.93737 12.7694 7.96096 12.8263C7.98455 12.8832 8.01913 12.9349 8.06271 12.9785L9.38036 14.2957C9.20695 14.646 9.05693 15.0074 8.9313 15.3775L3.51583 12.2505C3.40817 12.1883 3.28023 12.1715 3.16015 12.2037C3.04007 12.2358 2.93768 12.3144 2.87552 12.4221L1.00052 15.6696C0.938364 15.7772 0.921519 15.9052 0.953693 16.0253C0.985867 16.1453 1.06442 16.2477 1.17208 16.3099L5.8338 19.0014L3.41927 20.3955C3.25915 20.4878 3.11878 20.6107 3.00619 20.7572C2.8936 20.9038 2.811 21.0711 2.76311 21.2496C2.71522 21.4281 2.70299 21.6142 2.7271 21.7975C2.75122 21.9807 2.81121 22.1574 2.90365 22.3174L4.77865 25.5653C4.8599 25.7031 4.96405 25.8259 5.08661 25.9286L2.57833 27.3752C2.52496 27.406 2.47819 27.447 2.44067 27.4958C2.40316 27.5447 2.37565 27.6005 2.35972 27.66C2.34378 27.7195 2.33974 27.7816 2.34781 27.8427C2.35589 27.9038 2.37592 27.9626 2.40677 28.016L2.87552 28.8278C2.90607 28.8816 2.94696 28.9288 2.99581 28.9666C3.04467 29.0045 3.10054 29.0323 3.1602 29.0485C3.21986 29.0647 3.28213 29.069 3.34343 29.061C3.40474 29.053 3.46386 29.033 3.51739 29.0021C3.57093 28.9712 3.61782 28.93 3.65537 28.8809C3.69292 28.8318 3.72039 28.7757 3.73619 28.716C3.75199 28.6562 3.75582 28.5939 3.74744 28.5327C3.73907 28.4714 3.71866 28.4124 3.6874 28.3591L3.45302 27.9532L7.03146 25.8869L8.72458 24.9096L11.3777 27.5627C11.4212 27.6063 11.4729 27.6408 11.5298 27.6644C11.5868 27.688 11.6477 27.7002 11.7093 27.7002C11.7709 27.7002 11.8319 27.688 11.8889 27.6644C11.9458 27.6408 11.9975 27.6063 12.041 27.5627L13.3582 26.245C13.7373 26.4336 14.1294 26.595 14.5315 26.7278V28.5939C14.5315 28.7183 14.5808 28.8375 14.6688 28.9254C14.7567 29.0133 14.8759 29.0627 15.0002 29.0627H19.6877C19.812 29.0627 19.9313 29.0133 20.0192 28.9254C20.1071 28.8375 20.1565 28.7183 20.1565 28.5939V26.7278C20.5581 26.5948 20.9497 26.4332 21.3283 26.2446L22.6455 27.5622C22.6891 27.6058 22.7408 27.6404 22.7977 27.664C22.8546 27.6876 22.9156 27.6997 22.9772 27.6997C23.0388 27.6997 23.0998 27.6876 23.1567 27.664C23.2136 27.6404 23.2653 27.6058 23.3088 27.5622L26.6252 24.2477C26.6688 24.2042 26.7034 24.1525 26.727 24.0956C26.7505 24.0386 26.7627 23.9777 26.7627 23.916C26.7627 23.8545 26.7505 23.7935 26.727 23.7365C26.7034 23.6796 26.6688 23.6279 26.6252 23.5844L25.3071 22.2658C25.4958 21.8871 25.6573 21.4955 25.7904 21.0939H27.6565C27.7808 21.0939 27.9 21.0446 27.9879 20.9566C28.0758 20.8687 28.1252 20.7495 28.1252 20.6252C28.1252 20.5009 28.0758 20.3816 27.9879 20.2937C27.9 20.2058 27.7808 20.1564 27.6565 20.1564H25.4444C25.3427 20.1564 25.2438 20.1895 25.1626 20.2506C25.0813 20.3117 25.0221 20.3976 24.994 20.4953C24.8313 21.0629 24.6059 21.6105 24.3218 22.128C24.2727 22.217 24.2538 22.3195 24.268 22.4201C24.2822 22.5207 24.3287 22.6139 24.4005 22.6858L25.6305 23.9163L22.9788 26.568L21.7502 25.338C21.6783 25.2662 21.5851 25.2197 21.4845 25.2055C21.3838 25.1913 21.2813 25.2102 21.1924 25.2593C20.6749 25.5433 20.1273 25.7688 19.5597 25.9314C19.462 25.9596 19.3761 26.0188 19.315 26.1C19.2539 26.1813 19.2208 26.2802 19.2208 26.3819V28.1252H15.469V26.3819C15.469 26.2802 15.4359 26.1813 15.3748 26.1C15.3137 26.0188 15.2278 25.9596 15.1301 25.9314C14.5625 25.7688 14.0149 25.5433 13.4974 25.2593C13.4084 25.2102 13.3059 25.1913 13.2053 25.2055C13.1047 25.2197 13.0115 25.2662 12.9396 25.338L11.7091 26.568L9.0574 23.9163L10.2874 22.6877C10.3592 22.6158 10.4057 22.5225 10.4199 22.4219C10.4341 22.3213 10.4152 22.2188 10.3661 22.1299C10.0821 21.6124 9.8566 21.0648 9.69396 20.4972C9.66613 20.3992 9.6071 20.3129 9.52582 20.2514C9.44453 20.1899 9.34542 20.1565 9.24349 20.1564H7.50021V16.4064H9.24349C9.34517 16.4065 9.44411 16.3734 9.52536 16.3123C9.60662 16.2511 9.66579 16.1652 9.69396 16.0675C9.8566 15.5 10.0821 14.9524 10.3661 14.4349C10.4152 14.3459 10.4341 14.2434 10.4199 14.1428C10.4057 14.0422 10.3592 13.9489 10.2874 13.8771L9.0574 12.6466L11.7091 9.99488L12.9377 11.2249C13.0096 11.2967 13.1029 11.3432 13.2035 11.3574C13.3041 11.3716 13.4066 11.3527 13.4955 11.3036C14.013 11.0195 14.5606 10.7941 15.1282 10.6314C15.2262 10.6036 15.3125 10.5446 15.374 10.4633C15.4355 10.382 15.4689 10.2829 15.469 10.181V8.43769H19.219V10.181C19.2189 10.2827 19.252 10.3816 19.3131 10.4628C19.3743 10.5441 19.4602 10.6033 19.5579 10.6314C20.1254 10.7941 20.673 11.0195 21.1905 11.3036C21.2795 11.3527 21.382 11.3716 21.4826 11.3574C21.5832 11.3432 21.6765 11.2967 21.7483 11.2249L22.9788 9.99488L25.6305 12.6466L24.4005 13.8752C24.3287 13.9471 24.2822 14.0403 24.268 14.1409C24.2538 14.2416 24.2727 14.3441 24.3218 14.433C24.6059 14.9505 24.8313 15.4981 24.994 16.0657C25.0221 16.1634 25.0813 16.2493 25.1626 16.3104C25.2438 16.3715 25.3427 16.4046 25.4444 16.4046H27.1877V18.7483C27.1877 18.8726 27.2371 18.9919 27.325 19.0798C27.4129 19.1677 27.5321 19.2171 27.6565 19.2171C27.7808 19.2171 27.9 19.1677 27.9879 19.0798C28.0758 18.9919 28.1252 18.8726 28.1252 18.7483V15.9377C28.1252 15.8134 28.0758 15.6941 27.9879 15.6062C27.9 15.5183 27.7808 15.4689 27.6565 15.4689ZM4.72099 10.6455L2.06927 7.99378L2.73208 7.33097L5.3838 9.98456L4.72099 10.6455ZM5.3838 8.65659L4.05771 7.33097L4.72099 6.66769L6.04708 7.99378L5.3838 8.65659ZM3.45302 13.2972L4.2649 13.766L3.56177 14.9847C3.53051 15.0381 3.5101 15.097 3.50172 15.1583C3.49335 15.2195 3.49717 15.2818 3.51297 15.3416C3.52878 15.4014 3.55624 15.4574 3.59379 15.5065C3.63134 15.5556 3.67824 15.5968 3.73177 15.6277C3.78531 15.6586 3.84443 15.6787 3.90573 15.6866C3.96704 15.6946 4.02931 15.6904 4.08897 15.6742C4.14863 15.658 4.2045 15.6301 4.25335 15.5923C4.30221 15.5544 4.34309 15.5072 4.37365 15.4535L5.07677 14.2347L5.88865 14.7035L5.18552 15.9222C5.15426 15.9756 5.13385 16.0345 5.12547 16.0958C5.1171 16.157 5.12092 16.2193 5.13672 16.2791C5.15252 16.3389 5.17999 16.3949 5.21754 16.444C5.25509 16.4931 5.30199 16.5343 5.35552 16.5652C5.40906 16.5961 5.46818 16.6162 5.52948 16.6241C5.59079 16.6321 5.65306 16.6279 5.71272 16.6117C5.77238 16.5955 5.82825 16.5676 5.8771 16.5298C5.92596 16.4919 5.96684 16.4447 5.9974 16.391L6.70052 15.1722L7.21615 15.4694H7.03146C6.90714 15.4694 6.78791 15.5188 6.7 15.6067C6.61209 15.6946 6.56271 15.8138 6.56271 15.9382V18.34L2.04677 15.7324L3.45302 13.2972ZM6.80505 21.8468C6.89476 21.8706 6.97537 21.9206 7.03665 21.9903C7.09794 22.06 7.13714 22.1464 7.14929 22.2384C7.16144 22.3304 7.14599 22.424 7.1049 22.5072C7.06382 22.5905 6.99893 22.6596 6.91849 22.706C6.8104 22.7675 6.68256 22.7843 6.56224 22.7528C6.45198 22.7238 6.35609 22.6556 6.29252 22.5609C6.22895 22.4662 6.20206 22.3517 6.21689 22.2386C6.23172 22.1255 6.28724 22.0218 6.37308 21.9467C6.45891 21.8716 6.56915 21.8304 6.68318 21.8308C6.72429 21.8309 6.76523 21.8361 6.80505 21.8463V21.8468ZM8.89755 21.0939C9.03065 21.4955 9.19215 21.8871 9.38083 22.2658L8.06271 23.5844C7.97972 23.6683 7.93168 23.7806 7.92828 23.8986C7.92489 24.0166 7.9664 24.1315 8.04443 24.22L6.2313 25.2658C6.12375 25.3279 5.99596 25.3447 5.87599 25.3127C5.81649 25.297 5.76073 25.2696 5.71195 25.2321C5.66318 25.1946 5.62237 25.1477 5.59193 25.0943L3.71693 21.8458C3.65503 21.7383 3.63828 21.6106 3.67035 21.4908C3.70242 21.3709 3.78069 21.2687 3.88802 21.2064L6.56271 19.6633V20.6252C6.56486 20.7247 6.59942 20.8208 6.66115 20.8989C6.32244 20.904 5.99699 21.0314 5.74485 21.2576C5.49271 21.4838 5.33089 21.7935 5.28925 22.1297C5.24762 22.4659 5.32898 22.8058 5.51831 23.0867C5.70765 23.3675 5.99219 23.5705 6.31943 23.658C6.43906 23.6895 6.56228 23.7052 6.68599 23.7049C6.99416 23.7058 7.29402 23.605 7.53914 23.4182C7.78426 23.2315 7.96097 22.9691 8.0419 22.6717C8.12283 22.3744 8.10347 22.0587 7.98681 21.7734C7.87016 21.4882 7.66272 21.2494 7.39661 21.0939H8.89755ZM11.5376 2.01581C10.9565 2.38049 10.4864 2.8973 10.1782 3.51019L9.06115 2.39081C9.41584 2.13899 9.82465 1.97389 10.2547 1.90876C10.6848 1.84363 11.1242 1.8803 11.5376 2.01581ZM13.3596 10.3183L12.041 9.00019C11.9975 8.95661 11.9458 8.92203 11.8889 8.89844C11.8319 8.87485 11.7709 8.86271 11.7093 8.86271C11.6477 8.86271 11.5868 8.87485 11.5298 8.89844C11.4729 8.92203 11.4212 8.95661 11.3777 9.00019L10.8752 9.5055L9.03161 7.66191L10.3572 6.33628L14.0397 10.0183C13.8063 10.1102 13.5785 10.2086 13.3596 10.3183ZM15.0002 7.50019C14.8759 7.50019 14.7567 7.54958 14.6688 7.63748C14.5808 7.72539 14.5315 7.84462 14.5315 7.96894V9.18769L13.4533 8.10956L16.9549 2.04675L18.7361 3.07378L18.648 4.54003L17.6936 4.7955C17.6342 4.81144 17.5784 4.83893 17.5296 4.87642C17.4807 4.9139 17.4398 4.96064 17.409 5.01396C17.3782 5.06729 17.3583 5.12615 17.3502 5.18719C17.3422 5.24823 17.3463 5.31026 17.3622 5.36972L17.5844 6.19753L16.7561 6.41925C16.689 6.43679 16.6266 6.46902 16.5734 6.5136C16.5203 6.55819 16.4776 6.61403 16.4487 6.67708C16.4197 6.74013 16.4051 6.80883 16.4059 6.87822C16.4067 6.94761 16.4229 7.01595 16.4533 7.07831L16.661 7.50019H15.0002ZM21.3283 10.3183C20.9497 10.1296 20.5581 9.96813 20.1565 9.83503V8.98706L21.2763 7.86675C21.5919 8.37392 22.013 8.80718 22.511 9.13706L21.3283 10.3183Z" fill="#FFCB09"/>
<path d="M17.3439 14.5313C18.0494 14.5321 18.7404 14.7323 19.337 15.1088C19.3891 15.144 19.4477 15.1684 19.5093 15.1805C19.571 15.1926 19.6344 15.1922 19.6959 15.1793C19.7574 15.1664 19.8157 15.1413 19.8673 15.1054C19.9188 15.0695 19.9627 15.0237 19.9962 14.9705C20.0297 14.9174 20.0522 14.858 20.0623 14.796C20.0724 14.734 20.07 14.6706 20.0551 14.6095C20.0402 14.5485 20.0132 14.4911 19.9757 14.4407C19.9382 14.3903 19.8909 14.3479 19.8367 14.3161C18.8591 13.7006 17.689 13.4669 16.5499 13.6596C15.4109 13.8523 14.3828 14.458 13.6621 15.3608C12.9414 16.2637 12.5786 17.4005 12.6431 18.5539C12.7077 19.7073 13.1949 20.7966 14.0118 21.6134C14.8287 22.4303 15.9179 22.9176 17.0713 22.9821C18.2248 23.0466 19.3615 22.6838 20.2644 21.9631C21.1672 21.2424 21.7729 20.2143 21.9656 19.0753C22.1583 17.9362 21.9246 16.7661 21.3091 15.7885C21.2773 15.7343 21.2349 15.687 21.1845 15.6495C21.1341 15.612 21.0767 15.585 21.0157 15.5701C20.9546 15.5552 20.8912 15.5528 20.8292 15.5629C20.7672 15.573 20.7078 15.5955 20.6547 15.629C20.6015 15.6625 20.5557 15.7064 20.5198 15.758C20.4839 15.8095 20.4588 15.8678 20.4459 15.9293C20.433 15.9908 20.4326 16.0542 20.4447 16.1159C20.4568 16.1776 20.4812 16.2361 20.5164 16.2882C20.9578 16.9922 21.1527 17.8229 21.0705 18.6498C20.9883 19.4767 20.6336 20.2528 20.0622 20.8561C19.4908 21.4594 18.7351 21.8557 17.9139 21.9826C17.0927 22.1096 16.2526 21.96 15.5257 21.5575C14.7987 21.1549 14.2262 20.5222 13.8981 19.7588C13.57 18.9953 13.5049 18.1445 13.7131 17.3401C13.9213 16.5356 14.3909 15.8232 15.0481 15.3147C15.7054 14.8063 16.513 14.5307 17.3439 14.5313Z" fill="#FFCB09"/>
</svg>
