<svg width="30" height="30" viewBox="0 0 30 30" fill="none" xmlns="http://www.w3.org/2000/svg">
<g clip-path="url(#clip0)">
<path d="M29.9982 18.1836C29.9617 17.3485 29.2712 16.6802 28.4272 16.6802H24.459L25.8466 16.1535C26.1642 16.0329 26.4475 15.8316 26.666 15.5715L29.5015 12.1944C29.9655 11.6417 30.0947 10.8792 29.8386 10.2046L27.8866 5.06228C27.6305 4.38757 27.0279 3.90294 26.314 3.79742L21.9519 3.15247C21.6157 3.10273 21.2703 3.14023 20.9525 3.26081L16.3719 4.99964C16.0543 5.12017 15.771 5.32144 15.5524 5.58165L12.717 8.95882C12.6877 8.99374 12.6597 9.02954 12.6331 9.06605C12.3979 8.75615 12.0258 8.55558 11.6077 8.55558H6.06217C5.5268 8.55558 5.03338 8.82382 4.74228 9.27312L3.71279 10.8619C3.58395 11.0608 3.64066 11.3264 3.83953 11.4551C4.03822 11.5839 4.30389 11.5273 4.43273 11.3284L5.46223 9.73958C5.59453 9.53538 5.81883 9.41345 6.06217 9.41345H9.14936V13.5012C9.14936 13.7377 8.95693 13.9302 8.72039 13.9302H2.74699L3.37535 12.9604C3.5042 12.7616 3.44748 12.496 3.24861 12.3672C3.04986 12.2384 2.7842 12.2951 2.65541 12.494L1.96629 13.5575C1.68023 13.9989 1.529 14.5103 1.529 15.0363V15.9602C0.675117 16.0248 0 16.7397 0 17.6098C0 18.48 0.675117 19.1949 1.529 19.2595V20.0594C1.529 20.5393 1.74381 20.9867 2.1184 21.2868L3.64383 22.509V23.3118C3.64383 23.706 3.96451 24.0267 4.35873 24.0267H5.06824C5.30918 25.6333 6.69844 26.8693 8.37117 26.8693C10.044 26.8693 11.4332 25.6333 11.6742 24.0267H12.3837C12.7779 24.0267 13.0986 23.706 13.0986 23.3118V23.1608H18.3136V23.3118C18.3136 23.706 18.6343 24.0267 19.0285 24.0267H19.738C19.9789 25.6333 21.3682 26.8693 23.0409 26.8693C23.5475 26.8693 24.0343 26.7587 24.4878 26.5405C24.7013 26.4378 24.7911 26.1815 24.6883 25.968C24.5856 25.7545 24.3291 25.6649 24.1158 25.7675C23.7794 25.9294 23.4178 26.0115 23.041 26.0115C21.6723 26.0115 20.5587 24.898 20.5587 23.5293C20.5587 22.1605 21.6723 21.047 23.041 21.047C24.4097 21.047 25.5233 22.1605 25.5233 23.5293C25.5233 23.9166 25.4367 24.2875 25.2659 24.6314C25.1606 24.8436 25.2472 25.101 25.4594 25.2063C25.6715 25.3118 25.9289 25.225 26.0343 25.0129C26.1901 24.6992 26.2926 24.3687 26.3435 24.0267H27.0535C27.4477 24.0267 27.7684 23.706 27.7684 23.3118V23.1608H28.9994C29.5513 23.1608 30.0002 22.7118 30.0002 22.16V18.2186C30 18.2067 29.9992 18.1951 29.9982 18.1836ZM0.857871 17.6098C0.857871 17.2133 1.14932 16.8844 1.529 16.8237V18.3959C1.14932 18.3352 0.857871 18.0063 0.857871 17.6098ZM26.1886 4.64603C26.5954 4.70615 26.9387 4.9823 27.0846 5.36673L29.0365 10.509C29.1825 10.8934 29.1088 11.3278 28.8445 11.6427L26.1928 14.8009L22.1092 4.04292L26.1886 4.64603ZM13.374 9.51048L16.1468 6.20785L16.7996 7.92763C16.8834 8.15134 17.1371 8.26003 17.3528 8.17642C17.5743 8.09234 17.6856 7.84466 17.6016 7.62318L16.8807 5.7241L21.2063 4.08206L25.4914 15.3707L22.081 16.6802H21.0396L18.273 9.39189C18.1888 9.1704 17.9412 9.05902 17.7197 9.1431C17.4983 9.22718 17.3869 9.47486 17.471 9.69634L20.122 16.6802H17.2007L16.0297 16.5071C15.623 16.447 15.2797 16.1708 15.1338 15.7864L13.1818 10.6442C13.036 10.2598 13.1096 9.82531 13.374 9.51048ZM12.8945 12.3043L13.7 14.4263L12.8945 14.7146V12.3043ZM12.8945 15.6257L14.0046 15.2285L14.3319 16.0909C14.4149 16.3096 14.5349 16.5079 14.6827 16.6802H12.8946V15.6257H12.8945ZM2.38687 19.1292V15.0363C2.38687 14.9528 2.39303 14.87 2.40404 14.7881H8.72045C9.42996 14.7881 10.0073 14.2108 10.0073 13.5012V9.41351H11.6078C11.8443 9.41351 12.0367 9.60593 12.0367 9.84247V19.1503H11.7384C11.4462 18.7323 10.9641 18.4771 10.4492 18.4771H6.29326C5.77828 18.4771 5.29617 18.7323 5.00408 19.1503H2.38687V19.1292ZM3.9157 21.022C3.83332 21.1647 3.7698 21.3169 3.72439 21.4743L2.65477 20.6173C2.4692 20.4706 2.3748 20.2427 2.38687 20.0081H4.50117L3.9157 21.022ZM8.37111 26.0114C7.00242 26.0114 5.88885 24.8979 5.88885 23.5292C5.88885 22.1604 7.00242 21.0469 8.37111 21.0469C9.73986 21.0469 10.8534 22.1604 10.8534 23.5292C10.8534 24.8978 9.73986 26.0114 8.37111 26.0114ZM12.2406 23.1687H11.6916C11.5112 21.4959 10.0911 20.189 8.37111 20.189C6.65115 20.189 5.23107 21.4959 5.05072 23.1687H4.5017V22.0371C4.5017 21.8316 4.55602 21.6289 4.65873 21.4509L5.67404 19.6923C5.80131 19.4718 6.03855 19.3349 6.29314 19.3349H10.4491C10.7037 19.3349 10.9409 19.4719 11.0682 19.6923L12.0834 21.4509C12.1862 21.6288 12.2405 21.8316 12.2405 22.0371V23.1687H12.2406ZM18.5854 21.022C18.4075 21.3302 18.3135 21.6812 18.3135 22.0371V22.3028H13.0985V22.0371C13.0985 21.6812 13.0044 21.3301 12.8264 21.0219L12.2411 20.0081H19.1708L18.5854 21.022ZM26.9102 23.1687H26.3612C26.1808 21.4959 24.7607 20.189 23.0407 20.189C21.3207 20.189 19.9007 21.4959 19.7203 23.1687H19.1713V22.0371C19.1713 21.8316 19.2256 21.6289 19.3283 21.4509L20.3436 19.6923C20.4709 19.4718 20.7082 19.3349 20.9627 19.3349H25.1187C25.3733 19.3349 25.6104 19.4719 25.7378 19.6923L26.753 21.4509C26.8558 21.6288 26.9101 21.8316 26.9101 22.0371V23.1687H26.9102ZM29.1421 22.1599C29.1421 22.2387 29.078 22.3028 28.9992 22.3028H27.7682V22.0371C27.7682 21.6812 27.6741 21.3301 27.4961 21.0219L26.9108 20.0081H29.1421V22.1599ZM29.1421 19.1502H26.4079C26.1158 18.7322 25.6337 18.477 25.1187 18.477H20.9628C20.4478 18.477 19.9657 18.7322 19.6736 19.1502H12.8945V17.5381H28.4272C28.8214 17.5381 29.1421 17.8588 29.1421 18.253V19.1502Z" fill="#FFCB09"/>
<path d="M8.3712 21.9358C7.49259 21.9358 6.7778 22.6506 6.7778 23.5292C6.7778 24.4079 7.49259 25.1226 8.3712 25.1226C9.24981 25.1226 9.96465 24.4079 9.96465 23.5292C9.96459 22.6506 9.24975 21.9358 8.3712 21.9358ZM8.3712 24.2648C7.96567 24.2648 7.63567 23.9348 7.63567 23.5292C7.63567 23.1237 7.96561 22.7937 8.3712 22.7937C8.77678 22.7937 9.10678 23.1236 9.10678 23.5292C9.10672 23.9348 8.77678 24.2648 8.3712 24.2648Z" fill="#FFCB09"/>
<path d="M21.4474 23.5292C21.4474 24.4079 22.1622 25.1226 23.0408 25.1226C23.9194 25.1226 24.6343 24.4079 24.6343 23.5292C24.6343 22.6506 23.9194 21.9358 23.0408 21.9358C22.1622 21.9358 21.4474 22.6506 21.4474 23.5292ZM23.7764 23.5292C23.7764 23.9348 23.4465 24.2648 23.0408 24.2648C22.6353 24.2648 22.3053 23.9348 22.3053 23.5292C22.3053 23.1237 22.6352 22.7937 23.0408 22.7937C23.4464 22.7937 23.7764 23.1237 23.7764 23.5292Z" fill="#FFCB09"/>
<path d="M7.05787 16.6289H8.31254C8.54944 16.6289 8.74151 16.4369 8.74151 16.2C8.74151 15.9631 8.5495 15.771 8.31254 15.771H7.05787C6.82098 15.771 6.62891 15.9631 6.62891 16.2C6.62891 16.4369 6.82098 16.6289 7.05787 16.6289Z" fill="#FFCB09"/>
</g>
<defs>
<clipPath id="clip0">
<rect width="30" height="30" fill="white"/>
</clipPath>
</defs>
</svg>
