<svg width="30" height="30" viewBox="0 0 30 30" fill="none" xmlns="http://www.w3.org/2000/svg">
<path d="M29.1394 9.82455C28.6917 9.16447 27.8779 8.16606 26.5503 7.15851C24.4995 5.6035 20.8319 3.75 15 3.75C9.16763 3.75 5.50007 5.6035 3.45017 7.15851C1.07072 8.96395 0 11.0033 0 11.8749V14.3751V23.1244V25.6256C0 25.9699 0.279677 26.25 0.624863 26.25H5.00014H15H24.9994H29.3756C29.7199 26.25 30 25.9699 30 25.6256V23.1244V14.3751V11.8749C30 11.3763 29.6869 10.6288 29.1394 9.82455ZM4.20593 8.15416C6.10244 6.71541 9.5151 5.00014 15 5.00014C20.485 5.00014 23.8972 6.71535 25.7941 8.15416C27.5648 9.4977 28.3924 10.8687 28.6542 11.5256C28.1772 10.8934 27.4988 10.1312 26.5705 9.36217C24.5105 7.65745 20.8301 5.625 15 5.625C9.16951 5.625 5.49 7.65751 3.4296 9.36217C2.5008 10.1312 1.82332 10.8934 1.34629 11.5256C1.60769 10.8687 2.43488 9.4977 4.20593 8.15416ZM14.3752 24.9994H14.3751H5.625V17.4994H14.3752V24.9994ZM24.375 24.9994H15.6249V17.4994H24.375V24.9994ZM25.6255 24.9994V16.875C25.6255 16.5299 25.3454 16.2507 24.9993 16.2507H15H5.00014C4.65501 16.2507 4.37486 16.5299 4.37486 16.875V24.9994H1.25014V14.3751C1.25014 14.0392 1.99448 12.1724 4.2265 10.3253C6.12851 8.75107 9.54159 6.87514 14.9999 6.87514C20.4584 6.87514 23.8714 8.75107 25.7739 10.3253C28.006 12.1724 28.7493 14.0392 28.7493 14.3751V24.9994H25.6255Z" fill="#FFCB09"/>
<path d="M13.1247 20.6248H6.87481C6.52968 20.6248 6.24953 20.9049 6.24953 21.2491C6.24953 21.5952 6.52968 21.8754 6.87481 21.8754H13.1247C13.4699 21.8754 13.7495 21.5952 13.7495 21.2491C13.7495 20.9049 13.4699 20.6248 13.1247 20.6248Z" fill="#FFCB09"/>
<path d="M13.1247 18.7498H6.87481C6.52968 18.7498 6.24953 19.0299 6.24953 19.3741C6.24953 19.7203 6.52968 20.0004 6.87481 20.0004H13.1247C13.4699 20.0004 13.7495 19.7203 13.7495 19.3741C13.7495 19.0299 13.4699 18.7498 13.1247 18.7498Z" fill="#FFCB09"/>
<path d="M13.1247 22.5002H6.87481C6.52968 22.5002 6.24953 22.7804 6.24953 23.1246C6.24953 23.4708 6.52968 23.7509 6.87481 23.7509H13.1247C13.4699 23.7509 13.7495 23.4708 13.7495 23.1246C13.7495 22.7804 13.4699 22.5002 13.1247 22.5002Z" fill="#FFCB09"/>
<path d="M23.1243 20.6248H16.875C16.5298 20.6248 16.2506 20.9049 16.2506 21.2491C16.2506 21.5952 16.5299 21.8754 16.875 21.8754H23.1243C23.4704 21.8754 23.7506 21.5952 23.7506 21.2491C23.7506 20.9049 23.4705 20.6248 23.1243 20.6248Z" fill="#FFCB09"/>
<path d="M23.1243 18.7498H16.875C16.5298 18.7498 16.2506 19.0299 16.2506 19.3741C16.2506 19.7202 16.5299 20.0004 16.875 20.0004H23.1243C23.4704 20.0004 23.7506 19.7203 23.7506 19.3741C23.7506 19.0299 23.4705 18.7498 23.1243 18.7498Z" fill="#FFCB09"/>
<path d="M23.1243 22.5002H16.875C16.5298 22.5002 16.2506 22.7804 16.2506 23.1246C16.2506 23.4707 16.5299 23.7509 16.875 23.7509H23.1243C23.4704 23.7509 23.7506 23.4708 23.7506 23.1246C23.7506 22.7804 23.4705 22.5002 23.1243 22.5002Z" fill="#FFCB09"/>
<path d="M21.8755 9.99976H8.12478C7.77959 9.99976 7.49992 10.2799 7.49992 10.625V13.1249C7.49992 13.4701 7.77959 13.7498 8.12478 13.7498H21.8755C22.2198 13.7498 22.4999 13.4701 22.4999 13.1249V10.625C22.4999 10.2799 22.2198 9.99976 21.8755 9.99976ZM14.3751 12.5H8.75005V11.2499H14.3751V12.5ZM21.2493 12.5H15.6248V11.2499H21.2493V12.5Z" fill="#FFCB09"/>
</svg>
