<svg width="16" height="12" viewBox="0 0 16 12" fill="none" xmlns="http://www.w3.org/2000/svg">
<path d="M10.5 5.55118C10.5 6.22041 10.2366 6.86223 9.76777 7.33545C9.29893 7.80867 8.66304 8.07452 8 8.07452C7.33696 8.07452 6.70107 7.80867 6.23223 7.33545C5.76339 6.86223 5.5 6.22041 5.5 5.55118C5.5 4.88195 5.76339 4.24012 6.23223 3.7669C6.70107 3.29368 7.33696 3.02783 8 3.02783C8.66304 3.02783 9.29893 3.29368 9.76777 3.7669C10.2366 4.24012 10.5 4.88195 10.5 5.55118Z" fill="#ACACAC"/>
<path d="M0 5.55139C0 5.55139 3 0 8 0C13 0 16 5.55139 16 5.55139C16 5.55139 13 11.1028 8 11.1028C3 11.1028 0 5.55139 0 5.55139ZM8 9.0841C8.92826 9.0841 9.8185 8.7119 10.4749 8.04939C11.1313 7.38688 11.5 6.48832 11.5 5.55139C11.5 4.61446 11.1313 3.7159 10.4749 3.05339C9.8185 2.39088 8.92826 2.01869 8 2.01869C7.07174 2.01869 6.1815 2.39088 5.52513 3.05339C4.86875 3.7159 4.5 4.61446 4.5 5.55139C4.5 6.48832 4.86875 7.38688 5.52513 8.04939C6.1815 8.7119 7.07174 9.0841 8 9.0841Z" fill="#ACACAC"/>
</svg>
