<svg width="17" height="17" viewBox="0 0 17 17" fill="none" xmlns="http://www.w3.org/2000/svg">
<path fill-rule="evenodd" clip-rule="evenodd" d="M12.4059 6.70294C12.4059 9.85259 9.85259 12.4059 6.70294 12.4059C3.55329 12.4059 1 9.85259 1 6.70294C1 3.55329 3.55329 1 6.70294 1C9.85259 1 12.4059 3.55329 12.4059 6.70294ZM11.0761 11.7829C9.90225 12.7944 8.37401 13.4059 6.70294 13.4059C3.00101 13.4059 0 10.4049 0 6.70294C0 3.00101 3.00101 0 6.70294 0C10.4049 0 13.4059 3.00101 13.4059 6.70294C13.4059 8.37387 12.7945 9.902 11.7832 11.0758L16.8534 16.146C17.0487 16.3413 17.0487 16.6579 16.8534 16.8531C16.6582 17.0484 16.3416 17.0484 16.1463 16.8531L11.0761 11.7829Z" fill="#1F1E1D"/>
</svg>
