<svg width="252" height="47" viewBox="0 0 252 47" fill="none" xmlns="http://www.w3.org/2000/svg">
<path d="M39.2677 5.86865C42.8711 11.6651 46.0242 27.0033 29.8086 41.9848C51.7897 29.8569 45.2735 12.8541 39.2677 5.86865Z" fill="#FFCB09"/>
<path d="M47.3771 18.3525C47.2269 26.527 41.7917 43.6784 21.252 46.8887C45.0348 48.6722 48.5782 28.6077 47.3771 18.3525Z" fill="#FFCB09"/>
<path d="M0.0792508 29.054C-0.671471 18.7988 3.59263 -1.35488 26.6548 0.0719313C19.4479 0.815089 4.04312 7.65192 0.0792508 29.054Z" fill="#FFCB09"/>
<path d="M18.0955 4.97559C9.08681 10.772 -5.41713 26.2886 8.63638 41.9835C1.0691 24.8617 11.7894 10.1775 18.0955 4.97559Z" fill="#FFCB09"/>
<path d="M14.4929 11.2192C8.55825 18.2814 0.34929 41.2714 21.2494 45.5518C7.19598 37.3477 10.8895 19.245 14.4929 11.2192Z" fill="#FFCB09"/>
<path d="M14.043 18.7989C15.094 16.8668 18.3671 13.0917 23.0516 13.4484C16.5654 10.9515 14.3433 15.9751 14.043 18.7989Z" fill="#FFCB09"/>
<path d="M16.7461 11.2182C18.5478 10.3264 23.6828 9.70217 29.8086 14.3393C27.106 11.2182 20.7099 6.22435 16.7461 11.2182Z" fill="#FFCB09"/>
<path d="M34.7632 21.4726C33.4119 16.122 28.367 5.86683 18.998 7.65035C30.5291 1.94304 34.3128 14.4871 34.7632 21.4726Z" fill="#FFCB09"/>
<path d="M24.8535 34.4042C26.8054 34.2556 31.3397 32.9774 33.8622 29.0537C33.8622 31.729 32.0604 36.5445 24.8535 34.4042Z" fill="#FFCB09"/>
<path d="M17.6465 33.0674C20.0488 34.7023 26.2047 37.6153 31.6099 36.1885C29.3577 38.2693 23.412 40.5581 17.6465 33.0674Z" fill="#FFCB09"/>
<path d="M13.1406 25.041C13.7412 30.6888 17.9152 41.4493 29.8066 39.3091C24.5516 42.5789 13.8613 44.3029 13.1406 25.041Z" fill="#FFCB09"/>
<path d="M26.2051 2.74707C31.7604 4.53058 41.0694 13.6265 33.8624 35.742C48.7267 11.2189 32.0607 1.40942 26.2051 2.74707Z" fill="#FFCB09"/>
<path d="M57.1422 28H65.7905C70.8354 28 73.6317 25.8091 73.6317 21.8597C73.6317 18.0833 71.0948 16.0365 66.2806 16.0365H59.9962V10.271H72.3632V7.82061H57.1422V28ZM59.9962 25.7226V18.3139H65.6752C69.0481 18.3139 70.7489 19.4958 70.7489 21.975C70.7489 24.4254 68.9904 25.7226 65.6752 25.7226H59.9962ZM83.2153 12.5772C80.7649 12.5772 78.4876 13.269 76.902 14.5375L78.0551 16.6131C79.2371 15.6041 81.082 14.9699 82.8982 14.9699C85.6368 14.9699 86.9917 16.3248 86.9917 18.6598V19.2076H82.6099C78.0551 19.2076 76.4696 21.2255 76.4696 23.6758C76.4696 26.328 78.6605 28.173 82.1198 28.173C84.5125 28.173 86.2134 27.3658 87.1359 25.9821V28H89.7592V18.7751C89.7592 14.5951 87.3953 12.5772 83.2153 12.5772ZM82.5811 26.0397C80.4767 26.0397 79.2082 25.0884 79.2082 23.5605C79.2082 22.2633 79.9866 21.1967 82.7252 21.1967H86.9917V23.3299C86.2999 25.0884 84.6567 26.0397 82.5811 26.0397ZM105.668 12.7213L100.393 24.9443L95.0597 12.7213H92.1769L98.9226 27.9712L98.4325 29.0378C97.683 30.7963 96.847 31.4017 95.5209 31.4017C94.4831 31.4017 93.5318 30.9981 92.7823 30.2774L91.6003 32.353C92.5516 33.2755 94.0507 33.7655 95.5209 33.7655C97.8559 33.7655 99.6144 32.7566 100.969 29.5279L108.378 12.7213H105.668ZM126.221 28H129.248L120.081 7.82061H117.227L108.088 28H111.057L113.277 22.9552H124.001L126.221 28ZM114.286 20.6489L118.639 10.761L122.992 20.6489H114.286ZM140.37 12.5772C138.121 12.5772 136.161 13.442 134.921 15.1428V12.7213H132.269V33.5926H135.037V25.6938C136.305 27.337 138.208 28.173 140.37 28.173C144.838 28.173 148.096 25.0596 148.096 20.3607C148.096 15.6906 144.838 12.5772 140.37 12.5772ZM140.139 25.7514C137.228 25.7514 135.008 23.6182 135.008 20.3607C135.008 17.132 137.228 14.9987 140.139 14.9987C143.08 14.9987 145.299 17.132 145.299 20.3607C145.299 23.6182 143.08 25.7514 140.139 25.7514ZM165.925 20.4471C165.925 15.7482 162.783 12.5772 158.372 12.5772C153.961 12.5772 150.704 15.8347 150.704 20.3607C150.704 24.9154 153.99 28.173 158.92 28.173C161.457 28.173 163.561 27.3081 164.945 25.6938L163.417 23.9065C162.293 25.1461 160.794 25.7514 159.006 25.7514C155.979 25.7514 153.817 23.9641 153.471 21.2831H165.867C165.896 21.0237 165.925 20.6778 165.925 20.4471ZM158.372 14.9122C161.053 14.9122 162.984 16.7284 163.273 19.294H153.471C153.76 16.6995 155.72 14.9122 158.372 14.9122ZM170.218 28H172.986V21.6002H181.692V28H184.459V12.7213H181.692V19.2076H172.986V12.7213H170.218V28ZM203.043 25.5785V12.7213H191.195L190.964 17.8815C190.763 21.7444 190.388 25.4632 188.197 25.5785H187.39V31.5458H190.013V28H202.784V31.5458H205.378V25.5785H203.043ZM193.501 18.0833L193.645 15.1428H200.276V25.5785H191.714C193.098 24.3677 193.386 21.2543 193.501 18.0833ZM214.432 12.5772C211.982 12.5772 209.704 13.269 208.119 14.5375L209.272 16.6131C210.454 15.6041 212.299 14.9699 214.115 14.9699C216.854 14.9699 218.208 16.3248 218.208 18.6598V19.2076H213.827C209.272 19.2076 207.686 21.2255 207.686 23.6758C207.686 26.328 209.877 28.173 213.337 28.173C215.729 28.173 217.43 27.3658 218.353 25.9821V28H220.976V18.7751C220.976 14.5951 218.612 12.5772 214.432 12.5772ZM213.798 26.0397C211.693 26.0397 210.425 25.0884 210.425 23.5605C210.425 22.2633 211.203 21.1967 213.942 21.1967H218.208V23.3299C217.517 25.0884 215.873 26.0397 213.798 26.0397Z" fill="#1F1E1D"/>
<path d="M60.9295 44H62.0646L58.6268 36.4327H57.5566L54.1297 44H55.2432L56.0756 42.1082H60.0971L60.9295 44ZM56.454 41.2434L58.0863 37.5354L59.7187 41.2434H56.454ZM66.2353 38.2164C65.3921 38.2164 64.657 38.5408 64.1922 39.1786V38.2705H63.1976V46.0972H64.2354V43.1352C64.7111 43.7514 65.4246 44.0649 66.2353 44.0649C67.9109 44.0649 69.1325 42.8973 69.1325 41.1352C69.1325 39.384 67.9109 38.2164 66.2353 38.2164ZM66.1488 43.1568C65.057 43.1568 64.2246 42.3568 64.2246 41.1352C64.2246 39.9245 65.057 39.1245 66.1488 39.1245C67.2515 39.1245 68.0839 39.9245 68.0839 41.1352C68.0839 42.3568 67.2515 43.1568 66.1488 43.1568ZM75.8185 41.1677C75.8185 39.4056 74.6402 38.2164 72.9862 38.2164C71.3322 38.2164 70.1106 39.438 70.1106 41.1352C70.1106 42.8433 71.343 44.0649 73.1916 44.0649C74.1429 44.0649 74.932 43.7406 75.4509 43.1352L74.878 42.4649C74.4564 42.9298 73.8942 43.1568 73.224 43.1568C72.0889 43.1568 71.2781 42.4865 71.1484 41.4812H75.7969C75.8077 41.3839 75.8185 41.2542 75.8185 41.1677ZM72.9862 39.0921C73.9915 39.0921 74.7158 39.7731 74.8239 40.7353H71.1484C71.2565 39.7623 71.9916 39.0921 72.9862 39.0921ZM77.4285 44H78.4663V41.6001H81.731V44H82.7688V38.2705H81.731V40.7028H78.4663V38.2705H77.4285V44ZM89.7379 43.0919V38.2705H85.2948L85.2083 40.2056C85.1327 41.6541 84.9921 43.0487 84.1705 43.0919H83.8678V45.3297H84.8516V44H89.6406V45.3297H90.6135V43.0919H89.7379ZM86.1596 40.2812L86.2137 39.1786H88.7001V43.0919H85.4894C86.0083 42.6379 86.1164 41.4704 86.1596 40.2812ZM94.0087 38.2164C93.0898 38.2164 92.2358 38.4759 91.6412 38.9515L92.0736 39.7299C92.5168 39.3515 93.2087 39.1137 93.8897 39.1137C94.9167 39.1137 95.4248 39.6218 95.4248 40.4974V40.7028H93.7816C92.0736 40.7028 91.479 41.4596 91.479 42.3784C91.479 43.373 92.3006 44.0649 93.5979 44.0649C94.4951 44.0649 95.1329 43.7622 95.4789 43.2433V44H96.4626V40.5407C96.4626 38.9732 95.5762 38.2164 94.0087 38.2164ZM93.7708 43.2649C92.9817 43.2649 92.506 42.9082 92.506 42.3352C92.506 41.8487 92.7979 41.4487 93.8249 41.4487H95.4248V42.2487C95.1654 42.9082 94.5492 43.2649 93.7708 43.2649ZM103.732 44.0649C104.759 44.0649 105.613 43.6324 106.067 42.8325L105.278 42.3352C104.91 42.8973 104.348 43.1568 103.721 43.1568C102.597 43.1568 101.753 42.3784 101.753 41.1352C101.753 39.9137 102.597 39.1245 103.721 39.1245C104.348 39.1245 104.91 39.384 105.278 39.9461L106.067 39.438C105.613 38.638 104.759 38.2164 103.732 38.2164C101.97 38.2164 100.705 39.4272 100.705 41.1352C100.705 42.8433 101.97 44.0649 103.732 44.0649ZM111.607 38.2705H106.374V39.1786H108.472V44H109.509V39.1786H111.607V38.2705ZM115.706 38.2164C114.862 38.2164 114.127 38.5408 113.662 39.1786V38.2705H112.668V46.0972H113.706V43.1352C114.181 43.7514 114.895 44.0649 115.706 44.0649C117.381 44.0649 118.603 42.8973 118.603 41.1352C118.603 39.384 117.381 38.2164 115.706 38.2164ZM115.619 43.1568C114.527 43.1568 113.695 42.3568 113.695 41.1352C113.695 39.9245 114.527 39.1245 115.619 39.1245C116.722 39.1245 117.554 39.9245 117.554 41.1352C117.554 42.3568 116.722 43.1568 115.619 43.1568ZM122.564 44.0649C124.283 44.0649 125.537 42.8433 125.537 41.1352C125.537 39.4272 124.283 38.2164 122.564 38.2164C120.846 38.2164 119.581 39.4272 119.581 41.1352C119.581 42.8433 120.846 44.0649 122.564 44.0649ZM122.564 43.1568C121.462 43.1568 120.629 42.3568 120.629 41.1352C120.629 39.9137 121.462 39.1245 122.564 39.1245C123.667 39.1245 124.489 39.9137 124.489 41.1352C124.489 42.3568 123.667 43.1568 122.564 43.1568ZM127.036 44H127.987L131.49 39.8272V44H132.528V38.2705H131.587L128.074 42.4433V38.2705H127.036V44ZM138.812 38.2705H133.58V39.1786H135.677V44H136.715V39.1786H138.812V38.2705ZM144.798 41.1677C144.798 39.4056 143.62 38.2164 141.966 38.2164C140.312 38.2164 139.09 39.438 139.09 41.1352C139.09 42.8433 140.323 44.0649 142.171 44.0649C143.122 44.0649 143.912 43.7406 144.431 43.1352L143.858 42.4649C143.436 42.9298 142.874 43.1568 142.204 43.1568C141.068 43.1568 140.258 42.4865 140.128 41.4812H144.776C144.787 41.3839 144.798 41.2542 144.798 41.1677ZM141.966 39.0921C142.971 39.0921 143.695 39.7731 143.804 40.7353H140.128C140.236 39.7623 140.971 39.0921 141.966 39.0921ZM146.832 38.2705L146.735 40.3893C146.659 41.7406 146.616 43.146 145.686 43.146C145.61 43.146 145.524 43.1352 145.427 43.1135L145.362 43.9892C145.6 44.0541 145.805 44.0865 146 44.0865C147.297 44.0865 147.567 42.4757 147.664 40.4542L147.729 39.1786H150.194V44H151.232V38.2705H146.832ZM155.887 40.2164L154.276 40.2056V38.2705H153.238V44L155.725 44.0108C157.26 44.0216 158.125 43.3298 158.125 42.0866C158.125 40.9082 157.346 40.2272 155.887 40.2164ZM155.638 43.2217L154.276 43.2108V40.9623L155.638 40.9839C156.59 40.9947 157.065 41.319 157.065 42.0758C157.065 42.8433 156.579 43.2325 155.638 43.2217ZM159.457 44H160.494V41.6001H163.759V44H164.797V38.2705H163.759V40.7028H160.494V38.2705H159.457V44ZM169.269 44.0649C170.988 44.0649 172.242 42.8433 172.242 41.1352C172.242 39.4272 170.988 38.2164 169.269 38.2164C167.55 38.2164 166.285 39.4272 166.285 41.1352C166.285 42.8433 167.55 44.0649 169.269 44.0649ZM169.269 43.1568C168.166 43.1568 167.334 42.3568 167.334 41.1352C167.334 39.9137 168.166 39.1245 169.269 39.1245C170.371 39.1245 171.193 39.9137 171.193 41.1352C171.193 42.3568 170.371 43.1568 169.269 43.1568ZM176.421 37.5246C177.47 37.5246 178.108 37.0057 178.129 36.0327H177.405C177.394 36.5733 177.005 36.9192 176.41 36.9192C175.827 36.9192 175.437 36.5733 175.427 36.0327H174.724C174.735 37.0057 175.373 37.5246 176.421 37.5246ZM173.74 44H174.691L178.194 39.8272V44H179.232V38.2705H178.291L174.778 42.4433V38.2705H173.74V44ZM188.419 38.2705H183.187V39.1786H185.284V44H186.322V39.1786H188.419V38.2705ZM194.405 41.1677C194.405 39.4056 193.227 38.2164 191.573 38.2164C189.919 38.2164 188.698 39.438 188.698 41.1352C188.698 42.8433 189.93 44.0649 191.779 44.0649C192.73 44.0649 193.519 43.7406 194.038 43.1352L193.465 42.4649C193.043 42.9298 192.481 43.1568 191.811 43.1568C190.676 43.1568 189.865 42.4865 189.735 41.4812H194.384C194.395 41.3839 194.405 41.2542 194.405 41.1677ZM191.573 39.0921C192.579 39.0921 193.303 39.7731 193.411 40.7353H189.735C189.844 39.7623 190.579 39.0921 191.573 39.0921ZM200.614 44L198.333 41.0704L200.495 38.2705H199.36L197.792 40.3353L196.214 38.2705H195.057L197.208 41.0704L194.949 44H196.106L197.781 41.8055L199.435 44H200.614ZM201.706 44H202.744V41.6001H206.008V44H207.046V38.2705H206.008V40.7028H202.744V38.2705H201.706V44ZM209.064 44H210.015L213.518 39.8272V44H214.556V38.2705H213.615L210.102 42.4433V38.2705H209.064V44ZM220.721 44H221.943L219.619 41.0271L221.791 38.2705H220.678L218.819 40.692H217.608V38.2705H216.57V44H217.608V41.5785H218.797L220.721 44ZM223.031 44H223.982L227.485 39.8272V44H228.523V38.2705H227.582L224.069 42.4433V38.2705H223.031V44Z" fill="#ACACAC"/>
</svg>
