<svg width="82" height="47" viewBox="0 0 82 47" fill="none" xmlns="http://www.w3.org/2000/svg">
<path d="M60.0985 33.6506H53.7046V46.4292H60.1528V40.6638L67.7642 46.4292H74.2088V33.6506H67.7594V39.4674L60.0985 33.6506ZM40.9997 0C18.3555 0 0 18.7862 0 41.9597C0 43.4703 0.0781675 44.9602 0.229843 46.4297H4.52353C4.35204 44.9462 4.2663 43.4536 4.26677 41.9597C4.26677 21.1979 20.713 4.3667 40.9999 4.3667C61.287 4.3667 77.7334 21.1979 77.7334 41.9597C77.7334 43.4726 77.6461 44.9639 77.4768 46.4297H81.7702C81.9235 44.9449 82.0002 43.4528 82 41.9597C81.9991 18.7862 63.6433 0 40.9997 0ZM44.4407 33.6506H37.5845L29.4588 46.4292H36.114L37.0172 44.9994H45.0084L45.9122 46.4292H52.5671L44.4407 33.6506ZM42.8827 41.6029H39.143L41.0129 38.6464L42.8827 41.6029ZM13.7228 33.6506H7.67386V46.4292H14.1234V41.376L17.9761 45.3184L21.8279 41.376V46.4292H28.2773V33.6506H22.2282L17.9759 38.003L13.7228 33.6506Z" fill="#1F1E1D"/>
</svg>
