<svg width="88" height="48" viewBox="0 0 88 48" fill="none" xmlns="http://www.w3.org/2000/svg">
<path fill-rule="evenodd" clip-rule="evenodd" d="M80.7871 22.5808H54.1972L45.1203 0L43.4505 4.21972L36.1941 22.5808H7.74638L0 40.8153L43.4505 46.847L44.7185 47.0244L87.2147 40.8153L80.7871 22.5808ZM44.5931 41.7785L43.4505 41.7404L2.52339 40.2831L9.06425 25.1532H36.0435L43.4505 6.04444L45.1203 1.7612L54.1715 25.1532H79.3182L84.3897 40.2831L44.5931 41.7785Z" fill="#33348E"/>
<path fill-rule="evenodd" clip-rule="evenodd" d="M81.4415 34.2009L78.7918 32.9719L80.2486 30.9571L78.9181 26.2307H57.801L59.9477 30.8056H71.8495L70.217 32.9719L72.2639 34.8851H55.9433L45.122 4.05518L43.4522 8.43955L34.4634 32.1857H30.4208L29.2409 26.2302H22.0222L18.5698 31.0964L15.8958 26.2302H9.64349L3.96924 39.3452H10.0202L12.6689 34.8851L14.6651 39.3452H22.2982L24.6962 34.6061L27.0942 39.3452H38.4683L40.7409 36.507L43.4526 38.2682L45.1225 39.3452L49.1022 36.507L51.2736 39.3452H83.1864L81.4415 34.2009ZM45.122 33.2505L43.4522 32.0718L41.6695 30.8051L43.4522 26.5473L45.122 22.5808L48.4733 30.8051L45.122 33.2505Z" fill="#33348E"/>
</svg>
