<svg width="115" height="24" viewBox="0 0 115 24" fill="none" xmlns="http://www.w3.org/2000/svg">
<path d="M19.7523 2.98291C21.5649 5.93056 23.151 13.7305 14.9941 21.349C26.0512 15.1816 22.7733 6.5352 19.7523 2.98291Z" fill="#FFCB09"/>
<path d="M23.831 9.33154C23.7555 13.4885 21.0214 22.2105 10.6895 23.843C22.6528 24.75 24.4352 14.5466 23.831 9.33154Z" fill="#FFCB09"/>
<path d="M0.0398651 14.7748C-0.337766 9.55975 1.80718 -0.688996 13.408 0.0365792C9.78276 0.414497 2.03379 3.89123 0.0398651 14.7748Z" fill="#FFCB09"/>
<path d="M9.10284 2.53076C4.57127 5.47841 -2.72456 13.369 4.34469 21.3504C0.538169 12.6435 5.93074 5.17609 9.10284 2.53076Z" fill="#FFCB09"/>
<path d="M7.29109 5.70459C4.30583 9.29593 0.176523 20.987 10.6898 23.1637C3.62057 18.9917 5.47849 9.78595 7.29109 5.70459Z" fill="#FFCB09"/>
<path d="M7.06348 9.55901C7.59216 8.57646 9.23863 6.65671 11.595 6.83811C8.33232 5.56838 7.21453 8.12299 7.06348 9.55901Z" fill="#FFCB09"/>
<path d="M8.42383 5.70381C9.33014 5.25032 11.9131 4.93288 14.9946 7.291C13.6351 5.70381 10.4177 3.16431 8.42383 5.70381Z" fill="#FFCB09"/>
<path d="M17.4869 10.9202C16.8072 8.19933 14.2695 2.98426 9.55664 3.89123C15.3571 0.988896 17.2603 7.36793 17.4869 10.9202Z" fill="#FFCB09"/>
<path d="M12.502 17.4943C13.4838 17.4188 15.7647 16.7688 17.0335 14.7734C17.0335 16.1339 16.1272 18.5827 12.502 17.4943Z" fill="#FFCB09"/>
<path d="M8.87695 16.8145C10.0854 17.6458 13.1819 19.1272 15.9009 18.4016C14.768 19.4598 11.7772 20.6237 8.87695 16.8145Z" fill="#FFCB09"/>
<path d="M6.61035 12.7334C6.91246 15.6055 9.01209 21.0775 14.9938 19.9891C12.3503 21.6519 6.97288 22.5287 6.61035 12.7334Z" fill="#FFCB09"/>
<path d="M13.1816 1.39628C15.9761 2.30325 20.6587 6.92879 17.0335 18.1752C24.5106 5.70444 16.1272 0.71605 13.1816 1.39628Z" fill="#FFCB09"/>
<path d="M28.6465 14.0953H33.2143C35.781 14.0953 37.2311 12.9744 37.2311 10.977C37.2311 9.0801 35.9405 8.04544 33.5043 8.04544H30.5026V5.57375H36.5495V4.03613H28.6465V14.0953ZM30.5026 12.6583V9.48246H33.1128C34.5919 9.48246 35.3315 9.98542 35.3315 11.0345C35.3315 12.0979 34.5629 12.6583 33.1128 12.6583H30.5026Z" fill="#1F1E1D"/>
<path d="M41.978 6.33538C40.7309 6.33538 39.5274 6.65152 38.7008 7.28381L39.4114 8.59151C39.9914 8.11729 40.8905 7.82988 41.7605 7.82988C43.0511 7.82988 43.6892 8.4478 43.6892 9.49683V9.6118H41.688C39.3388 9.6118 38.4688 10.6177 38.4688 11.8967C38.4688 13.2331 39.5854 14.1959 41.3545 14.1959C42.5146 14.1959 43.3556 13.8223 43.7907 13.1613V14.0953H45.5018V9.59743C45.5018 7.38441 44.2112 6.33538 41.978 6.33538ZM41.7315 12.8882C40.8034 12.8882 40.2524 12.4715 40.2524 11.8248C40.2524 11.2644 40.5859 10.8045 41.8185 10.8045H43.6892V11.6955C43.3846 12.4858 42.6161 12.8882 41.7315 12.8882Z" fill="#1F1E1D"/>
<path d="M53.3132 6.4216L50.8625 12.0979L48.4263 6.4216H46.5412L49.92 14.1241L49.7894 14.4258C49.4414 15.1875 49.0644 15.4892 48.4263 15.4892C47.9333 15.4892 47.4403 15.2881 47.0923 14.9575L46.3672 16.2796C46.8602 16.7251 47.6723 16.9837 48.4409 16.9837C49.7314 16.9837 50.7175 16.452 51.4281 14.7132L55.0533 6.4216H53.3132Z" fill="#1F1E1D"/>
<path d="M63.8624 14.0953H65.8345L61.2522 4.03613H59.396L54.8282 14.0953H56.7714L57.7719 11.7673H62.8473L63.8624 14.0953ZM58.41 10.3016L60.3096 5.90427L62.2237 10.3016H58.41Z" fill="#1F1E1D"/>
<path d="M71.4804 6.33538C70.4218 6.33538 69.5228 6.69463 68.9137 7.42752V6.4216H67.1881V16.8832H69.0007V13.1613C69.6243 13.8654 70.4943 14.1959 71.4804 14.1959C73.7425 14.1959 75.4102 12.6439 75.4102 10.2585C75.4102 7.88736 73.7425 6.33538 71.4804 6.33538ZM71.2774 12.6583C69.9723 12.6583 68.9717 11.7242 68.9717 10.2585C68.9717 8.79269 69.9723 7.85862 71.2774 7.85862C72.5825 7.85862 73.5685 8.79269 73.5685 10.2585C73.5685 11.7242 72.5825 12.6583 71.2774 12.6583Z" fill="#1F1E1D"/>
<path d="M84.4647 10.3016C84.4647 7.90173 82.8116 6.33538 80.5494 6.33538C78.2438 6.33538 76.5471 7.97359 76.5471 10.2585C76.5471 12.5433 78.2293 14.1959 80.825 14.1959C82.159 14.1959 83.2466 13.7648 83.9427 12.9457L82.9711 11.8392C82.4201 12.3996 81.7385 12.6727 80.8685 12.6727C79.5199 12.6727 78.5773 11.9541 78.3598 10.8333H84.4357C84.4502 10.6608 84.4647 10.4453 84.4647 10.3016ZM80.5494 7.7724C81.7385 7.7724 82.5941 8.53403 82.7391 9.64054H78.3453C78.5193 8.51966 79.3748 7.7724 80.5494 7.7724Z" fill="#1F1E1D"/>
<path d="M86.4473 14.0953H88.2599V11.0632H92.1607V14.0953H93.9733V6.4216H92.1607V9.53995H88.2599V6.4216H86.4473V14.0953Z" fill="#1F1E1D"/>
<path d="M103.523 12.5721V6.4216H97.1421L97.0406 9.05136C96.9536 10.8476 96.7651 12.529 95.6775 12.5721H95.315V15.8054H96.9971V14.0953H102.972V15.8054H104.668V12.5721H103.523ZM98.6937 9.18069L98.7372 7.94485H101.71V12.5721H97.8962C98.5197 11.9829 98.6357 10.6177 98.6937 9.18069Z" fill="#1F1E1D"/>
<path d="M109.173 6.33538C107.926 6.33538 106.722 6.65152 105.896 7.28381L106.606 8.59151C107.186 8.11729 108.085 7.82988 108.955 7.82988C110.246 7.82988 110.884 8.4478 110.884 9.49683V9.6118H108.883C106.534 9.6118 105.664 10.6177 105.664 11.8967C105.664 13.2331 106.78 14.1959 108.549 14.1959C109.709 14.1959 110.55 13.8223 110.985 13.1613V14.0953H112.697V9.59743C112.697 7.38441 111.406 6.33538 109.173 6.33538ZM108.926 12.8882C107.998 12.8882 107.447 12.4715 107.447 11.8248C107.447 11.2644 107.781 10.8045 109.013 10.8045H110.884V11.6955C110.579 12.4858 109.811 12.8882 108.926 12.8882Z" fill="#1F1E1D"/>
<path d="M30.6968 22.6747H31.2678L29.5385 18.9025H29.0002L27.2764 22.6747H27.8365L28.2552 21.7317H30.2781L30.6968 22.6747ZM28.4455 21.3006L29.2666 19.4522L30.0878 21.3006H28.4455Z" fill="#999999"/>
<path d="M33.3658 19.7917C32.9416 19.7917 32.5719 19.9533 32.338 20.2713V19.8186H31.8377V23.7201H32.3598V22.2436C32.599 22.5508 32.9579 22.707 33.3658 22.707C34.2087 22.707 34.8231 22.125 34.8231 21.2467C34.8231 20.3737 34.2087 19.7917 33.3658 19.7917ZM33.3223 22.2544C32.7731 22.2544 32.3543 21.8556 32.3543 21.2467C32.3543 20.6431 32.7731 20.2443 33.3223 20.2443C33.8769 20.2443 34.2957 20.6431 34.2957 21.2467C34.2957 21.8556 33.8769 22.2544 33.3223 22.2544Z" fill="#999999"/>
<path d="M38.1863 21.2628C38.1863 20.3844 37.5936 19.7917 36.7616 19.7917C35.9296 19.7917 35.3151 20.4006 35.3151 21.2467C35.3151 22.0981 35.9351 22.707 36.8649 22.707C37.3435 22.707 37.7404 22.5454 38.0015 22.2436L37.7132 21.9095C37.5012 22.1412 37.2184 22.2544 36.8813 22.2544C36.3103 22.2544 35.9024 21.9203 35.8372 21.4191H38.1755C38.1809 21.3706 38.1863 21.3059 38.1863 21.2628ZM36.7616 20.2282C37.2673 20.2282 37.6317 20.5677 37.6861 21.0473H35.8372C35.8916 20.5623 36.2613 20.2282 36.7616 20.2282Z" fill="#999999"/>
<path d="M38.9962 22.6747H39.5182V21.4784H41.1605V22.6747H41.6825V19.8186H41.1605V21.0311H39.5182V19.8186H38.9962V22.6747Z" fill="#999999"/>
<path d="M45.1881 22.222V19.8186H42.9532L42.9097 20.7832C42.8716 21.5053 42.8009 22.2005 42.3876 22.222H42.2354V23.3375H42.7302V22.6747H45.1392V23.3375H45.6286V22.222H45.1881ZM43.3882 20.8209L43.4154 20.2713H44.6661V22.222H43.051C43.3121 21.9957 43.3664 21.4137 43.3882 20.8209Z" fill="#999999"/>
<path d="M47.3364 19.7917C46.8742 19.7917 46.4446 19.921 46.1455 20.1581L46.3631 20.5461C46.586 20.3575 46.934 20.2389 47.2766 20.2389C47.7932 20.2389 48.0488 20.4922 48.0488 20.9287V21.0311H47.2222C46.3631 21.0311 46.064 21.4083 46.064 21.8664C46.064 22.3622 46.4773 22.707 47.1298 22.707C47.5811 22.707 47.902 22.5562 48.076 22.2975V22.6747H48.5708V20.9503C48.5708 20.1689 48.1249 19.7917 47.3364 19.7917ZM47.2168 22.3083C46.8198 22.3083 46.5806 22.1304 46.5806 21.8448C46.5806 21.6023 46.7274 21.4029 47.244 21.4029H48.0488V21.8017C47.9183 22.1304 47.6083 22.3083 47.2168 22.3083Z" fill="#999999"/>
<path d="M52.2274 22.707C52.744 22.707 53.1736 22.4915 53.402 22.0927L53.005 21.8448C52.8201 22.125 52.5374 22.2544 52.222 22.2544C51.6564 22.2544 51.2323 21.8664 51.2323 21.2467C51.2323 20.6377 51.6564 20.2443 52.222 20.2443C52.5374 20.2443 52.8201 20.3737 53.005 20.6539L53.402 20.4006C53.1736 20.0018 52.744 19.7917 52.2274 19.7917C51.341 19.7917 50.7048 20.3952 50.7048 21.2467C50.7048 22.0981 51.341 22.707 52.2274 22.707Z" fill="#999999"/>
<path d="M56.1886 19.8186H53.5567V20.2713H54.6117V22.6747H55.1337V20.2713H56.1886V19.8186Z" fill="#999999"/>
<path d="M58.2505 19.7917C57.8263 19.7917 57.4566 19.9533 57.2227 20.2713V19.8186H56.7224V23.7201H57.2445V22.2436C57.4838 22.5508 57.8427 22.707 58.2505 22.707C59.0934 22.707 59.7079 22.125 59.7079 21.2467C59.7079 20.3737 59.0934 19.7917 58.2505 19.7917ZM58.207 22.2544C57.6578 22.2544 57.239 21.8556 57.239 21.2467C57.239 20.6431 57.6578 20.2443 58.207 20.2443C58.7617 20.2443 59.1804 20.6431 59.1804 21.2467C59.1804 21.8556 58.7617 22.2544 58.207 22.2544Z" fill="#999999"/>
<path d="M61.7007 22.707C62.5653 22.707 63.1961 22.0981 63.1961 21.2467C63.1961 20.3952 62.5653 19.7917 61.7007 19.7917C60.8361 19.7917 60.1999 20.3952 60.1999 21.2467C60.1999 22.0981 60.8361 22.707 61.7007 22.707ZM61.7007 22.2544C61.146 22.2544 60.7273 21.8556 60.7273 21.2467C60.7273 20.6377 61.146 20.2443 61.7007 20.2443C62.2554 20.2443 62.6687 20.6377 62.6687 21.2467C62.6687 21.8556 62.2554 22.2544 61.7007 22.2544Z" fill="#999999"/>
<path d="M63.95 22.6747H64.4285L66.1904 20.5946V22.6747H66.7124V19.8186H66.2393L64.472 21.8987V19.8186H63.95V22.6747Z" fill="#999999"/>
<path d="M69.8736 19.8186H67.2417V20.2713H68.2967V22.6747H68.8187V20.2713H69.8736V19.8186Z" fill="#999999"/>
<path d="M72.8847 21.2628C72.8847 20.3844 72.292 19.7917 71.46 19.7917C70.628 19.7917 70.0135 20.4006 70.0135 21.2467C70.0135 22.0981 70.6335 22.707 71.5633 22.707C72.0419 22.707 72.4388 22.5454 72.6999 22.2436L72.4117 21.9095C72.1996 22.1412 71.9168 22.2544 71.5797 22.2544C71.0087 22.2544 70.6008 21.9203 70.5356 21.4191H72.8739C72.8793 21.3706 72.8847 21.3059 72.8847 21.2628ZM71.46 20.2282C71.9657 20.2282 72.3301 20.5677 72.3845 21.0473H70.5356C70.59 20.5623 70.9597 20.2282 71.46 20.2282Z" fill="#999999"/>
<path d="M73.9078 19.8186L73.8589 20.8748C73.8208 21.5484 73.7991 22.249 73.3314 22.249C73.2934 22.249 73.2498 22.2436 73.2009 22.2328L73.1683 22.6693C73.2879 22.7017 73.3912 22.7178 73.4891 22.7178C74.1417 22.7178 74.2776 21.9149 74.3265 20.9072L74.3592 20.2713H75.599V22.6747H76.1211V19.8186H73.9078Z" fill="#999999"/>
<path d="M78.4627 20.7886L77.6525 20.7832V19.8186H77.1305V22.6747L78.3812 22.6801C79.1534 22.6855 79.5884 22.3406 79.5884 21.7209C79.5884 21.1335 79.1969 20.794 78.4627 20.7886ZM78.3377 22.2867L77.6525 22.2813V21.1604L78.3377 21.1712C78.8162 21.1766 79.0555 21.3383 79.0555 21.7155C79.0555 22.0981 78.8108 22.2921 78.3377 22.2867Z" fill="#999999"/>
<path d="M80.2583 22.6747H80.7803V21.4784H82.4226V22.6747H82.9446V19.8186H82.4226V21.0311H80.7803V19.8186H80.2583V22.6747Z" fill="#999999"/>
<path d="M85.1941 22.707C86.0587 22.707 86.6895 22.0981 86.6895 21.2467C86.6895 20.3952 86.0587 19.7917 85.1941 19.7917C84.3295 19.7917 83.6932 20.3952 83.6932 21.2467C83.6932 22.0981 84.3295 22.707 85.1941 22.707ZM85.1941 22.2544C84.6394 22.2544 84.2207 21.8556 84.2207 21.2467C84.2207 20.6377 84.6394 20.2443 85.1941 20.2443C85.7487 20.2443 86.162 20.6377 86.162 21.2467C86.162 21.8556 85.7487 22.2544 85.1941 22.2544Z" fill="#999999"/>
<path d="M88.7919 19.4468C89.3194 19.4468 89.6402 19.1881 89.6511 18.7031H89.2868C89.2813 18.9726 89.0856 19.145 88.7865 19.145C88.4928 19.145 88.2971 18.9726 88.2916 18.7031H87.9382C87.9436 19.1881 88.2645 19.4468 88.7919 19.4468ZM87.4433 22.6747H87.9219L89.6837 20.5946V22.6747H90.2058V19.8186H89.7327L87.9654 21.8987V19.8186H87.4433V22.6747Z" fill="#999999"/>
<path d="M94.8274 19.8186H92.1955V20.2713H93.2504V22.6747H93.7724V20.2713H94.8274V19.8186Z" fill="#999999"/>
<path d="M97.8385 21.2628C97.8385 20.3844 97.2458 19.7917 96.4138 19.7917C95.5818 19.7917 94.9673 20.4006 94.9673 21.2467C94.9673 22.0981 95.5872 22.707 96.5171 22.707C96.9956 22.707 97.3926 22.5454 97.6536 22.2436L97.3654 21.9095C97.1533 22.1412 96.8706 22.2544 96.5334 22.2544C95.9624 22.2544 95.5546 21.9203 95.4893 21.4191H97.8276C97.8331 21.3706 97.8385 21.3059 97.8385 21.2628ZM96.4138 20.2282C96.9195 20.2282 97.2838 20.5677 97.3382 21.0473H95.4893C95.5437 20.5623 95.9135 20.2282 96.4138 20.2282Z" fill="#999999"/>
<path d="M100.961 22.6747L99.814 21.2143L100.902 19.8186H100.331L99.5421 20.8479L98.7481 19.8186H98.1663L99.2484 21.2143L98.1119 22.6747H98.6938L99.5366 21.5808L100.369 22.6747H100.961Z" fill="#999999"/>
<path d="M101.511 22.6747H102.033V21.4784H103.675V22.6747H104.197V19.8186H103.675V21.0311H102.033V19.8186H101.511V22.6747Z" fill="#999999"/>
<path d="M105.212 22.6747H105.691L107.452 20.5946V22.6747H107.975V19.8186H107.501L105.734 21.8987V19.8186H105.212V22.6747Z" fill="#999999"/>
<path d="M111.076 22.6747H111.69L110.521 21.1928L111.614 19.8186H111.054L110.119 21.0257H109.51V19.8186H108.988V22.6747H109.51V21.4676H110.108L111.076 22.6747Z" fill="#999999"/>
<path d="M112.238 22.6747H112.716L114.478 20.5946V22.6747H115V19.8186H114.527L112.76 21.8987V19.8186H112.238V22.6747Z" fill="#999999"/>
</svg>
