<svg width="203" height="39" viewBox="0 0 203 39" fill="none" xmlns="http://www.w3.org/2000/svg">
<path d="M31.9401 4.86963C34.8711 9.67937 37.4357 22.4067 24.2461 34.838C42.1254 24.7746 36.8251 10.666 31.9401 4.86963Z" fill="#FFCB09"/>
<path d="M38.5352 15.229C38.413 22.012 33.9921 36.2439 17.2852 38.9077C36.63 40.3876 39.5122 23.7385 38.5352 15.229Z" fill="#FFCB09"/>
<path d="M0.0644621 24.1084C-0.54617 15.5988 2.92222 -1.12425 21.6808 0.0596871C15.8188 0.676344 3.28865 6.3494 0.0644621 24.1084Z" fill="#FFCB09"/>
<path d="M14.7198 4.12939C7.39221 8.93914 -4.4052 21.8144 7.02583 34.8377C0.870659 20.6305 9.59049 8.44583 14.7198 4.12939Z" fill="#FFCB09"/>
<path d="M11.789 9.30908C6.96182 15.1691 0.284706 34.2457 17.2847 37.7975C5.85376 30.9899 8.85802 15.9687 11.789 9.30908Z" fill="#FFCB09"/>
<path d="M11.4219 15.5989C12.2768 13.9956 14.9391 10.8631 18.7495 11.1591C13.4736 9.08726 11.6661 13.2557 11.4219 15.5989Z" fill="#FFCB09"/>
<path d="M13.6211 9.30919C15.0866 8.56923 19.2633 8.05126 24.2461 11.8991C22.0478 9.3092 16.8452 5.16544 13.6211 9.30919Z" fill="#FFCB09"/>
<path d="M28.2764 17.8187C27.1773 13.3789 23.0738 4.86939 15.4531 6.34931C24.8324 1.61351 27.91 12.0223 28.2764 17.8187Z" fill="#FFCB09"/>
<path d="M20.2148 28.5482C21.8025 28.4248 25.4907 27.3642 27.5424 24.1084C27.5424 26.3283 26.0769 30.3241 20.2148 28.5482Z" fill="#FFCB09"/>
<path d="M14.3535 27.438C16.3075 28.7946 21.3147 31.2118 25.7113 30.0278C23.8794 31.7544 19.0432 33.6537 14.3535 27.438Z" fill="#FFCB09"/>
<path d="M10.6895 20.7783C11.178 25.4647 14.5731 34.3936 24.2455 32.6177C19.9711 35.3309 11.2757 36.7615 10.6895 20.7783Z" fill="#FFCB09"/>
<path d="M21.3145 2.27944C25.8331 3.75936 33.405 11.307 27.5429 29.658C39.6334 9.30916 26.0774 1.16949 21.3145 2.27944Z" fill="#FFCB09"/>
<path d="M46.3214 23H53.7076C57.8579 23 60.2028 21.171 60.2028 17.9117C60.2028 14.8166 58.1159 13.1283 54.1766 13.1283H49.3228V9.09517H59.1007V6.58621H46.3214V23ZM49.3228 20.6552V15.4731H53.5434C55.9352 15.4731 57.131 16.2938 57.131 18.0055C57.131 19.7407 55.8883 20.6552 53.5434 20.6552H49.3228ZM67.8786 10.3379C65.862 10.3379 63.9158 10.8538 62.5793 11.8855L63.7282 14.0193C64.6662 13.2455 66.12 12.7766 67.5269 12.7766C69.6138 12.7766 70.6455 13.7848 70.6455 15.4966V15.6841H67.4096C63.611 15.6841 62.2041 17.3255 62.2041 19.4124C62.2041 21.5931 64.0096 23.1641 66.8703 23.1641C68.7462 23.1641 70.1062 22.5545 70.8096 21.4759V23H73.5765V15.6607C73.5765 12.0497 71.4896 10.3379 67.8786 10.3379ZM67.48 21.0303C65.9793 21.0303 65.0882 20.3503 65.0882 19.2952C65.0882 18.3807 65.6276 17.6303 67.6207 17.6303H70.6455V19.0841C70.1531 20.3738 68.9103 21.0303 67.48 21.0303ZM86.2076 10.4786L82.2449 19.7407L78.3056 10.4786H75.2573L80.7207 23.0469L80.5097 23.5393C79.9469 24.7821 79.3373 25.2745 78.3056 25.2745C77.5083 25.2745 76.7111 24.9462 76.1483 24.4069L74.9759 26.5641C75.7731 27.291 77.0863 27.7131 78.329 27.7131C80.4159 27.7131 82.0104 26.8455 83.1594 24.0083L89.0214 10.4786H86.2076ZM103.266 23H106.455L99.045 6.58621H96.0436L88.6574 23H91.7995L93.4174 19.2014H101.624L103.266 23ZM94.4492 16.8097L97.5209 9.63448L100.616 16.8097H94.4492ZM115.584 10.3379C113.872 10.3379 112.419 10.9241 111.434 12.12V10.4786H108.643V27.549H111.574V21.4759C112.583 22.6248 113.99 23.1641 115.584 23.1641C119.242 23.1641 121.939 20.6317 121.939 16.7393C121.939 12.8703 119.242 10.3379 115.584 10.3379ZM115.256 20.6552C113.145 20.6552 111.528 19.131 111.528 16.7393C111.528 14.3476 113.145 12.8234 115.256 12.8234C117.366 12.8234 118.961 14.3476 118.961 16.7393C118.961 19.131 117.366 20.6552 115.256 20.6552ZM136.58 16.8097C136.58 12.8938 133.907 10.3379 130.249 10.3379C126.521 10.3379 123.777 13.011 123.777 16.7393C123.777 20.4676 126.497 23.1641 130.694 23.1641C132.852 23.1641 134.61 22.4607 135.736 21.1241L134.165 19.3186C133.274 20.2331 132.172 20.6786 130.765 20.6786C128.584 20.6786 127.06 19.5062 126.708 17.6772H136.533C136.556 17.3959 136.58 17.0441 136.58 16.8097ZM130.249 12.6828C132.172 12.6828 133.555 13.9255 133.789 15.731H126.685C126.966 13.9021 128.349 12.6828 130.249 12.6828ZM139.786 23H142.717V18.0524H149.024V23H151.955V10.4786H149.024V15.5669H142.717V10.4786H139.786V23ZM167.397 20.5145V10.4786H157.079L156.915 14.7697C156.774 17.7007 156.47 20.4441 154.711 20.5145H154.125V25.7903H156.845V23H166.506V25.7903H169.249V20.5145H167.397ZM159.588 14.9807L159.659 12.9641H164.466V20.5145H158.299C159.307 19.5531 159.494 17.3255 159.588 14.9807ZM176.533 10.3379C174.516 10.3379 172.57 10.8538 171.234 11.8855L172.383 14.0193C173.321 13.2455 174.774 12.7766 176.181 12.7766C178.268 12.7766 179.3 13.7848 179.3 15.4966V15.6841H176.064C172.265 15.6841 170.858 17.3255 170.858 19.4124C170.858 21.5931 172.664 23.1641 175.525 23.1641C177.401 23.1641 178.761 22.5545 179.464 21.4759V23H182.231V15.6607C182.231 12.0497 180.144 10.3379 176.533 10.3379ZM176.134 21.0303C174.634 21.0303 173.743 20.3503 173.743 19.2952C173.743 18.3807 174.282 17.6303 176.275 17.6303H179.3V19.0841C178.807 20.3738 177.565 21.0303 176.134 21.0303Z" fill="#1F1E1D"/>
<path d="M51.6364 37H52.5597L49.7634 30.8448H48.8929L46.1055 37H47.0112L47.6883 35.4612H50.9593L51.6364 37ZM47.996 34.7578L49.3238 31.7417L50.6516 34.7578H47.996ZM55.9521 32.2957C55.2663 32.2957 54.6684 32.5595 54.2902 33.0783V32.3397H53.4813V38.7059H54.3254V36.2966C54.7123 36.7978 55.2927 37.0528 55.9521 37.0528C57.3151 37.0528 58.3087 36.1031 58.3087 34.6698C58.3087 33.2453 57.3151 32.2957 55.9521 32.2957ZM55.8818 36.3141C54.9937 36.3141 54.3166 35.6634 54.3166 34.6698C54.3166 33.685 54.9937 33.0343 55.8818 33.0343C56.7787 33.0343 57.4558 33.685 57.4558 34.6698C57.4558 35.6634 56.7787 36.3141 55.8818 36.3141ZM63.747 34.6962C63.747 33.2629 62.7886 32.2957 61.4432 32.2957C60.0979 32.2957 59.1043 33.2893 59.1043 34.6698C59.1043 36.0591 60.1067 37.0528 61.6103 37.0528C62.3841 37.0528 63.026 36.789 63.4481 36.2966L62.982 35.7514C62.6391 36.1295 62.1819 36.3141 61.6367 36.3141C60.7134 36.3141 60.0539 35.769 59.9484 34.9512H63.7294C63.7382 34.8721 63.747 34.7666 63.747 34.6962ZM61.4432 33.0079C62.261 33.0079 62.8501 33.5619 62.9381 34.3445H59.9484C60.0363 33.5531 60.6343 33.0079 61.4432 33.0079ZM65.0566 37H65.9007V35.0479H68.5562V37H69.4004V32.3397H68.5562V34.3181H65.9007V32.3397H65.0566V37ZM75.069 36.2614V32.3397H71.455L71.3847 33.9136C71.3231 35.0919 71.2088 36.2262 70.5405 36.2614H70.2943V38.0816H71.0945V37H74.9898V38.0816H75.7812V36.2614H75.069ZM72.1585 33.9752L72.2024 33.0783H74.2248V36.2614H71.6133C72.0354 35.8921 72.1233 34.9424 72.1585 33.9752ZM78.5428 32.2957C77.7954 32.2957 77.1007 32.5067 76.6171 32.8936L76.9688 33.5267C77.3293 33.219 77.8921 33.0255 78.4461 33.0255C79.2814 33.0255 79.6947 33.4388 79.6947 34.151V34.3181H78.3581C76.9688 34.3181 76.4852 34.9336 76.4852 35.681C76.4852 36.49 77.1535 37.0528 78.2087 37.0528C78.9385 37.0528 79.4573 36.8066 79.7387 36.3845V37H80.5388V34.1862C80.5388 32.9112 79.8178 32.2957 78.5428 32.2957ZM78.3494 36.4021C77.7075 36.4021 77.3206 36.1119 77.3206 35.6459C77.3206 35.2502 77.558 34.9248 78.3933 34.9248H79.6947V35.5755C79.4837 36.1119 78.9825 36.4021 78.3494 36.4021ZM86.4515 37.0528C87.2869 37.0528 87.9815 36.701 88.3508 36.0503L87.7089 35.6459C87.41 36.1031 86.9527 36.3141 86.4427 36.3141C85.5282 36.3141 84.8424 35.681 84.8424 34.6698C84.8424 33.6762 85.5282 33.0343 86.4427 33.0343C86.9527 33.0343 87.41 33.2453 87.7089 33.7026L88.3508 33.2893C87.9815 32.6386 87.2869 32.2957 86.4515 32.2957C85.0182 32.2957 83.9894 33.2805 83.9894 34.6698C83.9894 36.0591 85.0182 37.0528 86.4515 37.0528ZM92.8569 32.3397H88.601V33.0783H90.3069V37H91.151V33.0783H92.8569V32.3397ZM96.1909 32.2957C95.505 32.2957 94.9071 32.5595 94.529 33.0783V32.3397H93.72V38.7059H94.5642V36.2966C94.9511 36.7978 95.5314 37.0528 96.1909 37.0528C97.5538 37.0528 98.5475 36.1031 98.5475 34.6698C98.5475 33.2453 97.5538 32.2957 96.1909 32.2957ZM96.1206 36.3141C95.2325 36.3141 94.5554 35.6634 94.5554 34.6698C94.5554 33.685 95.2325 33.0343 96.1206 33.0343C97.0175 33.0343 97.6945 33.685 97.6945 34.6698C97.6945 35.6634 97.0175 36.3141 96.1206 36.3141ZM101.77 37.0528C103.168 37.0528 104.188 36.0591 104.188 34.6698C104.188 33.2805 103.168 32.2957 101.77 32.2957C100.372 32.2957 99.343 33.2805 99.343 34.6698C99.343 36.0591 100.372 37.0528 101.77 37.0528ZM101.77 36.3141C100.873 36.3141 100.196 35.6634 100.196 34.6698C100.196 33.6762 100.873 33.0343 101.77 33.0343C102.667 33.0343 103.335 33.6762 103.335 34.6698C103.335 35.6634 102.667 36.3141 101.77 36.3141ZM105.407 37H106.181L109.03 33.6059V37H109.874V32.3397H109.109L106.251 35.7338V32.3397H105.407V37ZM114.986 32.3397H110.73V33.0783H112.436V37H113.28V33.0783H114.986V32.3397ZM119.855 34.6962C119.855 33.2629 118.896 32.2957 117.551 32.2957C116.205 32.2957 115.212 33.2893 115.212 34.6698C115.212 36.0591 116.214 37.0528 117.718 37.0528C118.492 37.0528 119.134 36.789 119.556 36.2966L119.09 35.7514C118.747 36.1295 118.289 36.3141 117.744 36.3141C116.821 36.3141 116.161 35.769 116.056 34.9512H119.837C119.846 34.8721 119.855 34.7666 119.855 34.6962ZM117.551 33.0079C118.369 33.0079 118.958 33.5619 119.046 34.3445H116.056C116.144 33.5531 116.742 33.0079 117.551 33.0079ZM121.509 32.3397L121.43 34.0631C121.368 35.1622 121.333 36.3053 120.577 36.3053C120.515 36.3053 120.445 36.2966 120.366 36.279L120.313 36.9912C120.507 37.044 120.674 37.0703 120.832 37.0703C121.887 37.0703 122.107 35.7602 122.186 34.1159L122.239 33.0783H124.244V37H125.088V32.3397H121.509ZM128.874 33.9224L127.564 33.9136V32.3397H126.72V37L128.742 37.0088C129.991 37.0176 130.694 36.4548 130.694 35.4436C130.694 34.4852 130.061 33.9312 128.874 33.9224ZM128.672 36.3669L127.564 36.3581V34.5291L128.672 34.5467C129.446 34.5555 129.833 34.8193 129.833 35.4348C129.833 36.0591 129.437 36.3757 128.672 36.3669ZM131.778 37H132.622V35.0479H135.277V37H136.121V32.3397H135.277V34.3181H132.622V32.3397H131.778V37ZM139.759 37.0528C141.157 37.0528 142.177 36.0591 142.177 34.6698C142.177 33.2805 141.157 32.2957 139.759 32.2957C138.361 32.2957 137.332 33.2805 137.332 34.6698C137.332 36.0591 138.361 37.0528 139.759 37.0528ZM139.759 36.3141C138.862 36.3141 138.185 35.6634 138.185 34.6698C138.185 33.6762 138.862 33.0343 139.759 33.0343C140.656 33.0343 141.324 33.6762 141.324 34.6698C141.324 35.6634 140.656 36.3141 139.759 36.3141ZM145.577 31.7329C146.43 31.7329 146.948 31.3109 146.966 30.5195H146.377C146.368 30.9591 146.051 31.2405 145.568 31.2405C145.093 31.2405 144.776 30.9591 144.768 30.5195H144.196C144.205 31.3109 144.724 31.7329 145.577 31.7329ZM143.396 37H144.17L147.019 33.6059V37H147.863V32.3397H147.098L144.24 35.7338V32.3397H143.396V37ZM155.336 32.3397H151.08V33.0783H152.786V37H153.63V33.0783H155.336V32.3397ZM160.205 34.6962C160.205 33.2629 159.247 32.2957 157.901 32.2957C156.556 32.2957 155.562 33.2893 155.562 34.6698C155.562 36.0591 156.565 37.0528 158.068 37.0528C158.842 37.0528 159.484 36.789 159.906 36.2966L159.44 35.7514C159.097 36.1295 158.64 36.3141 158.095 36.3141C157.171 36.3141 156.512 35.769 156.406 34.9512H160.187C160.196 34.8721 160.205 34.7666 160.205 34.6962ZM157.901 33.0079C158.719 33.0079 159.308 33.5619 159.396 34.3445H156.406C156.494 33.5531 157.092 33.0079 157.901 33.0079ZM165.255 37L163.399 34.6171L165.158 32.3397H164.235L162.96 34.0191L161.676 32.3397H160.735L162.485 34.6171L160.647 37H161.588L162.951 35.215L164.296 37H165.255ZM166.143 37H166.987V35.0479H169.643V37H170.487V32.3397H169.643V34.3181H166.987V32.3397H166.143V37ZM172.128 37H172.902L175.751 33.6059V37H176.595V32.3397H175.83L172.972 35.7338V32.3397H172.128V37ZM181.61 37H182.604L180.713 34.5819L182.481 32.3397H181.575L180.062 34.3093H179.078V32.3397H178.233V37H179.078V35.0303H180.045L181.61 37ZM183.489 37H184.262L187.111 33.6059V37H187.956V32.3397H187.191L184.333 35.7338V32.3397H183.489V37Z" fill="#999999"/>
</svg>
