<svg width="26" height="27" viewBox="0 0 26 27" fill="none" xmlns="http://www.w3.org/2000/svg">
<path d="M7.49877 24.0822C7.49878 24.0822 7.49977 24.0816 7.50169 24.0806C7.49972 24.0817 7.49877 24.0822 7.49877 24.0822ZM8.75173 24.5735C8.75173 24.5735 8.75148 24.5728 8.75101 24.5714L8.75173 24.5735ZM7.86291 24.9986L7.56366 25.9528C7.79299 26.0247 7.98664 25.9969 8.0667 25.9821C8.16255 25.9644 8.23965 25.9369 8.28694 25.9181C8.38224 25.8804 8.46539 25.8342 8.52247 25.8006C8.64256 25.7297 8.77479 25.6376 8.90298 25.543C9.1655 25.3492 9.49348 25.0839 9.83563 24.7926C10.3815 24.3279 11.0029 23.7636 11.4989 23.2652C13.8011 23.4272 16.1155 23.2252 18.3566 22.6656L18.3545 22.6566C18.3787 22.6504 18.407 22.6435 18.4393 22.6356C18.908 22.5205 20.193 22.2051 21.3963 21.3612C22.8653 20.3309 24.2433 18.5396 24.6191 15.4567C25.3419 9.59603 24.3398 5.49465 22.0483 3.49665C21.2704 2.78929 18.7183 1.04457 13.3751 1.01636L13.3214 1.01378C13.2707 1.01154 13.1982 1.00875 13.1062 1.00627C12.9222 1.0013 12.6595 0.997556 12.3365 1.00194C11.6918 1.01068 10.7989 1.05187 9.80581 1.18257C7.86777 1.43764 5.34606 2.05773 3.62917 3.63326L3.61337 3.64777L3.59819 3.66294C1.67286 5.58827 1.08307 8.32865 1.01508 11.3998C0.982309 12.8802 0.935784 15.1958 1.64598 17.348C2.32452 19.4043 3.70573 21.3397 6.36631 22.3029C6.40584 22.6119 6.45735 23.0014 6.5137 23.3935C6.57578 23.8255 6.64569 24.2745 6.71354 24.6252C6.74672 24.7967 6.78399 24.969 6.82492 25.111C6.84411 25.1775 6.87408 25.2732 6.91832 25.3691C6.93962 25.4153 6.98013 25.497 7.04575 25.5843C7.09317 25.6475 7.25672 25.8565 7.56365 25.9528L7.86291 24.9986Z" fill="#7B519C" stroke="white" stroke-width="2"/>
<path d="M15.7127 11.2593V11.2725C15.7107 11.3458 15.6806 11.4156 15.6287 11.4674C15.5767 11.5192 15.5069 11.5491 15.4336 11.5509C15.3602 11.5527 15.289 11.5263 15.2346 11.4772C15.1802 11.428 15.1467 11.3598 15.1411 11.2866C15.1603 11.09 15.1365 10.8907 15.0716 10.7041C15.0066 10.5176 14.9019 10.3474 14.7648 10.2052C14.6277 10.063 14.4613 9.95234 14.2772 9.88072C14.0931 9.8091 13.8957 9.77828 13.6985 9.79039H13.7023C13.6291 9.78472 13.5609 9.75116 13.5118 9.69664C13.4626 9.64212 13.4363 9.57081 13.4382 9.49744C13.4402 9.42407 13.4702 9.35425 13.5221 9.3024C13.5741 9.25054 13.644 9.22062 13.7173 9.21882H13.7334H13.7324L13.7974 9.21788C14.0603 9.21779 14.3204 9.27174 14.5615 9.37639C14.8027 9.48103 15.0198 9.63413 15.1993 9.82619C15.3788 10.0182 15.5169 10.2451 15.6051 10.4928C15.6932 10.7405 15.7295 11.0036 15.7117 11.2659V11.2603L15.7127 11.2593ZM16.6081 11.7593C16.6524 9.88737 15.4829 8.4222 13.2625 8.25835C13.224 8.25715 13.1861 8.24818 13.1511 8.23197C13.1162 8.21577 13.0848 8.19267 13.059 8.16406C13.0332 8.13545 13.0134 8.10192 13.0008 8.06547C12.9883 8.02903 12.9832 7.99043 12.9859 7.95198C12.9887 7.91353 12.9991 7.87603 13.0167 7.84172C13.0343 7.80742 13.0586 7.77701 13.0882 7.75234C13.1178 7.72766 13.1521 7.70922 13.189 7.69811C13.2259 7.68701 13.2647 7.68348 13.303 7.68773H13.3021H13.3181C13.845 7.68771 14.3664 7.7954 14.8502 8.0042C15.334 8.21299 15.77 8.51847 16.1315 8.90189C16.493 9.28531 16.7722 9.73857 16.9522 10.2338C17.1321 10.7291 17.2089 11.2559 17.1778 11.7819L17.1788 11.7716C17.1737 11.8446 17.1409 11.9128 17.0871 11.9624C17.0333 12.012 16.9626 12.039 16.8894 12.0381C16.8163 12.0371 16.7463 12.0082 16.6938 11.9572C16.6413 11.9063 16.6103 11.8371 16.6072 11.764V11.7565L16.6081 11.7593ZM18.6797 12.3516V12.3535C18.6759 12.4265 18.6443 12.4953 18.5914 12.5457C18.5386 12.5962 18.4684 12.6245 18.3953 12.6248C18.3222 12.6252 18.2517 12.5976 18.1983 12.5476C18.145 12.4977 18.1127 12.4293 18.1082 12.3563C18.0856 8.75742 15.6853 6.79789 12.7767 6.77717C12.7392 6.77717 12.7021 6.76979 12.6675 6.75545C12.6329 6.74111 12.6014 6.7201 12.5749 6.6936C12.5484 6.66711 12.5274 6.63566 12.5131 6.60104C12.4987 6.56643 12.4913 6.52932 12.4913 6.49186C12.4913 6.45439 12.4987 6.41729 12.5131 6.38267C12.5274 6.34806 12.5484 6.3166 12.5749 6.29011C12.6014 6.26362 12.6329 6.2426 12.6675 6.22826C12.7021 6.21392 12.7392 6.20654 12.7767 6.20654C16.0338 6.22914 18.6515 8.47681 18.6778 12.3507L18.6797 12.3516ZM18.1854 16.6812V16.6897C17.7089 17.5287 16.8172 18.4553 15.8991 18.1596L15.8906 18.1464C14.2538 17.5441 12.7194 16.6932 11.3416 15.6238L11.3802 15.652C10.6946 15.1076 10.0726 14.4876 9.52615 13.8036L9.50826 13.7801C9.01344 13.1572 8.57183 12.4938 8.18809 11.797L8.15043 11.7226C7.69642 10.9741 7.32001 10.1812 7.02706 9.3563L6.99881 9.26402C6.70314 8.34593 7.625 7.4542 8.4687 6.97774H8.47717C8.64316 6.87149 8.84248 6.83013 9.03703 6.86157C9.23158 6.89301 9.40773 6.99505 9.5318 7.14817L9.53274 7.15006C9.53274 7.15006 10.0798 7.80261 10.3143 8.12558C10.5346 8.42596 10.8312 8.90714 10.9847 9.1755C11.1003 9.35888 11.1473 9.57719 11.1175 9.79188C11.0877 10.0066 10.983 10.2038 10.8218 10.3488L10.8209 10.3497L10.2917 10.7734C10.2092 10.8531 10.1454 10.9501 10.105 11.0574C10.0646 11.1647 10.0486 11.2797 10.0582 11.394V11.3912C10.3202 12.2644 10.7931 13.0596 11.4352 13.7068C12.0773 14.354 12.8688 14.8332 13.7399 15.1021L13.7795 15.1125C13.8932 15.1214 14.0075 15.1053 14.1143 15.0651C14.221 15.0249 14.3176 14.9616 14.3972 14.8799L14.8209 14.3507C14.9665 14.1888 15.1647 14.0838 15.3804 14.0543C15.5961 14.0249 15.8153 14.0728 15.9989 14.1897L15.9951 14.1878C16.7607 14.6238 17.4227 15.1031 18.0262 15.6464L18.0159 15.637C18.169 15.7591 18.2709 15.934 18.3016 16.1274C18.3322 16.3208 18.2894 16.5187 18.1816 16.6822L18.1835 16.6793L18.1854 16.6812Z" fill="white"/>
</svg>
