<svg width="25" height="25" viewBox="0 0 25 25" fill="none" xmlns="http://www.w3.org/2000/svg">
<path d="M6.60746 21.4866L7.01615 21.6893C8.71925 22.7028 10.6265 23.1758 12.5339 23.1758C18.5285 23.1758 23.4331 18.3109 23.4331 12.365C23.4331 9.5272 22.275 6.75691 20.2315 4.72986C18.1878 2.7028 15.463 1.5542 12.5339 1.5542C6.5394 1.5542 1.63469 6.41905 1.70285 12.4326C1.70285 14.4596 2.31593 16.4191 3.33769 18.1082L3.61015 18.5137L2.52032 22.5002L6.60746 21.4866Z" fill="#00E676"/>
<path d="M21.3896 3.64864C19.0735 1.28382 15.8719 0 12.6021 0C5.65401 0 0.068163 5.60809 0.136228 12.4324C0.136228 14.5946 0.749305 16.6892 1.77116 18.5811L0 25L6.60761 23.3108C8.44684 24.3244 10.4904 24.7974 12.5341 24.7974C19.4142 24.7974 25 19.1892 25 12.365C25 9.05409 23.7056 5.94595 21.3896 3.64864ZM12.6021 22.7028C10.7629 22.7028 8.92369 22.2299 7.35692 21.2839L6.94823 21.0812L2.99732 22.0947L4.01908 18.2434L3.74662 17.8379C0.749305 13.0407 2.17985 6.68918 7.08446 3.71616C11.9891 0.743231 18.3242 2.16218 21.3215 7.02704C24.3188 11.8919 22.8882 18.1757 17.9837 21.1487C16.4168 22.1622 14.5095 22.7028 12.6021 22.7028ZM18.5967 15.2029L17.8474 14.865C17.8474 14.865 16.7575 14.392 16.0763 14.0542C16.0081 14.0542 15.9401 13.9866 15.8719 13.9866C15.6675 13.9866 15.5313 14.0542 15.3951 14.1218C15.3951 14.1218 15.327 14.1893 14.3733 15.2704C14.3051 15.4055 14.1689 15.4731 14.0327 15.4731H13.9645C13.8965 15.4731 13.7602 15.4055 13.6921 15.338L13.3515 15.2029C12.6021 14.865 11.921 14.4595 11.376 13.919C11.2398 13.7839 11.0354 13.6488 10.8991 13.5137C10.4223 13.0407 9.94545 12.5001 9.60493 11.892L9.53676 11.7569C9.4687 11.6893 9.4687 11.6217 9.40054 11.4866C9.40054 11.3515 9.40054 11.2164 9.4687 11.1488C9.4687 11.1488 9.74116 10.8109 9.94545 10.6083C10.0818 10.473 10.1498 10.2704 10.2861 10.1353C10.4223 9.93254 10.4905 9.6623 10.4223 9.45956C10.3542 9.1217 9.53677 7.29738 9.33247 6.89201C9.19615 6.68927 9.06001 6.62176 8.85562 6.55415H8.10632C7.96999 6.55415 7.83386 6.62176 7.69754 6.62176L7.62937 6.68927C7.49314 6.75688 7.35692 6.89201 7.22069 6.95952C7.08446 7.09474 7.0163 7.22977 6.88007 7.36499C6.40322 7.9731 6.13076 8.71633 6.13076 9.45956C6.13076 10.0001 6.26699 10.5407 6.47138 11.0136L6.53955 11.2164C7.15262 12.5001 7.96999 13.6488 9.06001 14.6623L9.33247 14.9325C9.53677 15.1353 9.74116 15.2704 9.87739 15.473C11.3079 16.6893 12.9428 17.5677 14.782 18.0407C14.9864 18.1082 15.2588 18.1082 15.4632 18.1758H16.1444C16.485 18.1758 16.8937 18.0407 17.1662 17.9055C17.3705 17.7704 17.5068 17.7704 17.643 17.6353L17.7793 17.5001C17.9155 17.365 18.0518 17.2974 18.188 17.1623C18.3242 17.0272 18.4605 16.8921 18.5286 16.7568C18.6648 16.4866 18.7329 16.1487 18.8011 15.811V15.338C18.8011 15.338 18.7329 15.2704 18.5967 15.2029Z" fill="white"/>
</svg>
