<svg width="187" height="166" viewBox="0 0 187 166" fill="none" xmlns="http://www.w3.org/2000/svg">
<path d="M25.3972 89.7751H22.0109L20.3178 91.469V93.1629L18.6247 94.8568H15.2384L13.5453 96.5507V94.8568L11.8522 93.1629V89.7751L10.159 88.0813V81.3058L8.46591 79.6119V76.2241H10.159L11.8522 77.918H15.2384L16.9315 76.2241H20.3178L22.0109 77.918H25.3972V89.7751Z" fill="#EAEEF4"/>
<path d="M13.5451 96.5508V98.2447L15.2382 99.9386V105.02L16.9313 106.714L20.3176 103.326V96.5508L18.6245 94.8569H15.2382L13.5451 96.5508Z" fill="#EAEEF4"/>
<path d="M20.3177 96.5509H22.0109L23.704 94.857H25.3971L28.7834 98.2448V99.9387H33.8627L35.5559 98.2448L37.249 99.9387L38.9421 98.2448L37.249 96.5509V93.1631L35.5559 91.4693L33.8627 93.1631L30.4765 89.7754L28.7834 91.4693H27.0902L25.3971 89.7754H22.0109L20.3177 91.4693V93.1631L18.6246 94.857L20.3177 96.5509Z" fill="#EAEEF4"/>
<path d="M28.7834 101.632L30.4765 103.326V105.02L32.1697 106.714V108.408L30.4765 110.102L25.3972 105.02H22.0109L20.3178 103.326V96.5508H22.0109L23.704 94.8569H25.3972L28.7834 98.2447V101.632Z" fill="#EAEEF4"/>
<path d="M38.9423 98.2446L40.6354 99.9385L38.9423 101.632L40.6354 103.326L38.9423 105.02H37.2491L35.556 106.714V108.408H32.1698V106.714L30.4766 105.02V103.326L28.7835 101.632V99.9385H33.8629L35.556 98.2446L37.2491 99.9385L38.9423 98.2446Z" fill="#EAEEF4"/>
<path d="M16.9316 106.714V115.183H18.6248L20.3179 113.489L22.011 115.183H25.3973L27.0904 116.877L28.7835 115.183V111.796L30.4767 110.102L25.3973 105.02H22.011L20.3179 103.326L16.9316 106.714Z" fill="#EAEEF4"/>
<path d="M35.556 108.408V110.102L37.2492 111.796H42.3286V110.102L44.0217 108.408H45.7148L47.4079 106.714V99.9385H44.0217L42.3286 98.2446L40.6354 99.9385L38.9423 101.632L40.6354 103.326L38.9423 105.02H37.2492L35.556 106.714V108.408Z" fill="#EAEEF4"/>
<path d="M47.4076 99.9387L49.1007 98.2448V96.551L50.7938 94.8571V91.4693L49.1007 89.7755V88.0816H47.4076L45.7145 86.3877H44.0213L40.6351 89.7755H38.942L37.2488 91.4693V93.1632V96.551L38.942 98.2448L40.6351 99.9387L42.3282 98.2448L44.0213 99.9387H47.4076Z" fill="#EAEEF4"/>
<path d="M38.942 89.7752V88.0813L37.2488 86.3874V84.6935L35.5557 82.9997V81.3058H33.8626L32.1695 79.6119V76.2242L30.4763 74.5303L28.7832 76.2242H27.0901L25.397 77.918V89.7752L27.0901 91.469H28.7832L30.4763 89.7752L33.8626 93.1629L35.5557 91.469L37.2488 93.1629V91.469L38.942 89.7752Z" fill="#EAEEF4"/>
<path d="M32.1695 76.2243L33.8626 74.5305V71.1427L35.5557 69.4488H38.942L42.3283 66.0611H44.0214L45.7145 64.3672L47.4076 66.0611V67.7549L45.6129 69.4488L47.4076 71.1427L45.7145 72.8366V74.5305H42.3283L37.2489 79.6121H35.5557V81.306H33.8626L32.1695 79.6121V76.2243Z" fill="#EAEEF4"/>
<path d="M45.7148 86.3874L47.4079 84.6935V81.3058L49.1011 79.6119V77.918L45.7148 74.5303H42.3286L37.2492 79.6119H35.556V81.3058V82.9997L37.2492 84.6935V86.3874L38.9423 88.0813V89.7752H40.6354L44.0217 86.3874H45.7148Z" fill="#EAEEF4"/>
<path d="M50.7941 94.8567H54.1804V91.469L57.5666 88.0812H59.2598L60.9529 86.3873H62.646V84.6935L60.9529 82.9996V81.3057H59.2598H54.1804L52.4872 79.6118H49.101L47.4079 81.3057V84.6935L45.7147 86.3873L47.4079 88.0812H49.101V89.7751L50.7941 91.469V94.8567Z" fill="#EAEEF4"/>
<path d="M54.1805 94.8571H59.2598L60.953 96.551H62.6461L64.3392 94.8571H66.0324V88.0816L64.3392 86.3877H62.6461H60.953L59.2598 88.0816H57.5667L54.1805 91.4693V94.8571Z" fill="#EAEEF4"/>
<path d="M47.4079 71.1426H49.101L50.7941 69.4488H52.4872V67.7549H54.1804L55.8735 69.4488H57.5666V71.1426H59.2598V72.8365H62.646V74.5304H64.3391V76.2243L60.9529 79.612V81.3059H54.1804L52.4872 79.612H49.101V77.9182L45.7147 74.5304V72.8365L47.4079 71.1426Z" fill="#EAEEF4"/>
<path d="M57.5667 69.4485L59.2598 67.7546V57.5913H54.1804L52.4873 55.8975H50.7942L49.1011 57.5913V60.9791L47.4079 62.673L49.1011 64.3668H50.7942L52.4873 66.0607V67.7546H54.1804L55.8736 69.4485H57.5667Z" fill="#EAEEF4"/>
<path d="M59.2598 67.7547H62.646L66.0323 64.367V62.6731L67.7254 60.9792V59.2853L69.4185 57.5915V54.2037H67.7254L66.0323 52.5098V50.8159L64.3392 49.1221H62.646L60.9529 50.8159V52.5098L62.646 54.2037L60.9529 55.8976H59.2598V57.5915V67.7547Z" fill="#EAEEF4"/>
<path d="M62.6458 49.1222V45.7344L59.2596 42.3467L57.5664 44.0406H54.1802L52.487 45.7344V47.4283L50.7939 49.1222V55.8977H52.487L54.1802 57.5916H59.2596V55.8977H60.9527L62.6458 54.2038L60.9527 52.5099V50.8161L62.6458 49.1222Z" fill="#EAEEF4"/>
<path d="M59.2598 42.3468L60.9529 40.653V38.9591L62.646 37.2652H69.4185V35.5713L71.1117 33.8774H81.2704L82.9636 35.5713V38.9591L84.6567 40.653V42.3468H79.5773H77.8842L76.191 44.0407H64.3392L62.646 45.7346L59.2598 42.3468Z" fill="#EAEEF4"/>
<path d="M72.8046 33.8773L71.1115 32.1834H66.0321L64.339 30.4895L66.0321 28.7957V25.4079L67.7252 23.714V20.3263H71.1115L76.1908 15.2446H79.5771L81.2702 16.9385H84.6565V18.6324L81.2702 22.0201V25.4079L82.9634 27.1018L81.2702 28.7957H77.884L76.1908 30.4895V33.8773H72.8046Z" fill="#EAEEF4"/>
<path d="M82.9633 27.1021H93.1221L94.8152 28.7959V32.1837H93.1221L91.429 33.8776L89.7358 32.1837H84.6565V33.8776L82.9633 35.5714L81.2702 33.8776H76.1908V30.4898L77.884 28.7959H81.2702L82.9633 27.1021Z" fill="#EAEEF4"/>
<path d="M79.5774 42.3467V44.0406L81.2705 45.7345H82.9636L84.6568 47.4283V49.1222H86.3499L88.043 50.8161V52.51L89.7361 54.2038H98.2018V50.8161L99.8949 49.1222H101.588V45.7345L96.5087 40.6528H86.3499L84.6568 42.3467H79.5774Z" fill="#EAEEF4"/>
<path d="M98.2015 42.3469V40.653L99.8946 38.9591V33.8775L101.588 32.1836L99.8946 30.4897L98.2015 32.1836H94.8152H93.1221L91.429 33.8775L89.7359 32.1836H84.6565V33.8775L82.9634 35.5714V38.9591L84.6565 40.653V42.3469L86.3496 40.653H96.5084L98.2015 42.3469Z" fill="#EAEEF4"/>
<path d="M99.8946 30.4895V27.1018L101.588 25.4079V23.714H98.2015L94.8152 20.3263H93.1221V16.9385L91.429 15.2446L89.7358 16.9385H86.3496H84.6565V18.6324L81.2702 22.0201V25.4079L82.9633 27.1018H93.1221L94.8152 28.7957V32.1834H98.2015L99.8946 30.4895Z" fill="#EAEEF4"/>
<path d="M93.1224 20.3264H94.8155L98.2018 23.7142H101.588L104.974 20.3264L103.281 18.6326V16.9387L101.588 15.2448V11.8571L103.281 10.1632V6.77542H101.588L99.8949 8.4693L98.2018 6.77542V5.08154H94.8155L91.4293 8.4693V10.1632L89.7362 11.8571H88.043L86.3499 13.5509V16.9387H89.7362L91.4293 15.2448L93.1224 16.9387V20.3264Z" fill="#EAEEF4"/>
<path d="M98.2018 54.2039L101.588 57.5916L103.281 55.8977V54.2039H106.667L108.361 52.51H110.054L111.747 50.8161H113.44V49.1222L111.747 47.4283L115.133 44.0406V40.6528H111.747H110.054L108.361 42.3467H104.974L101.588 45.7345V49.1222H99.8949L98.2018 50.8161V54.2039Z" fill="#EAEEF4"/>
<path d="M106.667 54.2038V55.8977L108.36 57.5916H110.053L111.746 55.8977H121.905L123.598 54.2038V52.5099L121.905 50.816V47.4283L120.212 45.7344V44.0405H115.133L111.746 47.4283L113.44 49.1222V50.816H111.746L110.053 52.5099H108.36L106.667 54.2038Z" fill="#EAEEF4"/>
<path d="M121.905 55.898V62.6735L120.212 64.3674V67.7551H121.905L125.292 64.3674H130.371L132.064 66.0612H133.757V62.6735L135.45 60.9796V59.2857L133.757 57.5919H132.064L130.371 55.898V54.2041H123.598L121.905 55.898Z" fill="#EAEEF4"/>
<path d="M133.757 64.3675H137.144L138.837 66.0613H142.223L143.916 64.3675V62.6736L145.609 60.9797V59.2858L142.223 55.8981L143.916 54.2042V52.5103L145.609 50.8164V49.1226H142.223H138.837L137.144 50.8164V52.5103L135.451 54.2042H130.371V55.8981L132.064 57.5919H133.757L135.451 59.2858V60.9797L133.757 62.6736V64.3675Z" fill="#EAEEF4"/>
<path d="M145.609 60.9797L147.302 62.6736H148.995L150.689 60.9797H154.075L155.768 59.2858H154.075V57.5919L155.768 55.8981V52.5103H152.382L150.689 50.8164H148.995L147.302 49.1226H145.609V50.8164L143.916 52.5103V54.2042L142.223 55.8981L145.609 59.2858V60.9797Z" fill="#EAEEF4"/>
<path d="M121.905 47.4283L125.292 44.0406H126.985L128.678 42.3467H132.064L133.757 44.0406H135.45L137.144 45.7344H140.53L142.223 47.4283V49.1222H138.837L137.144 50.8161V52.5099L135.45 54.2038H130.371H123.599V52.5099L121.905 50.8161V47.4283Z" fill="#EAEEF4"/>
<path d="M147.302 49.1223V47.4284L148.995 45.7346V44.0407H150.689V42.3468L152.382 40.6529V37.2652L150.689 35.5713H147.302L143.916 38.959H142.223L140.53 40.6529V45.7346L142.223 47.4284V49.1223H147.302Z" fill="#EAEEF4"/>
<path d="M150.689 35.5715L148.996 33.8777V30.4899L150.689 28.796V22.0205H148.996L147.303 23.7144L145.609 25.4083H142.223V27.1021L138.837 30.4899H132.064L130.371 32.1838V35.5715L132.064 37.2654V42.347L133.758 44.0409H135.451L137.144 45.7348H140.53V40.6532L142.223 38.9593H143.916L147.303 35.5715H150.689Z" fill="#EAEEF4"/>
<path d="M130.371 35.5713H128.678L126.985 37.2652V38.9591H123.598L121.905 40.653V38.9591H120.212L118.519 37.2652V35.5713L116.826 33.8774V38.9591L115.133 40.653V44.0407H120.212V45.7346L121.905 47.4285L125.292 44.0407H126.985L128.678 42.3468H132.064V37.2652L130.371 35.5713Z" fill="#EAEEF4"/>
<path d="M130.371 32.1837H128.678L126.985 30.4899V27.1021L123.598 23.7144L120.212 27.1021H118.519L115.133 30.4899H113.44L116.826 33.8776L118.519 35.5715V37.2654L120.212 38.9593H121.905V40.6531L123.598 38.9593H126.985V37.2654L128.678 35.5715H130.371V32.1837Z" fill="#EAEEF4"/>
<path d="M113.44 30.4897L110.054 33.8775H104.974L103.281 35.5714H99.8949V38.9591L98.2018 40.653V42.3469L101.588 45.7346L104.974 42.3469H108.361L110.054 40.653H115.133L116.826 38.9591V33.8775L113.44 30.4897Z" fill="#EAEEF4"/>
<path d="M123.598 23.714V18.6324H121.905L120.212 16.9385H118.519L116.826 18.6324H115.133L113.439 20.3262H104.974L101.588 23.714V25.4079L99.8944 27.1017V30.4895L101.588 32.1834L99.8944 33.8773V35.5711H103.281L104.974 33.8773H110.053L113.439 30.4895H115.133L118.519 27.1017H120.212L123.598 23.714Z" fill="#EAEEF4"/>
<path d="M147.303 23.714L145.609 22.0201V20.3263L142.223 16.9385H140.53L138.837 15.2446H130.371L128.678 16.9385H125.292L123.599 18.6324V23.714L126.985 27.1018V30.4895L128.678 32.1834H130.371L132.064 30.4895H138.837L142.223 27.1018V25.4079H145.609L147.303 23.714Z" fill="#EAEEF4"/>
<path d="M120.212 16.9387V15.2448L121.905 13.5509V11.857L120.212 10.1631H116.826L115.133 8.46927H113.44L110.053 11.857H108.36V10.1631L106.667 8.46927V6.77539H103.281V10.1631L101.588 11.857V15.2448L103.281 16.9387V18.6325L104.974 20.3264H113.44L115.133 18.6325H116.826L118.519 16.9387H120.212Z" fill="#EAEEF4"/>
<path d="M155.768 59.2856L157.461 60.9795V66.0612V67.755L155.768 69.4489H152.382L150.689 71.1428H148.996L147.303 69.4489L145.609 67.755H143.916L142.223 66.0612L143.916 64.3673V62.6734L145.609 60.9795L147.303 62.6734H148.996L150.689 60.9795H154.075L155.768 59.2856Z" fill="#EAEEF4"/>
<path d="M155.768 69.4488V72.8365L157.461 74.5304L155.768 76.2243H152.382L150.688 74.5304H145.609L143.916 72.8365L145.609 71.1426V67.7549L148.995 71.1426H150.688L152.382 69.4488H155.768Z" fill="#EAEEF4"/>
<path d="M155.768 76.2243L157.461 77.9182V81.3059H159.154L160.847 79.612H165.926L167.62 77.9182V72.8365H165.926L164.233 71.1426H162.54L159.154 67.7549H157.461L155.768 69.4488V72.8365L157.461 74.5304L155.768 76.2243Z" fill="#EAEEF4"/>
<path d="M133.757 66.0611V67.7549L132.064 69.4488V71.1427L133.757 72.8366H137.143L138.837 74.5304H142.223L143.916 72.8366L145.609 71.1427V67.7549H143.916L142.223 66.0611H138.837L137.143 64.3672H133.757V66.0611Z" fill="#EAEEF4"/>
<path d="M132.064 71.1427H126.985L125.292 72.8366H121.906V67.7549L125.292 64.3672H130.371L132.064 66.0611H133.757V67.7549L132.064 69.4488V71.1427Z" fill="#EAEEF4"/>
<path d="M121.905 72.8365L120.212 74.5303V79.612L121.905 81.3058V84.6936L123.598 82.9997H125.292L126.985 84.6936H128.678V81.3058L133.757 76.2242V72.8365L132.064 71.1426H126.985L125.292 72.8365H121.905Z" fill="#EAEEF4"/>
<path d="M121.906 84.6939H118.52L116.826 86.3878H115.133L113.44 88.0816H111.747V93.1633L113.44 94.8571V96.551L115.133 98.2449H116.826L118.52 96.551H120.213L126.985 89.7755H128.678V84.6939H126.985L125.292 83H123.599L121.906 84.6939Z" fill="#EAEEF4"/>
<path d="M111.747 93.1632V89.7754L110.054 88.0815H106.667L103.281 91.4693H101.588V94.8571L103.281 96.5509L101.588 98.2448H96.5086V99.9387L98.2017 101.633H101.419L103.281 103.326H108.361L113.44 98.2448H115.133L113.44 96.5509V94.8571L111.747 93.1632Z" fill="#EAEEF4"/>
<path d="M104.974 103.327V106.714L103.281 108.408V110.102L101.588 111.796V113.49L99.8946 115.184L101.588 116.878H110.053V115.184L111.746 113.49V111.796V108.408L108.36 105.021V103.327H104.974Z" fill="#EAEEF4"/>
<path d="M111.747 111.796H115.133L116.826 110.102H121.905L123.599 108.408H126.985L125.292 106.714V103.326L123.599 101.632H118.519L115.133 98.2446H113.44L108.36 103.326V105.02L111.747 108.408V111.796Z" fill="#EAEEF4"/>
<path d="M125.292 103.326H126.985L128.678 101.633V99.9387L126.985 98.2448L128.678 96.5509H130.371V93.1631L128.678 91.4693V89.7754H126.985L120.212 96.5509H118.519L116.826 98.2448H115.133L118.519 101.633H123.599L125.292 103.326Z" fill="#EAEEF4"/>
<path d="M130.371 96.551H132.064L133.757 98.2449H135.451V99.9388H138.837L142.223 96.551H143.916V93.1632L145.609 91.4694V88.0816L143.916 86.3877H137.144L135.451 84.6938H128.678V91.4694L130.371 93.1632V96.551Z" fill="#EAEEF4"/>
<path d="M143.916 86.3879V84.6941L142.223 83.0002L143.916 81.3063V79.6124L145.609 77.9185L147.302 76.2247V74.5308H145.609L143.916 72.8369L142.223 74.5308H138.837L137.144 72.8369H133.757V76.2247L128.678 81.3063V84.6941H135.451L137.144 86.3879H143.916Z" fill="#EAEEF4"/>
<path d="M157.461 81.3063H155.768L154.075 83.0001V84.694L152.382 86.3879H150.689L148.996 88.0818H147.303L145.609 89.7757V88.0818L143.916 86.3879V84.694L142.223 83.0001L143.916 81.3063V79.6124L147.303 76.2246V74.5308H150.689L152.382 76.2246H155.768L157.461 77.9185V81.3063Z" fill="#EAEEF4"/>
<path d="M154.075 84.6939V89.7755L155.768 91.4694V93.1633H162.541L164.234 91.4694V88.0817L160.848 84.6939H159.154L157.461 83V81.3062H155.768L154.075 83V84.6939Z" fill="#EAEEF4"/>
<path d="M164.234 88.0817L165.927 86.3878H167.62L169.313 84.6939V81.3062H167.62L165.927 79.6123H160.847L159.154 81.3062H157.461V83.0001L159.154 84.6939H160.847L164.234 88.0817Z" fill="#EAEEF4"/>
<path d="M169.313 81.3062H174.392L176.085 83H177.779L179.472 84.6939V88.0817L174.392 93.1633H165.927L164.234 91.4694V88.0817L165.927 86.3878H167.62L169.313 84.6939V81.3062Z" fill="#EAEEF4"/>
<path d="M179.472 88.0815L182.858 91.4693H184.551V94.8571L177.778 101.633L176.085 99.9387V98.2448L174.392 96.5509V93.1632L179.472 88.0815Z" fill="#EAEEF4"/>
<path d="M177.779 101.632L174.392 105.02H169.313L165.927 101.632H164.234V99.9386L165.927 98.2447V93.1631H174.392V96.5508L176.085 98.2447V99.9386L177.779 101.632Z" fill="#EAEEF4"/>
<path d="M164.234 101.632H160.847L159.154 103.326H154.075L152.382 101.632V98.2447L155.768 94.857V93.1631H162.54L164.234 91.4692L165.927 93.1631V98.2447L164.234 99.9386V101.632Z" fill="#EAEEF4"/>
<path d="M152.382 98.2449H145.609L143.916 96.551V93.1632L145.609 91.4694V89.7755L147.302 88.0816H148.995L150.688 86.3877H152.382L154.075 84.6938V89.7755L155.768 91.4694V93.1632V94.8571L152.382 98.2449Z" fill="#EAEEF4"/>
<path d="M154.074 103.326L152.381 105.02H150.688L147.302 108.408H145.609L143.916 106.714L142.223 105.02V103.326L145.609 99.9385V98.2446H152.381V101.632L154.074 103.326Z" fill="#EAEEF4"/>
<path d="M159.154 103.326V105.02L157.461 106.714V108.408L155.768 110.102V111.796H154.074L150.688 115.183V116.877H148.995L147.302 115.183V113.489L142.223 108.408L143.916 106.714L145.609 108.408H147.302L150.688 105.02H152.381L154.074 103.326H159.154Z" fill="#EAEEF4"/>
<path d="M142.223 108.408H140.53V111.796L138.837 110.102H137.143L135.45 108.408H126.985L125.292 106.714V103.326H126.985L128.678 101.632V99.9385L126.985 98.2447L128.678 96.5508H132.064L133.757 98.2447H135.45V99.9385H138.837L142.223 96.5508H143.916L145.609 98.2447V99.9385L142.223 103.326V105.02L143.916 106.714L142.223 108.408Z" fill="#EAEEF4"/>
<path d="M140.529 111.795L138.836 113.489V115.183L137.143 116.877V121.959H133.757L132.063 120.265H130.37L128.677 118.571H126.984L121.905 113.489V111.795L120.212 110.102H121.905L123.598 108.408H135.45L137.143 110.102H138.836L140.529 111.795Z" fill="#EAEEF4"/>
<path d="M132.064 120.265L130.371 121.959V127.04L128.677 125.346H125.291L123.598 127.04H121.905L120.212 125.346V123.653L118.519 121.959H116.826V120.265L118.519 118.571L116.826 116.877V115.183L115.132 113.489V111.795L116.826 110.102H120.212L121.905 111.795V113.489L126.984 118.571H128.677L130.371 120.265H132.064Z" fill="#EAEEF4"/>
<path d="M116.826 121.959L115.132 123.653H111.746L110.053 121.959H108.36L106.667 123.653H101.587V120.265L103.28 118.571V116.878H110.053V115.184L111.746 113.49V111.796H115.132V113.49L116.826 115.184V116.878L118.519 118.571L116.826 120.265V121.959Z" fill="#EAEEF4"/>
<path d="M101.587 123.653L99.8943 125.347V127.041L96.508 130.428V135.51L98.2012 137.204V138.898H103.281L104.974 137.204H106.667L108.36 135.51H113.439V132.122L111.746 130.428V128.734L113.439 127.041V123.653H111.746L110.053 121.959H108.36L106.667 123.653H101.587Z" fill="#EAEEF4"/>
<path d="M99.8945 125.347H96.5082L94.8151 123.653H93.122V125.347H88.0426L86.3495 123.653V121.959H84.6563L81.2701 125.347V127.041L79.577 128.734L81.2701 130.428H82.9632L84.6563 132.122V137.204L86.3495 138.898V140.592L84.6563 142.286V145.673L88.0426 142.286H89.7357L91.4289 140.592H94.8151L96.5082 138.898H98.2014V137.204L96.5082 135.51V130.428L99.8945 127.041V125.347Z" fill="#EAEEF4"/>
<path d="M84.6561 145.673V152.449H88.0424V155.837H89.7355L91.4286 154.143H94.8149L98.2011 150.755H99.8943V152.449L101.587 154.143H103.281L104.974 152.449V149.061L108.36 145.673V142.286L106.667 140.592H104.974L103.281 138.898H96.508L94.8149 140.592H91.4286L89.7355 142.286H88.0424L84.6561 145.673Z" fill="#EAEEF4"/>
<path d="M123.598 145.673L125.291 143.979V142.286L130.371 137.204L126.985 133.816L128.678 132.122V130.428L130.371 128.734V127.041L128.678 125.347H125.291L123.598 127.041H121.905L120.212 125.347V123.653L118.519 121.959H116.826L115.133 123.653H113.44V127.041L111.746 128.734V130.428L113.44 132.122V135.51H116.826L120.212 138.898V140.592L123.598 143.979V145.673Z" fill="#EAEEF4"/>
<path d="M108.36 145.673H110.053L111.746 143.979H118.519H120.212L121.905 145.673H123.598V143.979L120.212 140.591V138.898L116.826 135.51H113.439H108.36L106.667 137.204H104.974L103.281 138.898L104.974 140.591H106.667L108.36 142.285V145.673Z" fill="#EAEEF4"/>
<path d="M118.519 143.979V145.673L116.826 147.367V150.755H115.132V152.449L113.439 154.143H111.746L110.053 155.837V159.224H108.36L106.667 157.531V154.143H103.281L104.974 152.449V149.061L108.36 145.673H110.053L111.746 143.979H118.519Z" fill="#EAEEF4"/>
<path d="M116.826 150.755V154.143L118.519 155.837V159.224H121.905L125.291 155.837H126.985L128.678 157.531H132.064L128.678 154.143V152.449L125.291 149.061V147.367H123.598V145.673H121.905L120.212 143.979H118.519V145.673L116.826 147.367V150.755Z" fill="#EAEEF4"/>
<path d="M132.064 157.53L133.757 155.836H135.45V154.142L133.757 152.449V150.755L132.064 149.061L133.757 147.367V145.673L135.45 143.979V142.285L138.836 138.898V137.204H137.143L135.45 135.51V133.816H133.757L130.371 137.204L125.291 142.285V143.979L123.598 145.673V147.367H125.291V149.061L128.678 152.449V154.142L132.064 157.53Z" fill="#EAEEF4"/>
<path d="M135.45 155.837L138.837 159.224V160.918L142.223 164.306L143.916 162.612V155.837L142.223 154.143V152.449L143.916 150.755V149.061L142.223 147.367V145.673L140.53 143.98V140.592L138.837 138.898L135.45 142.286V143.98L133.757 145.673V147.367L132.064 149.061L133.757 150.755V152.449L135.45 154.143V155.837Z" fill="#EAEEF4"/>
<path d="M138.836 137.204H142.222L145.609 133.816L143.916 132.122L145.609 130.428V128.735L142.222 125.347V123.653H138.836L137.143 121.959H133.757L132.064 120.265L130.371 121.959V128.735L128.677 130.428V132.122L126.984 133.816L130.371 137.204L133.757 133.816H135.45V135.51L137.143 137.204H138.836Z" fill="#EAEEF4"/>
<path d="M143.915 149.061L145.609 147.367V143.979L150.688 138.898V137.204H148.995L145.609 133.816L142.222 137.204H138.836V138.898L140.529 140.591V143.979L142.222 145.673V147.367L143.915 149.061Z" fill="#EAEEF4"/>
<path d="M142.223 123.653H143.916L145.609 121.959H148.995L150.688 120.265V116.877H148.995L147.302 115.183V113.489L142.223 108.408H140.53V111.795L138.837 113.489V115.183L137.143 116.877V121.959L138.837 123.653H142.223Z" fill="#EAEEF4"/>
<path d="M150.688 120.265L155.768 125.347V132.122L159.154 135.51L157.461 137.204V138.898H155.768L154.074 137.204H150.688H148.995L143.916 132.122L145.609 130.428V128.735L142.223 125.347V123.653H143.916L145.609 121.959H148.995L150.688 120.265Z" fill="#EAEEF4"/>
<path d="M155.768 125.346V123.653L157.461 121.959H159.154L162.54 118.571V115.183L160.847 113.489V111.795L157.461 108.408L155.768 110.102V111.795H154.075L150.688 115.183V116.877V120.265L155.768 125.346Z" fill="#EAEEF4"/>
<path d="M162.54 118.571V120.265L164.233 121.959L162.54 123.653V128.735L165.927 132.122V133.816L167.62 135.51V137.204H164.233L162.54 135.51H159.154L155.768 132.122V125.347V123.653L157.461 121.959H159.154L162.54 118.571Z" fill="#EAEEF4"/>
<path d="M79.5768 128.734L77.8837 127.04V125.346L76.1906 123.653V116.877L74.4975 115.183L76.1906 113.489H77.8837V110.102H84.6562L86.3493 111.795H88.0425L89.7356 113.489V116.877L91.4287 118.571V120.265L93.1218 121.959V123.653V125.346H88.0425L86.3493 123.653V121.959H84.6562L81.27 125.346V127.04L79.5768 128.734Z" fill="#EAEEF4"/>
<path d="M88.0427 111.795L91.429 108.408H93.1221L94.8152 110.102H96.5083L98.2015 111.795H99.8946L101.588 113.489L99.8946 115.183L101.588 116.877H103.281V118.571L101.588 120.265V123.653L99.8946 125.346H96.5083L94.8152 123.653H93.1221V121.959L91.429 120.265V118.571L89.7358 116.877V113.489L88.0427 111.795Z" fill="#EAEEF4"/>
<path d="M93.1224 108.408V105.02L94.8155 103.326V101.632H91.4293V99.9385L93.1224 98.2447V96.5508H94.8155L96.5086 98.2447V99.9385L98.2018 101.632H101.419L103.281 103.326H104.974V106.714L103.281 108.408V110.102L101.588 111.796V113.49L99.8949 111.796H98.2018L96.5086 110.102H94.8155L93.1224 108.408Z" fill="#EAEEF4"/>
<path d="M91.429 99.9383L89.7359 98.2444H88.0428L86.3497 96.5505V94.8567L88.0428 93.1628L86.3497 91.4689V89.775L84.6565 88.0811V86.3873H88.0428L89.7359 84.6934V82.9995H91.429L94.8153 86.3873H96.5084L98.2016 88.0811H99.8947L101.588 86.3873L104.974 89.775L103.281 91.4689H101.588V94.8567L103.281 96.5505L101.588 98.2444H96.5084L94.8153 96.5505H93.1222V98.2444L91.429 99.9383Z" fill="#EAEEF4"/>
<path d="M91.4293 82.9996L93.1224 81.3058H96.5086L99.8949 77.918H103.281L104.974 76.2241H106.667V77.918L108.361 79.6119V82.9996L110.054 84.6935V88.0813H106.667L104.974 89.7751L101.588 86.3874L99.8949 88.0813H98.2018L96.5086 86.3874H94.8155L91.4293 82.9996Z" fill="#EAEEF4"/>
<path d="M106.667 76.2242L108.36 74.5303H111.746L113.44 72.8364H116.826L120.212 76.2242V79.6119L121.905 81.3058V84.6936H118.519L116.826 86.3874H115.133L113.44 88.0813H111.746V89.7752L110.053 88.0813V84.6936L108.36 82.9997V79.6119L106.667 77.9181V76.2242Z" fill="#EAEEF4"/>
<path d="M113.44 72.8362V69.4485L111.747 67.7546V64.3668L110.054 62.673V57.5913L111.747 55.8975H121.906V62.673L120.212 64.3668V67.7546H121.906V72.8362L120.212 74.5301V76.224L116.826 72.8362H113.44Z" fill="#EAEEF4"/>
<path d="M104.974 76.224L103.281 74.5301V72.8363L98.2013 67.7546V64.3669L96.5081 62.673L98.2013 60.9791L94.815 57.5914L93.1219 55.8975V54.2036H98.2013L101.588 57.5914L103.281 55.8975V54.2036H106.667V55.8975L108.36 57.5914H110.053V62.673L111.746 64.3669V67.7546L113.439 69.4485V72.8363L111.746 74.5301H108.36L106.667 76.224H104.974Z" fill="#EAEEF4"/>
<path d="M93.1221 81.3059V77.9182L91.429 76.2243V74.5304L89.7359 72.8365L91.429 71.1426H93.1221L96.5084 67.7549H98.2015L103.281 72.8365V74.5304L104.974 76.2243L103.281 77.9182H99.8946L96.5084 81.3059H93.1221Z" fill="#EAEEF4"/>
<path d="M89.7359 72.8363L88.0427 71.1424H86.3496V69.4485L82.9634 66.0608L84.6565 64.3669V55.8975L88.0427 52.5098L89.7359 54.2036H93.1221V55.8975L98.2015 60.9791L96.5084 62.673L98.2015 64.3669V67.7547H96.5084L93.1221 71.1424H91.429L89.7359 72.8363Z" fill="#EAEEF4"/>
<path d="M84.6562 49.1222V50.8161L82.9631 52.5099H81.27L79.5769 54.2038H77.8837L76.1906 52.5099H74.4975L72.8044 50.8161H67.725L66.0319 52.5099V50.8161L64.3387 49.1222H62.6456V45.7344L64.3387 44.0406H76.1906L77.8837 42.3467H79.5769V44.0406L81.27 45.7344H82.9631L84.6562 47.4283V49.1222Z" fill="#EAEEF4"/>
<path d="M67.7253 60.9792H71.1115L72.8046 62.6731H74.4978L76.1909 64.367H79.5771L81.2703 66.0608H82.9634L84.6565 64.367V55.8976L88.0428 52.5098V50.8159L86.3496 49.1221H84.6565V50.8159L82.9634 52.5098H81.2703L79.5771 54.2037H77.884L76.1909 52.5098H74.4978L72.8046 50.8159H67.7253L66.0321 52.5098L67.7253 54.2037H69.4184V57.5915L67.7253 59.2853V60.9792Z" fill="#EAEEF4"/>
<path d="M81.2702 66.0611V69.4489L77.884 72.8366H72.8046L71.1115 71.1428H69.4183L64.339 66.0611L66.0321 64.3672V62.6734L67.7252 60.9795H71.1115L72.8046 62.6734H74.4977L76.1908 64.3672H79.5771L81.2702 66.0611Z" fill="#EAEEF4"/>
<path d="M77.884 72.8365V74.5304L76.1908 76.2243V77.9182L77.884 79.6121H79.5771L82.9633 82.9998V84.6937L84.6565 86.3876H88.0427L89.7358 84.6937V82.9998H91.429L93.1221 81.3059V77.9182L91.429 76.2243V74.5304L89.7358 72.8365L88.0427 71.1427H86.3496V69.4488L82.9633 66.061H81.2702V69.4488L77.884 72.8365Z" fill="#EAEEF4"/>
<path d="M76.1908 77.9182H74.4977L72.8046 79.6121H64.3389L62.6458 77.9182L64.3389 76.2243V74.5304H62.6458V72.8365H59.2595V71.1427H57.5664V69.4488L59.2595 67.7549H62.6458L64.3389 66.061L69.4183 71.1427H71.1114L72.8046 72.8365H77.8839V74.5304L76.1908 76.2243V77.9182Z" fill="#EAEEF4"/>
<path d="M66.0318 94.8567V96.5506H72.8043V94.8567L74.4974 93.1629V89.7751L72.8043 88.0812V84.6935L74.4974 82.9996V81.3057L72.8043 79.6118H64.3387L62.6455 77.918L60.9524 79.6118V82.9996L62.6455 84.6935V86.3874H64.3387L66.0318 88.0812V94.8567Z" fill="#EAEEF4"/>
<path d="M74.498 91.469H76.1911L77.8842 89.7751H81.2705L82.9636 88.0812V86.3874H84.6567L82.9636 84.6935V82.9996L79.5773 79.6118H77.8842L76.1911 77.918H74.498L72.8048 79.6118L74.498 81.3057V82.9996L72.8048 84.6935V88.0812L74.498 89.7751V91.469Z" fill="#EAEEF4"/>
<path d="M72.8048 94.8571L74.498 96.551H77.8842L79.5773 98.2448L81.2705 96.551H82.9636L84.6567 94.8571H86.3499L88.043 93.1632L86.3499 91.4693V89.7754L84.6567 88.0816V86.3877H82.9636V88.0816L81.2705 89.7754H77.8842L76.1911 91.4693H74.498V93.1632L72.8048 94.8571Z" fill="#EAEEF4"/>
<path d="M82.9634 96.5508V98.2447L84.6565 99.9386L77.884 106.714V110.102H84.6565L86.3496 111.796H88.0428L91.429 108.408H93.1222V105.02L94.8153 103.326V101.632H91.429V99.9386L89.7359 98.2447H88.0428L86.3496 96.5508V94.8569H84.6565L82.9634 96.5508Z" fill="#EAEEF4"/>
<path d="M76.191 113.49L72.8048 110.102V108.408L71.1117 106.714V105.02L72.8048 103.326V96.5508V94.8569L74.4979 96.5508H77.8842L79.5773 98.2447L81.2704 96.5508H82.9636V98.2447L84.6567 99.9386L77.8842 106.714V110.102V113.49H76.191Z" fill="#EAEEF4"/>
<path d="M62.6455 96.5508V98.2447L60.9524 99.9386V101.632L62.7471 103.326H67.7249L69.418 105.02H71.1112L72.8043 103.326V96.5508H66.0318V94.8569H64.3387L62.6455 96.5508Z" fill="#EAEEF4"/>
<path d="M64.3387 103.326L66.0318 105.02L62.6456 108.408L64.3387 110.102V113.489L66.0318 111.796H67.725L71.1112 115.183H74.4975L76.1906 113.489L72.8043 110.102V108.408L71.1112 106.714V105.02H69.4181L67.725 103.326H64.3387Z" fill="#EAEEF4"/>
<path d="M62.7474 103.326H59.2595L57.5664 105.02V108.408L55.8733 110.102H54.1802L52.487 111.796H50.7939L47.4077 108.408H45.7145L47.4077 106.714V99.9386L49.1008 98.2447V96.5508L50.7939 94.8569H54.1802H59.2595L60.9527 96.5508H62.6458V98.2447L60.9527 99.9386V101.632L62.7474 103.326Z" fill="#EAEEF4"/>
<path d="M52.4872 111.796V113.489L55.8735 116.877V118.571L59.2598 115.183H60.9529L62.646 113.489H64.3391V110.102L62.646 108.408L66.0323 105.02L64.3391 103.326H59.2598L57.5666 105.02V108.408L55.8735 110.102H54.1804L52.4872 111.796Z" fill="#EAEEF4"/>
<path d="M55.8732 118.571L59.2595 121.959H62.6457L64.3389 123.653H66.032L67.7251 125.347L69.4182 123.653V120.265L72.8045 116.878H74.4976H76.1908L74.4976 115.184H71.1114L67.7251 111.796H66.032L64.3389 113.49H62.6457L60.9526 115.184H59.2595L55.8732 118.571Z" fill="#EAEEF4"/>
<path d="M67.7252 125.347H66.0321L64.3389 127.041V128.735L66.0321 130.428V132.122L67.7252 133.816H69.4183L71.1115 135.51H84.6565V132.122L82.9634 130.428H81.2702L79.5771 128.735L77.884 127.041V125.347L76.1908 123.653V116.877H72.8046L69.4183 120.265V123.653L67.7252 125.347Z" fill="#EAEEF4"/>
<path d="M71.1114 135.51L69.4183 137.204H67.7252L66.032 138.898H64.3389L62.6458 140.591L64.3389 142.285V143.979L66.032 145.673H69.4183L71.1114 147.367H77.8839L79.577 149.061V150.755L81.2702 152.449H84.6564V145.673V142.285L86.3495 140.591V138.898L84.6564 137.204V135.51H71.1114Z" fill="#EAEEF4"/>
<path d="M59.2597 121.959V123.653L57.5666 125.347H50.7941V130.428H52.4872L54.1803 132.122L52.4872 133.816V135.51L50.7941 137.204V140.592L52.4872 142.286H57.5666L59.2597 143.979H64.3391V142.286L62.646 140.592L64.3391 138.898H66.0322L67.7253 137.204H69.4185L71.1116 135.51L69.4185 133.816H67.7253L66.0322 132.122V130.428L64.3391 128.734V127.041L66.0322 125.347H67.7253L66.0322 123.653H64.3391L62.646 121.959H59.2597Z" fill="#EAEEF4"/>
<path d="M50.7943 127.04L49.1012 125.346H47.4081L45.715 123.653H44.0218L38.9424 118.571H35.5562V115.183L38.9424 111.795H42.3287V110.102L44.0218 108.408H45.715H47.4081L50.7943 111.795H52.4875V113.489L55.8737 116.877V118.571L59.26 121.959V123.653L57.5668 125.346H50.7943V127.04Z" fill="#EAEEF4"/>
<path d="M47.4074 125.347H45.7142L44.0211 127.041V128.734L45.7142 130.428L44.0211 132.122V135.51L42.328 137.204V140.592L44.0211 142.285H49.1005L50.7936 140.592V137.204L52.4867 135.51V133.816L54.1799 132.122L52.4867 130.428H50.7936V127.041L49.1005 125.347H47.4074Z" fill="#EAEEF4"/>
<path d="M44.0213 127.041H38.9419L37.2488 128.735H33.8625L32.1694 127.041V125.347V123.653L30.4763 121.959V120.265L32.1694 118.571H35.5557H38.9419L44.0213 123.653H45.7144L47.4075 125.347H45.7144L44.0213 127.041Z" fill="#EAEEF4"/>
<path d="M32.1699 125.346H30.4768L28.7837 127.04L27.0906 125.346H25.3974L23.7043 127.04H22.0112L18.6249 123.653V121.959L16.9318 120.265V118.571V115.183H18.6249L20.318 113.489L22.0112 115.183H25.3974L27.0906 116.877L28.7837 115.183V111.795L30.4768 110.102L32.1699 108.408H35.5562V110.102L37.2493 111.795H38.9424L35.5562 115.183V118.571H32.1699L30.4768 120.265V121.959L32.1699 123.653V125.346Z" fill="#EAEEF4"/>
<path d="M16.9315 118.571H13.5452L11.8521 120.265H8.46586L5.07961 123.653V125.347L3.38649 127.041V128.735L1.69336 130.428L3.38649 132.122H5.07961L6.77274 133.816V130.428L8.46586 128.735H10.159L13.5452 132.122H15.2384V128.735H18.6246L20.3177 127.041H22.0109L18.6246 123.653V121.959L16.9315 120.265V118.571Z" fill="#EAEEF4"/>
<path d="M6.77252 133.816L8.46565 135.51H10.1588V137.204L11.8519 138.898V140.592L10.1588 142.285V147.367L8.46565 149.061V154.143L10.1588 155.836V152.449L11.8519 150.755H13.545V147.367L15.2382 145.673V143.979L16.9313 142.285V140.592L18.6244 138.898H20.3175L16.9313 135.51V133.816L15.2382 132.122H13.545L10.1588 128.734H8.46565L6.77252 130.428V133.816Z" fill="#EAEEF4"/>
<path d="M20.318 138.898H22.0111V137.204L23.7042 135.51L22.0111 133.816V132.122L20.318 130.428V127.041L18.6249 128.734H15.2386V132.122L16.9317 133.816V135.51L20.318 138.898Z" fill="#EAEEF4"/>
<path d="M13.5452 150.755H15.2384L16.9315 152.449V154.143H18.6246L20.3177 152.449L25.3971 147.367V142.286L27.0902 140.592L25.3971 138.898H22.0109H20.3177H18.6246L16.9315 140.592V142.286L15.2384 143.98V145.673L13.5452 147.367V150.755Z" fill="#EAEEF4"/>
<path d="M25.3972 142.285H32.1697L33.8628 140.592V138.898L32.1697 137.204V128.734H33.8628L32.1697 127.041V125.347H30.4765L28.7834 127.041L27.0903 125.347H25.3972L23.704 127.041H20.3178V130.428L22.0109 132.122V133.816L23.704 135.51L22.0109 137.204V138.898H25.3972L27.0903 140.592L25.3972 142.285Z" fill="#EAEEF4"/>
<path d="M32.1696 142.285H37.249L38.9422 140.592H42.3284V137.204L44.0215 135.51V132.122L45.7147 130.428L44.0215 128.734V127.041H38.9422L37.249 128.734H33.8628H32.1696V137.204L33.8628 138.898V140.592L32.1696 142.285Z" fill="#EAEEF4"/>
<path d="M67.7253 54.2038L66.0322 52.5099V50.8161L64.3391 49.1222H62.646V45.7344L59.2597 42.3467L57.5666 44.0406H54.1803L52.4872 45.7344V47.4283L50.7941 49.1222V55.8977L49.1009 57.5916V60.9793L47.4078 62.6732L49.1009 64.3671H50.7941L52.4872 66.061V67.7548V69.4487H50.7941L49.1009 71.1426H47.4078L45.6131 69.4487L47.4078 67.7548V66.061L45.7147 64.3671L44.0216 66.061H42.3284L38.9422 69.4487H35.5559L33.8628 71.1426V74.5304L32.1697 76.2242L30.4766 74.5304L28.7834 76.2242H27.0903L25.3972 77.9181H22.0109L20.3178 76.2242H16.9315L15.2384 77.9181H11.8522L10.159 76.2242H8.46591V79.612L10.159 81.3059V88.0814L11.8522 89.7753V93.163L13.5453 94.8569V96.5508V98.2446L15.2384 99.9385V105.02L16.9315 106.714V115.183H18.6247L20.3178 113.49L22.0109 115.183H25.3972L27.0903 116.877L28.7834 115.183V111.796L30.4766 110.102L32.1697 108.408H35.5559V110.102L37.2491 111.796H42.3284V110.102L44.0216 108.408H45.7147L47.4078 106.714V99.9385L49.1009 98.2446V96.5508L50.7941 94.8569H54.1803H59.2597L60.9528 96.5508H62.646L64.3391 94.8569H66.0322V88.0814L64.3391 86.3875H62.646V84.6936L60.9528 82.9997V81.3059V79.612L64.3391 76.2242V74.5304H62.646V72.8365H59.2597V71.1426H57.5666V69.4487L59.2597 67.7548H62.646L66.0322 64.3671V62.6732L67.7253 60.9793V59.2855L69.4185 57.5916V54.2038H67.7253Z" fill="#EAEEF4"/>
<path d="M155.768 55.8979V52.5101H152.382L150.689 50.8162H148.996L147.302 49.1224V47.4285L148.996 45.7346V44.0407H150.689V42.3468L152.382 40.653V37.2652L150.689 35.5713L148.996 33.8775V30.4897L150.689 28.7958V22.0203H148.996L147.302 23.7142L145.609 22.0203V20.3264L142.223 16.9387H140.53L138.837 15.2448H130.371L128.678 16.9387H125.292L123.599 18.6326H121.905L120.212 16.9387V15.2448L121.905 13.5509V11.8571L120.212 10.1632H116.826L115.133 8.4693H113.44L110.054 11.8571H108.36V10.1632L106.667 8.4693V6.77542H103.281H101.588L99.8948 8.4693L98.2017 6.77542V5.08154H94.8154L91.4292 8.4693V10.1632L89.7361 11.8571H88.0429L86.3498 13.5509V16.9387H84.6567H81.2704L79.5773 15.2448H76.191L71.1117 20.3264H67.7254V23.7142L66.0323 25.4081V28.7958L64.3392 30.4897L66.0323 32.1836H71.1117L72.8048 33.8775H71.1117L69.4185 35.5713V37.2652H62.646L60.9529 38.9591V40.653L59.2598 42.3468L62.646 45.7346L64.3392 44.0407H76.191L77.8842 42.3468H79.5773V44.0407L81.2704 45.7346H82.9636L84.6567 47.4285V49.1224H86.3498L88.0429 50.8162V52.5101L89.7361 54.204H98.2017L101.588 57.5917L103.281 55.8979V54.204H106.667V55.8979L108.36 57.5917H110.054L111.747 55.8979H121.905V62.6734L120.212 64.3672V67.755H121.905L125.292 64.3672H130.371L132.064 66.0611H133.757V64.3672H137.144L138.837 66.0611H142.223L143.916 64.3672V62.6734L145.609 60.9795L147.302 62.6734H148.996L150.689 60.9795H154.075L155.768 59.2856H154.075V57.5917L155.768 55.8979Z" fill="#EAEEF4"/>
<path d="M182.858 91.4693L179.472 88.0816V84.6938L177.779 82.9999H176.086L174.392 81.3061H169.313H167.62L165.927 79.6122L167.62 77.9183V72.8367H165.927L164.234 71.1428H162.541L159.154 67.755H157.461V66.0612V60.9795L155.768 59.2856L154.075 60.9795H150.689L148.996 62.6734H147.302L145.609 60.9795L143.916 62.6734V64.3673L142.223 66.0612H138.837L137.144 64.3673H133.757V66.0612H132.064L130.371 64.3673H125.292L121.906 67.755V72.8367L120.212 74.5305V79.6122L121.906 81.3061V84.6938H118.519L116.826 86.3877H115.133L113.44 88.0816H111.747V89.7755L110.054 88.0816H106.667L103.281 91.4693H101.588V94.8571L103.281 96.551L101.588 98.2448H96.5086V99.9387L98.2017 101.633H101.419L103.281 103.326H104.974V106.714L103.281 108.408V110.102L101.588 111.796V113.49L99.8949 115.184L101.588 116.878H110.054V115.184L111.747 113.49V111.796H115.133L116.826 110.102H121.906L123.599 108.408H126.985L125.292 106.714V103.326H126.985L128.678 101.633V99.9387L126.985 98.2448L128.678 96.551H130.371H132.064L133.757 98.2448H135.451V99.9387H138.837L142.223 96.551H143.916L145.609 98.2448H152.382V101.633L154.075 103.326H159.154L160.847 101.633H164.234H165.927L169.313 105.02H174.392L177.779 101.633L184.551 94.8571V91.4693H182.858Z" fill="#EAEEF4"/>
<path d="M165.926 133.816V132.122L162.54 128.734V123.653L164.233 121.959L162.54 120.265V118.571V115.183L160.847 113.49V111.796L157.461 108.408V106.714L159.154 105.02V103.326H154.075L152.381 101.632V98.2447H145.609L143.916 96.5508H142.223L138.836 99.9385H135.45V98.2447H133.757L132.064 96.5508H128.678L126.985 98.2447L128.678 99.9385V101.632L126.985 103.326H125.291V106.714L126.985 108.408H123.598L121.905 110.102H120.212H116.826L115.133 111.796H111.746V113.49L110.053 115.183V116.877H103.281V118.571L101.588 120.265V123.653L99.8945 125.347H96.5082L94.8151 123.653H93.122V125.347H88.0426L86.3495 123.653V121.959H84.6563L81.2701 125.347V127.041L79.577 128.734L81.2701 130.428H82.9632L84.6563 132.122V137.204L86.3495 138.898V140.592L84.6563 142.285V145.673V152.449H88.0426V155.837H89.7357L91.4288 154.143H94.8151L98.2014 150.755H99.8945V152.449L101.588 154.143H103.281H106.667V157.53L108.36 159.224H110.053V155.837L111.746 154.143H113.439L115.133 152.449V150.755H116.826V154.143L118.519 155.837V159.224H121.905L125.291 155.837H126.985L128.678 157.53H132.064L133.757 155.837H135.45L138.836 159.224V160.918L142.223 164.306L143.916 162.612V155.837L142.223 154.143V152.449L143.916 150.755V149.061L145.609 147.367V143.979L150.688 138.898V137.204H154.075L155.768 138.898H157.461V137.204L159.154 135.51H162.54L164.233 137.204H167.62V135.51L165.926 133.816Z" fill="#EAEEF4"/>
<path d="M121.905 62.6732V55.8977H111.746L110.053 57.5916H108.36L106.667 55.8977V54.2038H103.281V55.8977L101.588 57.5916L98.2015 54.2038H93.1221H89.7358L88.0427 52.5099V50.8161L86.3496 49.1222H84.6564V47.4283L82.9633 45.7344H81.2702L79.5771 44.0406V42.3467H77.8839L76.1908 44.0406H64.3389L62.6458 45.7344V49.1222H64.3389L66.0321 50.8161V52.5099L67.7252 54.2038H69.4183V57.5916L67.7252 59.2855V60.9793L66.0321 62.6732V64.3671L64.3389 66.061L62.6458 67.7548H59.2595L57.5664 69.4487V71.1426H59.2595V72.8365H62.6458V74.5304H64.3389V76.2242L62.6458 77.9181L60.9527 79.612V82.9997L62.6458 84.6936V86.3875H64.3389L66.0321 88.0814V94.8569H64.3389L62.6458 96.5508V98.2446L60.9527 99.9385V101.632L62.7474 103.326H64.3389L66.0321 105.02L62.6458 108.408L64.3389 110.102V113.49L66.0321 111.796H67.7252L71.1114 115.183H74.4977L76.1908 116.877V123.653L77.8839 125.347V127.041L79.5771 128.734L81.2702 127.041V125.347L84.6564 121.959H86.3496V123.653L88.0427 125.347H93.1221V123.653H94.8152L96.5083 125.347H99.8946L101.588 123.653V120.265L103.281 118.571V116.877H101.588L99.8946 115.183L101.588 113.49V111.796L103.281 110.102V108.408L104.974 106.714V103.326H103.281L101.418 101.632H98.2015L96.5083 99.9385V98.2446H101.588L103.281 96.5508L101.588 94.8569V91.4691H103.281L104.974 89.7753L106.667 88.0814H110.053L111.746 89.7753V88.0814H113.44L115.133 86.3875H116.826L118.519 84.6936H121.905V81.3059L120.212 79.612V76.2242V74.5304L121.905 72.8365V67.7548H120.212V64.3671L121.905 62.6732Z" fill="#EAEEF4"/>
<path d="M84.6565 137.204V135.51V132.122L82.9634 130.428H81.2703L79.5772 128.734L77.884 127.041V125.347L76.1909 123.653V116.877L74.4978 115.183H71.1115L67.7253 111.796H66.0322L64.339 113.49V110.102L62.6459 108.408L66.0322 105.02L64.339 103.326H62.7475L60.9528 101.632V99.9386L62.6459 98.2447V96.5508H60.9528L59.2597 94.8569H54.1803H50.794L49.1009 96.5508V98.2447L47.4078 99.9386V106.714L45.7146 108.408H44.0215L42.3284 110.102V111.796H38.9421H37.249L35.5559 110.102V108.408H32.1696L30.4765 110.102L28.7834 111.796V115.183L27.0903 116.877L25.3971 115.183H22.0109L20.3177 113.49L18.6246 115.183H16.9315V118.571H13.5452L11.8521 120.265H8.46586L5.07961 123.653V125.347L3.38649 127.041V128.734L1.69336 130.428L3.38649 132.122H5.07961L6.77274 133.816L8.46586 135.51H10.159V137.204L11.8521 138.898V140.592L10.159 142.285V147.367L8.46586 149.061V154.143L10.159 155.837V152.449L11.8521 150.755H13.5452H15.2384L16.9315 152.449V154.143H18.6246L20.3177 152.449L25.3971 147.367V142.285H32.1696H37.249L38.9421 140.592H42.3284L44.0215 142.285H49.1009L50.794 140.592L52.4871 142.285H57.5665L59.2597 143.979H64.339L66.0322 145.673H69.4184L71.1115 147.367H77.884L79.5772 149.061V150.755L81.2703 152.449H84.6565V145.673V142.285L86.3497 140.592V138.898L84.6565 137.204Z" fill="#EAEEF4"/>
<path d="M57.5666 136.865C58.3146 136.865 58.9211 136.259 58.9211 135.51C58.9211 134.762 58.3146 134.155 57.5666 134.155C56.8185 134.155 56.2121 134.762 56.2121 135.51C56.2121 136.259 56.8185 136.865 57.5666 136.865Z" fill="#EAEEF4"/>
<path d="M55.8732 104.682C56.6212 104.682 57.2277 104.075 57.2277 103.327C57.2277 102.578 56.6212 101.972 55.8732 101.972C55.1251 101.972 54.5187 102.578 54.5187 103.327C54.5187 104.075 55.1251 104.682 55.8732 104.682Z" fill="#EAEEF4"/>
<path d="M99.8947 72.4983C100.643 72.4983 101.249 71.8916 101.249 71.1432C101.249 70.3948 100.643 69.7881 99.8947 69.7881C99.1466 69.7881 98.5402 70.3948 98.5402 71.1432C98.5402 71.8916 99.1466 72.4983 99.8947 72.4983Z" fill="#EAEEF4"/>
<path d="M116.826 102.988C117.574 102.988 118.18 102.381 118.18 101.633C118.18 100.885 117.574 100.278 116.826 100.278C116.078 100.278 115.471 100.885 115.471 101.633C115.471 102.381 116.078 102.988 116.826 102.988Z" fill="#EAEEF4"/>
<path d="M138.837 79.2737C139.585 79.2737 140.191 78.667 140.191 77.9186C140.191 77.1702 139.585 76.5635 138.837 76.5635C138.089 76.5635 137.482 77.1702 137.482 77.9186C137.482 78.667 138.089 79.2737 138.837 79.2737Z" fill="#EAEEF4"/>
<path d="M11.852 138.559C12.6001 138.559 13.2065 137.953 13.2065 137.204C13.2065 136.456 12.6001 135.849 11.852 135.849C11.1039 135.849 10.4975 136.456 10.4975 137.204C10.4975 137.953 11.1039 138.559 11.852 138.559Z" fill="#EAEEF4"/>
<path d="M135.45 38.6204C136.198 38.6204 136.805 38.0137 136.805 37.2653C136.805 36.5169 136.198 35.9102 135.45 35.9102C134.702 35.9102 134.096 36.5169 134.096 37.2653C134.096 38.0137 134.702 38.6204 135.45 38.6204Z" fill="#EAEEF4"/>
<path d="M152.381 128.396C153.129 128.396 153.736 127.79 153.736 127.041C153.736 126.293 153.129 125.686 152.381 125.686C151.633 125.686 151.027 126.293 151.027 127.041C151.027 127.79 151.633 128.396 152.381 128.396Z" fill="#EAEEF4"/>
<path d="M13.5454 86.0491C14.2934 86.0491 14.8999 85.4424 14.8999 84.694C14.8999 83.9456 14.2934 83.3389 13.5454 83.3389C12.7973 83.3389 12.1909 83.9456 12.1909 84.694C12.1909 85.4424 12.7973 86.0491 13.5454 86.0491Z" fill="#EAEEF4"/>
<path d="M104.974 26.7634C105.722 26.7634 106.328 26.1567 106.328 25.4083C106.328 24.6599 105.722 24.0532 104.974 24.0532C104.226 24.0532 103.619 24.6599 103.619 25.4083C103.619 26.1567 104.226 26.7634 104.974 26.7634Z" fill="#EAEEF4"/>
<path d="M85.6722 80.9673C87.1683 80.9673 88.3812 79.7539 88.3812 78.2571C88.3812 76.7603 87.1683 75.5469 85.6722 75.5469C84.176 75.5469 82.9632 76.7603 82.9632 78.2571C82.9632 79.7539 84.176 80.9673 85.6722 80.9673Z" fill="#EAEEF4"/>
<path d="M88.4623 77.9642C87.5035 77.1463 86.6147 76.2496 85.8053 75.2836C84.5907 73.8329 83.1483 71.6724 83.1483 69.6136C83.1478 68.5621 83.4592 67.5341 84.0431 66.6597C84.627 65.7853 85.4572 65.1038 86.4286 64.7014C87.4 64.299 88.469 64.1939 89.5002 64.3992C90.5314 64.6046 91.4785 65.1112 92.2216 65.855C92.7164 66.3476 93.1086 66.9334 93.3755 67.5786C93.6423 68.2237 93.7786 68.9154 93.7764 69.6136C93.7764 71.6724 92.334 73.8329 91.1194 75.2836C90.31 76.2496 89.4212 77.1463 88.4623 77.9642ZM88.4623 67.3361C87.8583 67.3361 87.2791 67.5761 86.8519 68.0032C86.4248 68.4303 86.1849 69.0095 86.1849 69.6136C86.1849 70.2176 86.4248 70.7969 86.8519 71.224C87.2791 71.6511 87.8583 71.891 88.4623 71.891C89.0664 71.891 89.6456 71.6511 90.0727 71.224C90.4998 70.7969 90.7398 70.2176 90.7398 69.6136C90.7398 69.0095 90.4998 68.4303 90.0727 68.0032C89.6456 67.5761 89.0664 67.3361 88.4623 67.3361Z" fill="#4D5051"/>
<path d="M41.9442 87.0853C40.9853 86.2674 40.0965 85.3707 39.2871 84.4047C38.0725 82.954 36.6301 80.7935 36.6301 78.7347C36.6296 77.6832 36.941 76.6552 37.5249 75.7808C38.1089 74.9064 38.939 74.2249 39.9105 73.8225C40.8819 73.4201 41.9508 73.315 42.982 73.5203C44.0132 73.7257 44.9603 74.2323 45.7034 74.9761C46.1982 75.4687 46.5904 76.0545 46.8573 76.6997C47.1241 77.3448 47.2604 78.0365 47.2582 78.7347C47.2582 80.7935 45.8158 82.954 44.6012 84.4047C43.7918 85.3707 42.903 86.2674 41.9442 87.0853ZM41.9442 76.4572C41.3401 76.4572 40.7609 76.6972 40.3338 77.1243C39.9067 77.5514 39.6667 78.1306 39.6667 78.7347C39.6667 79.3387 39.9067 79.9179 40.3338 80.345C40.7609 80.7722 41.3401 81.0121 41.9442 81.0121C42.5482 81.0121 43.1274 80.7722 43.5545 80.345C43.9816 79.9179 44.2216 79.3387 44.2216 78.7347C44.2216 78.1306 43.9816 77.5514 43.5545 77.1243C43.1274 76.6972 42.5482 76.4572 41.9442 76.4572Z" fill="#4D5051"/>
<path d="M139.684 90.8445C138.725 90.0267 137.836 89.13 137.026 88.164C135.812 86.7133 134.369 84.5527 134.369 82.4939C134.369 81.4425 134.68 80.4145 135.264 79.5401C135.848 78.6657 136.678 77.9842 137.65 77.5818C138.621 77.1794 139.69 77.0742 140.721 77.2796C141.753 77.4849 142.7 77.9916 143.443 78.7354C143.938 79.228 144.33 79.8138 144.597 80.4589C144.863 81.1041 145 81.7958 144.998 82.4939C144.998 84.5527 143.555 86.7133 142.341 88.164C141.531 89.13 140.642 90.0267 139.684 90.8445ZM139.684 80.2165C139.079 80.2165 138.5 80.4564 138.073 80.8835C137.646 81.3106 137.406 81.8899 137.406 82.4939C137.406 83.0979 137.646 83.6772 138.073 84.1043C138.5 84.5314 139.079 84.7714 139.684 84.7714C140.288 84.7714 140.867 84.5314 141.294 84.1043C141.721 83.6772 141.961 83.0979 141.961 82.4939C141.961 81.8899 141.721 81.3106 141.294 80.8835C140.867 80.4564 140.288 80.2165 139.684 80.2165Z" fill="#4D5051"/>
<path d="M127.536 128.296C126.577 127.478 125.688 126.581 124.879 125.615C123.664 124.164 122.222 122.004 122.222 119.945C122.222 118.894 122.533 117.866 123.117 116.991C123.701 116.117 124.531 115.435 125.502 115.033C126.474 114.631 127.543 114.525 128.574 114.731C129.605 114.936 130.552 115.443 131.295 116.187C131.79 116.679 132.182 117.265 132.449 117.91C132.716 118.555 132.852 119.247 132.85 119.945C132.85 122.004 131.408 124.164 130.193 125.615C129.384 126.581 128.495 127.478 127.536 128.296ZM127.536 117.668C126.932 117.668 126.353 117.908 125.926 118.335C125.499 118.762 125.259 119.341 125.259 119.945C125.259 120.549 125.499 121.128 125.926 121.555C126.353 121.983 126.932 122.223 127.536 122.223C128.14 122.223 128.719 121.983 129.146 121.555C129.574 121.128 129.814 120.549 129.814 119.945C129.814 119.341 129.574 118.762 129.146 118.335C128.719 117.908 128.14 117.668 127.536 117.668Z" fill="#4D5051"/>
<path d="M51.6221 126.271C50.6632 125.453 49.7745 124.557 48.9651 123.591C47.7504 122.14 46.3081 119.979 46.3081 117.921C46.3075 116.869 46.6189 115.841 47.2029 114.967C47.7868 114.092 48.617 113.411 49.5884 113.009C50.5598 112.606 51.6287 112.501 52.6599 112.706C53.6911 112.912 54.6382 113.418 55.3814 114.162C55.8762 114.655 56.2683 115.241 56.5352 115.886C56.8021 116.531 56.9383 117.223 56.9361 117.921C56.9361 119.979 55.4937 122.14 54.2791 123.591C53.4697 124.557 52.5809 125.453 51.6221 126.271ZM51.6221 115.643C51.0181 115.643 50.4388 115.883 50.0117 116.31C49.5846 116.737 49.3446 117.317 49.3446 117.921C49.3446 118.525 49.5846 119.104 50.0117 119.531C50.4388 119.958 51.0181 120.198 51.6221 120.198C52.2261 120.198 52.8054 119.958 53.2325 119.531C53.6596 119.104 53.8995 118.525 53.8995 117.921C53.8995 117.317 53.6596 116.737 53.2325 116.31C52.8054 115.883 52.2261 115.643 51.6221 115.643Z" fill="#4D5051"/>
<path d="M110.331 40.2347C109.372 39.4168 108.483 38.5202 107.674 37.5541C106.459 36.1034 105.017 33.9429 105.017 31.8841C105.016 30.8326 105.328 29.8047 105.912 28.9303C106.496 28.0559 107.326 27.3743 108.297 26.9719C109.269 26.5695 110.338 26.4644 111.369 26.6697C112.4 26.8751 113.347 27.3817 114.09 28.1255C114.585 28.6181 114.977 29.2039 115.244 29.8491C115.511 30.4942 115.647 31.1859 115.645 31.8841C115.645 33.9429 114.203 36.1034 112.988 37.5541C112.179 38.5202 111.29 39.4168 110.331 40.2347ZM110.331 29.6066C109.727 29.6066 109.148 29.8466 108.721 30.2737C108.293 30.7008 108.053 31.2801 108.053 31.8841C108.053 32.4881 108.293 33.0674 108.721 33.4945C109.148 33.9216 109.727 34.1615 110.331 34.1615C110.935 34.1615 111.514 33.9216 111.941 33.4945C112.368 33.0674 112.608 32.4881 112.608 31.8841C112.608 31.2801 112.368 30.7008 111.941 30.2737C111.514 29.8466 110.935 29.6066 110.331 29.6066Z" fill="#4D5051"/>
</svg>
